STARTFONT 2.1
COMMENT
COMMENT Converted from OpenType font "Q:\font stuff\winfont\consola.ttf" by "otf2bdf 3.0".
COMMENT
FONT -FreeType-Consolas-Medium-R-Normal--40-400-72-72-P-174-ISO10646-1
SIZE 40 72 72
FONTBOUNDINGBOX 38 54 -11 -12
STARTPROPERTIES 19
FOUNDRY "FreeType"
FAMILY_NAME "Consolas"
WEIGHT_NAME "Medium"
SLANT "R"
SETWIDTH_NAME "Normal"
ADD_STYLE_NAME ""
PIXEL_SIZE 28
POINT_SIZE 400
RESOLUTION_X 72
RESOLUTION_Y 72
SPACING "P"
AVERAGE_WIDTH 174
CHARSET_REGISTRY "ISO10646"
CHARSET_ENCODING "1"
FONT_ASCENT 29
FONT_DESCENT 8
COPYRIGHT "© 2008 Microsoft Corporation. All Rights Reserved."
_OTF_FONTFILE "Q:\font stuff\winfont\consola.ttf"
_OTF_PSNAME "Consolas"
ENDPROPERTIES
CHARS 2214
STARTCHAR 000D
ENCODING 13
SWIDTH 550 0
DWIDTH 22 0
BBX 0 0 0 0
BITMAP
ENDCHAR
STARTCHAR 0020
ENCODING 32
SWIDTH 550 0
DWIDTH 22 0
BBX 0 0 0 0
BITMAP
ENDCHAR
STARTCHAR 0021
ENCODING 33
SWIDTH 550 0
DWIDTH 22 0
BBX 5 28 8 0
BITMAP
78
78
78
78
78
78
78
78
78
78
78
78
78
78
78
78
78
38
38
38
00
00
00
70
F8
F8
F8
70
ENDCHAR
STARTCHAR 0022
ENCODING 34
SWIDTH 550 0
DWIDTH 22 0
BBX 13 9 4 19
BITMAP
F8F8
F8F8
F8F8
F8F8
F8F8
F8F8
F8F8
7070
7070
ENDCHAR
STARTCHAR 0023
ENCODING 35
SWIDTH 550 0
DWIDTH 22 0
BBX 20 26 1 0
BITMAP
038700
038700
038700
038700
078E00
070E00
070E00
7FFFF0
7FFFF0
7FFFF0
070E00
070E00
070E00
0E1C00
0E1C00
0E1C00
FFFFE0
FFFFE0
FFFFE0
0E1C00
0E1C00
0E1C00
1C3800
1C3800
1C3800
1C3800
ENDCHAR
STARTCHAR 0024
ENCODING 36
SWIDTH 550 0
DWIDTH 22 0
BBX 18 34 2 -5
BITMAP
003000
007000
007000
007000
03FC00
1FFF00
3FFF00
7C6300
F8E000
F0E000
F0E000
F0E000
F8E000
7CE000
3FE000
1FE000
07FC00
01FE00
01FF80
01CF80
01C7C0
01C3C0
0183C0
0383C0
0387C0
C38F80
FFFF00
FFFE00
3FF000
030000
070000
070000
070000
070000
ENDCHAR
STARTCHAR 0025
ENCODING 37
SWIDTH 550 0
DWIDTH 22 0
BBX 22 28 0 0
BITMAP
0F8038
1FE070
3FE0F0
78F0E0
7071C0
7073C0
707380
707700
78F700
3FEE00
3FDC00
0F9C00
003800
007800
007000
00E000
01E3E0
01C7F8
038FF8
079E3C
071C1C
0E1C1C
0E1C1C
1C1C1C
381E3C
380FF8
700FF0
F003E0
ENDCHAR
STARTCHAR 0026
ENCODING 38
SWIDTH 550 0
DWIDTH 22 0
BBX 20 28 1 0
BITMAP
03F000
0FF800
1FFC00
1E1E00
380E00
380E00
380E00
380E00
3C1C00
1C3C00
1EF800
0FF000
0FC000
0F8000
3FC1C0
3DE1C0
79E1C0
70F1C0
E07BC0
E07F80
E03F80
E01F80
E00F00
F01F80
783F80
3FFFC0
1FFBE0
0FC1F0
ENDCHAR
STARTCHAR 0027
ENCODING 39
SWIDTH 550 0
DWIDTH 22 0
BBX 5 9 9 19
BITMAP
F8
F8
F8
F8
F8
F8
F8
70
70
ENDCHAR
STARTCHAR 0028
ENCODING 40
SWIDTH 550 0
DWIDTH 22 0
BBX 11 37 6 -8
BITMAP
0080
00E0
01C0
0380
0780
0F00
0E00
1C00
3C00
3800
3800
7000
7000
7000
E000
E000
E000
E000
E000
E000
E000
E000
E000
7000
7000
7000
7800
3800
3C00
1C00
1E00
0F00
0780
03C0
03E0
01C0
0080
ENDCHAR
STARTCHAR 0029
ENCODING 41
SWIDTH 550 0
DWIDTH 22 0
BBX 11 37 5 -8
BITMAP
2000
7000
F000
7800
3C00
1E00
0E00
0700
0780
0380
0380
01C0
01C0
01C0
00E0
00E0
00E0
00E0
00E0
00E0
00E0
00E0
00E0
01C0
01C0
01C0
0380
0380
0780
0700
0E00
1E00
3C00
3800
7000
F000
4000
ENDCHAR
STARTCHAR 002A
ENCODING 42
SWIDTH 550 0
DWIDTH 22 0
BBX 15 17 4 11
BITMAP
0380
0380
0380
4384
E38C
FBBE
3FF8
0FE0
07C0
0FE0
3FF8
FBBE
E38E
4384
0380
0380
0380
ENDCHAR
STARTCHAR 002B
ENCODING 43
SWIDTH 550 0
DWIDTH 22 0
BBX 19 19 1 1
BITMAP
00E000
00E000
00E000
00E000
00E000
00E000
00E000
00E000
FFFFE0
FFFFE0
FFFFE0
00E000
00E000
00E000
00E000
00E000
00E000
00E000
00E000
ENDCHAR
STARTCHAR 002C
ENCODING 44
SWIDTH 550 0
DWIDTH 22 0
BBX 9 13 5 -7
BITMAP
0E00
1F00
1F80
1F80
0F80
0780
0780
0780
0F00
1F00
FE00
FC00
E000
ENDCHAR
STARTCHAR 002D
ENCODING 45
SWIDTH 550 0
DWIDTH 22 0
BBX 12 3 5 9
BITMAP
FFF0
FFF0
FFF0
ENDCHAR
STARTCHAR 002E
ENCODING 46
SWIDTH 550 0
DWIDTH 22 0
BBX 6 7 8 0
BITMAP
78
78
FC
FC
FC
78
78
ENDCHAR
STARTCHAR 002F
ENCODING 47
SWIDTH 550 0
DWIDTH 22 0
BBX 16 32 2 -4
BITMAP
0007
000F
000E
000E
001C
001C
003C
0038
0038
0070
0070
00F0
00E0
00E0
01C0
01C0
03C0
0380
0780
0700
0700
0F00
0E00
1E00
1C00
1C00
3800
3800
7800
7000
7000
E000
ENDCHAR
STARTCHAR 0030
ENCODING 48
SWIDTH 550 0
DWIDTH 22 0
BBX 18 26 2 0
BITMAP
03F000
0FFC00
1FFE00
3E1F00
380700
780780
700380
700780
E00FC0
E01FC0
E07DC0
E0F9C0
E1E1C0
E7C1C0
EF81C0
FE01C0
FC01C0
F003C0
700380
700380
780780
3C0700
3E1F00
1FFE00
0FFC00
03F000
ENDCHAR
STARTCHAR 0031
ENCODING 49
SWIDTH 550 0
DWIDTH 22 0
BBX 17 26 2 0
BITMAP
00F000
07F000
1FF000
7EF000
FCF000
70F000
40F000
00F000
00F000
00F000
00F000
00F000
00F000
00F000
00F000
00F000
00F000
00F000
00F000
00F000
00F000
00F000
00F000
7FFF80
7FFF80
7FFF80
ENDCHAR
STARTCHAR 0032
ENCODING 50
SWIDTH 550 0
DWIDTH 22 0
BBX 17 26 3 0
BITMAP
07E000
1FF800
7FFC00
F83E00
701E00
000F00
000F00
000F00
000F00
000F00
001F00
001E00
003E00
007C00
007800
00F000
01F000
03E000
07C000
0F8000
1F0000
3E0000
7C0000
FFFF80
FFFF80
FFFF80
ENDCHAR
STARTCHAR 0033
ENCODING 51
SWIDTH 550 0
DWIDTH 22 0
BBX 15 26 3 0
BITMAP
1FC0
7FF0
7FF8
6078
003C
001C
001C
001C
001C
0038
0070
1FE0
1FE0
1FF8
007C
001C
000E
000E
000E
000E
001E
001C
0078
FFF8
FFE0
FF80
ENDCHAR
STARTCHAR 0034
ENCODING 52
SWIDTH 550 0
DWIDTH 22 0
BBX 20 26 1 0
BITMAP
003E00
003E00
007E00
00FE00
00EE00
01EE00
01CE00
038E00
078E00
070E00
0E0E00
1E0E00
1C0E00
3C0E00
380E00
700E00
F00E00
FFFFF0
FFFFF0
FFFFF0
000E00
000E00
000E00
000E00
000E00
000E00
ENDCHAR
STARTCHAR 0035
ENCODING 53
SWIDTH 550 0
DWIDTH 22 0
BBX 16 26 3 0
BITMAP
FFFE
FFFE
FFFE
E000
E000
E000
E000
E000
E000
E000
FFC0
FFF8
FFFC
007E
001E
000F
000F
000F
000F
000F
001E
003E
80FC
FFF8
FFE0
3F80
ENDCHAR
STARTCHAR 0036
ENCODING 54
SWIDTH 550 0
DWIDTH 22 0
BBX 17 26 2 0
BITMAP
00FE00
03FE00
0FFE00
1F8000
3C0000
380000
700000
700000
600000
E00000
E3F000
EFFC00
FFFE00
FC1F00
F00780
E00380
E00380
E00380
E00380
700380
700780
780700
3C1F00
3FFE00
1FFC00
07E000
ENDCHAR
STARTCHAR 0037
ENCODING 55
SWIDTH 550 0
DWIDTH 22 0
BBX 17 26 2 0
BITMAP
FFFF80
FFFF80
FFFF80
000780
000700
000F00
000E00
001E00
001E00
003C00
003C00
007800
007800
007000
00F000
00E000
01E000
01C000
03C000
038000
078000
078000
0F0000
0F0000
1E0000
1E0000
ENDCHAR
STARTCHAR 0038
ENCODING 56
SWIDTH 550 0
DWIDTH 22 0
BBX 18 26 2 0
BITMAP
03F800
0FFE00
3FFF00
3C0F80
700780
700380
700380
700380
780700
3C0F00
1F3E00
0FFC00
07F800
0FFC00
1F3F00
3C1F80
780780
F007C0
F003C0
F003C0
F003C0
F807C0
7C0F80
7FFF00
1FFE00
07F800
ENDCHAR
STARTCHAR 0039
ENCODING 57
SWIDTH 550 0
DWIDTH 22 0
BBX 17 26 2 0
BITMAP
03E000
0FF800
3FFC00
7C1E00
700F00
F00700
E00700
E00380
E00380
E00380
E00380
700780
781F80
3FFF80
1FFB80
07E380
000380
000700
000700
000700
000E00
001E00
00FC00
3FF800
3FE000
3F0000
ENDCHAR
STARTCHAR 003A
ENCODING 58
SWIDTH 550 0
DWIDTH 22 0
BBX 6 20 8 0
BITMAP
78
FC
FC
FC
FC
78
00
00
00
00
00
00
00
00
78
FC
FC
FC
FC
78
ENDCHAR
STARTCHAR 003B
ENCODING 59
SWIDTH 550 0
DWIDTH 22 0
BBX 9 27 5 -7
BITMAP
0F00
1F80
1F80
1F80
1F80
0F00
0000
0000
0000
0000
0000
0000
0000
0000
0E00
1F00
1F80
1F80
0F80
0780
0780
0780
0F00
1F00
FE00
FC00
E000
ENDCHAR
STARTCHAR 003C
ENCODING 60
SWIDTH 550 0
DWIDTH 22 0
BBX 14 22 4 0
BITMAP
0010
0038
007C
00F8
01E0
07C0
0F80
1F00
3E00
7C00
F800
F800
7C00
3E00
1F00
0F80
07C0
01E0
00F0
007C
0038
0010
ENDCHAR
STARTCHAR 003D
ENCODING 61
SWIDTH 550 0
DWIDTH 22 0
BBX 17 10 3 6
BITMAP
FFFF80
FFFF80
FFFF80
000000
000000
000000
000000
FFFF80
FFFF80
FFFF80
ENDCHAR
STARTCHAR 003E
ENCODING 62
SWIDTH 550 0
DWIDTH 22 0
BBX 14 22 4 0
BITMAP
2000
7000
F800
3C00
1E00
0F80
07C0
03E0
01F0
00F8
007C
007C
00F8
01F0
03E0
07C0
0F80
1E00
3C00
F800
7000
2000
ENDCHAR
STARTCHAR 003F
ENCODING 63
SWIDTH 550 0
DWIDTH 22 0
BBX 12 28 6 0
BITMAP
F000
FE00
FF80
0FC0
03C0
01E0
01F0
00F0
00F0
00F0
00F0
01F0
03E0
3FE0
3FC0
3F00
3800
3800
3800
3800
0000
0000
0000
3800
7C00
7C00
7C00
3800
ENDCHAR
STARTCHAR 0040
ENCODING 64
SWIDTH 550 0
DWIDTH 22 0
BBX 22 36 0 -8
BITMAP
003F00
00FFC0
03C1E0
0780F0
070070
0E0038
1C0038
1C0038
380018
38001C
383F9C
707F9C
70FF9C
71E79C
71C79C
E1C79C
E3871C
E3871C
E3871C
E3871C
E3871C
E38738
E38F38
E39F38
E3FFF0
E1FBF0
E0F1C0
700000
700000
700000
380000
380000
1C0080
0F0780
07FF80
01FC00
ENDCHAR
STARTCHAR 0041
ENCODING 65
SWIDTH 550 0
DWIDTH 22 0
BBX 21 26 0 0
BITMAP
00F800
00F800
01FC00
01DC00
01DC00
03DE00
038E00
038E00
078F00
070700
070700
0F0780
0E0380
0E0380
1E03C0
1C03C0
1C01C0
3FFFE0
3FFFE0
3FFFE0
7800F0
7800F0
700070
F00078
F00078
E00038
ENDCHAR
STARTCHAR 0042
ENCODING 66
SWIDTH 550 0
DWIDTH 22 0
BBX 16 26 3 0
BITMAP
FFE0
FFF8
FFFC
E03C
E01E
E00E
E00E
E00E
E00E
E01C
E03C
FFF0
FFF0
FFFC
E03E
E00E
E007
E007
E007
E007
E007
E00E
E03E
FFFC
FFF8
FFC0
ENDCHAR
STARTCHAR 0043
ENCODING 67
SWIDTH 550 0
DWIDTH 22 0
BBX 17 26 2 0
BITMAP
00FC00
07FF00
0FFF80
1F8380
3E0080
3C0000
780000
780000
780000
F00000
F00000
F00000
F00000
F00000
F00000
F00000
F00000
F80000
780000
780000
7C0000
3E0000
1F8180
1FFF80
07FF80
01FE00
ENDCHAR
STARTCHAR 0044
ENCODING 68
SWIDTH 550 0
DWIDTH 22 0
BBX 19 26 2 0
BITMAP
FFE000
FFFC00
FFFE00
E03F00
E00F80
E007C0
E003C0
E003C0
E003E0
E001E0
E001E0
E001E0
E001E0
E001E0
E001E0
E001E0
E001E0
E003C0
E003C0
E007C0
E00780
E00F80
E07F00
FFFE00
FFF800
FFC000
ENDCHAR
STARTCHAR 0045
ENCODING 69
SWIDTH 550 0
DWIDTH 22 0
BBX 15 26 4 0
BITMAP
FFFE
FFFE
FFFE
E000
E000
E000
E000
E000
E000
E000
E000
FFFE
FFFE
FFFE
E000
E000
E000
E000
E000
E000
E000
E000
E000
FFFE
FFFE
FFFE
ENDCHAR
STARTCHAR 0046
ENCODING 70
SWIDTH 550 0
DWIDTH 22 0
BBX 14 26 4 0
BITMAP
FFFC
FFFC
FFFC
E000
E000
E000
E000
E000
E000
E000
E000
FFF8
FFF8
FFF8
E000
E000
E000
E000
E000
E000
E000
E000
E000
E000
E000
E000
ENDCHAR
STARTCHAR 0047
ENCODING 71
SWIDTH 550 0
DWIDTH 22 0
BBX 18 26 1 0
BITMAP
00FE00
03FF80
0FFFC0
1F81C0
3E0040
3C0000
7C0000
780000
780000
F00000
F00000
F03FC0
F03FC0
F03FC0
F001C0
F001C0
F001C0
F801C0
7801C0
7801C0
7C01C0
3E01C0
1F81C0
0FFFC0
07FFC0
01FE00
ENDCHAR
STARTCHAR 0048
ENCODING 72
SWIDTH 550 0
DWIDTH 22 0
BBX 18 26 2 0
BITMAP
E001C0
E001C0
E001C0
E001C0
E001C0
E001C0
E001C0
E001C0
E001C0
E001C0
E001C0
FFFFC0
FFFFC0
FFFFC0
E001C0
E001C0
E001C0
E001C0
E001C0
E001C0
E001C0
E001C0
E001C0
E001C0
E001C0
E001C0
ENDCHAR
STARTCHAR 0049
ENCODING 73
SWIDTH 550 0
DWIDTH 22 0
BBX 15 26 3 0
BITMAP
FFFE
FFFE
FFFE
0380
0380
0380
0380
0380
0380
0380
0380
0380
0380
0380
0380
0380
0380
0380
0380
0380
0380
0380
0380
FFFE
FFFE
FFFE
ENDCHAR
STARTCHAR 004A
ENCODING 74
SWIDTH 550 0
DWIDTH 22 0
BBX 13 26 4 0
BITMAP
FFF8
FFF8
FFF8
0038
0038
0038
0038
0038
0038
0038
0038
0038
0038
0038
0038
0038
0038
0038
0038
0038
0038
8070
E0F0
FFE0
7FC0
1F00
ENDCHAR
STARTCHAR 004B
ENCODING 75
SWIDTH 550 0
DWIDTH 22 0
BBX 17 26 3 0
BITMAP
E00780
E00F00
E01E00
E03C00
E07800
E07000
E0F000
E1E000
E3C000
E78000
E70000
EE0000
FC0000
FE0000
EF0000
E78000
E3C000
E3C000
E1E000
E0F000
E07800
E07C00
E03C00
E01E00
E00F00
E00780
ENDCHAR
STARTCHAR 004C
ENCODING 76
SWIDTH 550 0
DWIDTH 22 0
BBX 15 26 5 0
BITMAP
E000
E000
E000
E000
E000
E000
E000
E000
E000
E000
E000
E000
E000
E000
E000
E000
E000
E000
E000
E000
E000
E000
E000
FFFE
FFFE
FFFE
ENDCHAR
STARTCHAR 004D
ENCODING 77
SWIDTH 550 0
DWIDTH 22 0
BBX 20 26 1 0
BITMAP
7801E0
7C01E0
7C03E0
7C03F0
7E0770
7E0770
6E0670
670E70
670E70
E30C70
E39C70
E39C70
E19870
E1F870
E1F070
E0F070
E0F070
E0E070
E00070
E00070
E00070
E00070
E00070
E00070
E00070
E00070
ENDCHAR
STARTCHAR 004E
ENCODING 78
SWIDTH 550 0
DWIDTH 22 0
BBX 18 26 2 0
BITMAP
F801C0
F801C0
FC01C0
FC01C0
FE01C0
EE01C0
EF01C0
E701C0
E781C0
E781C0
E3C1C0
E3C1C0
E1E1C0
E1E1C0
E0F1C0
E0F1C0
E071C0
E079C0
E039C0
E03DC0
E01DC0
E01FC0
E00FC0
E00FC0
E007C0
E007C0
ENDCHAR
STARTCHAR 004F
ENCODING 79
SWIDTH 550 0
DWIDTH 22 0
BBX 20 26 1 0
BITMAP
01F800
07FF00
0FFF80
1E07C0
3C03C0
3801E0
7000E0
7000E0
F000F0
E00070
E00070
E00070
E00070
E00070
E00070
E00070
E00070
E000F0
7000E0
7000E0
7801C0
3C03C0
3E0780
1FFF00
0FFE00
03F800
ENDCHAR
STARTCHAR 0050
ENCODING 80
SWIDTH 550 0
DWIDTH 22 0
BBX 17 26 3 0
BITMAP
FFE000
FFFC00
FFFE00
E03F00
E01F00
E00F80
E00780
E00780
E00780
E00780
E00780
E00F00
E01F00
E03E00
FFFC00
FFF800
FFC000
E00000
E00000
E00000
E00000
E00000
E00000
E00000
E00000
E00000
ENDCHAR
STARTCHAR 0051
ENCODING 81
SWIDTH 550 0
DWIDTH 22 0
BBX 21 33 1 -7
BITMAP
01F800
07FF00
0FFF80
1F0FC0
3C03C0
3C03E0
7801E0
7801E0
F000F0
F000F0
F000F0
F000F0
F000F0
F000F0
F000F0
F000F0
F000F0
F001F0
7801E0
7801E0
7C03C0
3C03C0
3F0F80
1FFF00
0FFE00
03F800
00E000
00E000
00F000
007830
003FF8
001FF0
000FC0
ENDCHAR
STARTCHAR 0052
ENCODING 82
SWIDTH 550 0
DWIDTH 22 0
BBX 18 26 3 0
BITMAP
FFE000
FFF800
FFFC00
E07E00
E01F00
E00F00
E00F00
E00F00
E00F00
E01F00
E01E00
E07E00
FFFC00
FFF000
FFE000
E1F000
E07800
E03C00
E03C00
E01E00
E01E00
E00F00
E00F00
E00780
E00780
E003C0
ENDCHAR
STARTCHAR 0053
ENCODING 83
SWIDTH 550 0
DWIDTH 22 0
BBX 17 26 2 0
BITMAP
07F800
1FFE00
3FFE00
7C0600
F80000
F00000
F00000
F00000
F80000
7C0000
7F0000
3FC000
1FF000
07FC00
00FE00
003F00
000F80
000780
000780
000780
000780
000F00
C01F00
FFFE00
FFFC00
3FE000
ENDCHAR
STARTCHAR 0054
ENCODING 84
SWIDTH 550 0
DWIDTH 22 0
BBX 19 26 1 0
BITMAP
FFFFE0
FFFFE0
FFFFE0
00E000
00E000
00E000
00E000
00E000
00E000
00E000
00E000
00E000
00E000
00E000
00E000
00E000
00E000
00E000
00E000
00E000
00E000
00E000
00E000
00E000
00E000
00E000
ENDCHAR
STARTCHAR 0055
ENCODING 85
SWIDTH 550 0
DWIDTH 22 0
BBX 17 26 2 0
BITMAP
E00380
E00380
E00380
E00380
E00380
E00380
E00380
E00380
E00380
E00380
E00380
E00380
E00380
E00380
E00380
E00380
E00380
E00380
E00380
E00380
F00700
700700
7C1F00
3FFE00
1FFC00
07F000
ENDCHAR
STARTCHAR 0056
ENCODING 86
SWIDTH 550 0
DWIDTH 22 0
BBX 21 26 1 0
BITMAP
F00038
F00078
F00078
780070
7800F0
7800F0
3800E0
3C01E0
3C01E0
1C01C0
1E03C0
1E03C0
0E0380
0F0780
0F0780
070700
078F00
078F00
038E00
03DE00
03DE00
01DC00
01DC00
01FC00
00F800
00F800
ENDCHAR
STARTCHAR 0057
ENCODING 87
SWIDTH 550 0
DWIDTH 22 0
BBX 20 26 1 0
BITMAP
E00070
E00070
E00070
E00070
E00070
F00070
7000F0
7000E0
7000E0
7060E0
7070E0
70F0E0
70F0E0
70F0E0
70F8E0
71F8E0
7998E0
799CE0
7B9DE0
3B9DE0
3B0DC0
3B0FC0
3F0FC0
3F0FC0
3E07C0
3E07C0
ENDCHAR
STARTCHAR 0058
ENCODING 88
SWIDTH 550 0
DWIDTH 22 0
BBX 22 26 0 0
BITMAP
780078
3C00F0
1E01E0
1E01E0
0F03C0
078780
078780
03CF00
03DF00
01FE00
00FC00
00FC00
007800
00FC00
00FC00
01FE00
03CF00
03CF00
078780
0F87C0
0F03C0
1E01E0
3E01F0
3C00F0
780078
F8007C
ENDCHAR
STARTCHAR 0059
ENCODING 89
SWIDTH 550 0
DWIDTH 22 0
BBX 21 26 0 0
BITMAP
F00078
7800F0
7800F0
3C01E0
3C01E0
1E03C0
1E03C0
0F0780
070780
078F00
038E00
03CE00
01DC00
01FC00
00F800
00F800
007000
007000
007000
007000
007000
007000
007000
007000
007000
007000
ENDCHAR
STARTCHAR 005A
ENCODING 90
SWIDTH 550 0
DWIDTH 22 0
BBX 18 26 2 0
BITMAP
FFFF80
FFFF80
FFFF80
000F00
000F00
001E00
001C00
003C00
007800
007800
00F000
00E000
01E000
03C000
03C000
078000
070000
0F0000
1E0000
1E0000
3C0000
380000
780000
FFFFC0
FFFFC0
FFFFC0
ENDCHAR
STARTCHAR 005B
ENCODING 91
SWIDTH 550 0
DWIDTH 22 0
BBX 9 36 7 -8
BITMAP
FF80
FF80
FF80
E000
E000
E000
E000
E000
E000
E000
E000
E000
E000
E000
E000
E000
E000
E000
E000
E000
E000
E000
E000
E000
E000
E000
E000
E000
E000
E000
E000
E000
E000
FF80
FF80
FF80
ENDCHAR
STARTCHAR 005C
ENCODING 92
SWIDTH 550 0
DWIDTH 22 0
BBX 16 32 3 -4
BITMAP
E000
7000
7000
7800
3800
3800
1C00
1C00
1E00
0E00
0F00
0700
0700
0780
0380
03C0
01C0
01C0
00E0
00E0
00F0
0070
0070
0038
0038
003C
001C
001C
000E
000E
000F
0007
ENDCHAR
STARTCHAR 005D
ENCODING 93
SWIDTH 550 0
DWIDTH 22 0
BBX 9 36 6 -8
BITMAP
FF80
FF80
FF80
0380
0380
0380
0380
0380
0380
0380
0380
0380
0380
0380
0380
0380
0380
0380
0380
0380
0380
0380
0380
0380
0380
0380
0380
0380
0380
0380
0380
0380
0380
FF80
FF80
FF80
ENDCHAR
STARTCHAR 005E
ENCODING 94
SWIDTH 550 0
DWIDTH 22 0
BBX 16 12 3 14
BITMAP
0380
07C0
07E0
0EE0
0E70
1C70
1838
381C
701C
700E
E007
E007
ENDCHAR
STARTCHAR 005F
ENCODING 95
SWIDTH 550 0
DWIDTH 22 0
BBX 22 3 0 -8
BITMAP
FFFFFC
FFFFFC
FFFFFC
ENDCHAR
STARTCHAR 0060
ENCODING 96
SWIDTH 550 0
DWIDTH 22 0
BBX 8 5 4 20
BITMAP
F0
78
3C
1E
0F
ENDCHAR
STARTCHAR 0061
ENCODING 97
SWIDTH 550 0
DWIDTH 22 0
BBX 16 20 3 0
BITMAP
0FF0
3FFC
3FFE
301E
000F
0007
0007
0007
07FF
1FFF
7FFF
7C07
F807
F007
F007
F01F
F87F
7FFF
3FF7
1FC7
ENDCHAR
STARTCHAR 0062
ENCODING 98
SWIDTH 550 0
DWIDTH 22 0
BBX 16 28 3 0
BITMAP
E000
E000
E000
E000
E000
E000
E000
E000
E1F0
E7F8
EFFC
FE1E
F80E
F00F
E007
E007
E007
E007
E007
E007
E007
E00F
E00E
E01E
F03C
FFF8
FFF0
1FC0
ENDCHAR
STARTCHAR 0063
ENCODING 99
SWIDTH 550 0
DWIDTH 22 0
BBX 15 20 3 0
BITMAP
03FC
0FFE
1FFE
3E06
7800
7000
7000
E000
E000
E000
E000
E000
E000
F000
7000
7800
3E06
3FFE
0FFE
03F8
ENDCHAR
STARTCHAR 0064
ENCODING 100
SWIDTH 550 0
DWIDTH 22 0
BBX 16 28 2 0
BITMAP
0007
0007
0007
0007
0007
0007
0007
0007
03FF
0FFF
1FFF
3C0F
7807
7007
F007
E007
E007
E007
E007
E007
E007
E00F
F01F
703F
787F
3FF7
1FE7
0F87
ENDCHAR
STARTCHAR 0065
ENCODING 101
SWIDTH 550 0
DWIDTH 22 0
BBX 17 20 2 0
BITMAP
03F000
0FFC00
1FFE00
3C1F00
780700
700780
E00380
E00380
FFFF80
FFFF80
FFFF80
E00000
E00000
E00000
700000
780000
3C0300
3FFF00
0FFF00
03FC00
ENDCHAR
STARTCHAR 0066
ENCODING 102
SWIDTH 550 0
DWIDTH 22 0
BBX 19 28 2 0
BITMAP
001FC0
007FE0
00FFE0
01E060
03C000
038000
038000
038000
038000
038000
038000
FFFFC0
FFFFC0
FFFFC0
038000
038000
038000
038000
038000
038000
038000
038000
038000
038000
038000
038000
038000
038000
ENDCHAR
STARTCHAR 0067
ENCODING 103
SWIDTH 550 0
DWIDTH 22 0
BBX 19 28 2 -8
BITMAP
07FFC0
0FFFC0
1FFFC0
3C1E00
780F00
700700
700700
700700
700700
780F00
3C1E00
3FFC00
3FF800
77F000
700000
700000
7C0000
7FFE00
3FFF80
3FFFC0
7803E0
F001E0
F001E0
F003E0
FC07C0
7FFF80
3FFF00
0FFC00
ENDCHAR
STARTCHAR 0068
ENCODING 104
SWIDTH 550 0
DWIDTH 22 0
BBX 15 28 3 0
BITMAP
E000
E000
E000
E000
E000
E000
E000
E000
E3F0
E7F8
EFFC
FE3C
F81E
F00E
E00E
E00E
E00E
E00E
E00E
E00E
E00E
E00E
E00E
E00E
E00E
E00E
E00E
E00E
ENDCHAR
STARTCHAR 0069
ENCODING 105
SWIDTH 550 0
DWIDTH 22 0
BBX 16 28 3 0
BITMAP
01C0
03E0
03E0
03E0
01C0
0000
0000
0000
7FC0
7FC0
7FC0
01C0
01C0
01C0
01C0
01C0
01C0
01C0
01C0
01C0
01C0
01C0
01C0
01C0
01C0
FFFF
FFFF
FFFF
ENDCHAR
STARTCHAR 006A
ENCODING 106
SWIDTH 550 0
DWIDTH 22 0
BBX 15 36 2 -8
BITMAP
001C
003E
003E
003E
001C
0000
0000
0000
7FFC
7FFC
7FFC
001C
001C
001C
001C
001C
001C
001C
001C
001C
001C
001C
001C
001C
001C
001C
001C
001C
001C
001C
003C
0038
C0F8
FFF0
FFE0
3F80
ENDCHAR
STARTCHAR 006B
ENCODING 107
SWIDTH 550 0
DWIDTH 22 0
BBX 18 28 4 0
BITMAP
E00000
E00000
E00000
E00000
E00000
E00000
E00000
E00000
E01F00
E01E00
E03C00
E07800
E0F000
E1E000
E3C000
E78000
EF0000
FE0000
EF0000
E78000
E3C000
E1E000
E0F000
E07800
E03C00
E01E00
E00F00
E007C0
ENDCHAR
STARTCHAR 006C
ENCODING 108
SWIDTH 550 0
DWIDTH 22 0
BBX 16 28 3 0
BITMAP
7FC0
7FC0
7FC0
01C0
01C0
01C0
01C0
01C0
01C0
01C0
01C0
01C0
01C0
01C0
01C0
01C0
01C0
01C0
01C0
01C0
01C0
01C0
01C0
01C0
01C0
FFFF
FFFF
FFFF
ENDCHAR
STARTCHAR 006D
ENCODING 109
SWIDTH 550 0
DWIDTH 22 0
BBX 19 20 1 0
BITMAP
E78780
EFCFC0
FFDFE0
FCFCE0
F8F8E0
F0F0E0
F0F0E0
E0E0E0
E0E0E0
E0E0E0
E0E0E0
E0E0E0
E0E0E0
E0E0E0
E0E0E0
E0E0E0
E0E0E0
E0E0E0
E0E0E0
E0E0E0
ENDCHAR
STARTCHAR 006E
ENCODING 110
SWIDTH 550 0
DWIDTH 22 0
BBX 15 20 3 0
BITMAP
E3F0
E7F8
FFFC
FE3C
F81E
F00E
E00E
E00E
E00E
E00E
E00E
E00E
E00E
E00E
E00E
E00E
E00E
E00E
E00E
E00E
ENDCHAR
STARTCHAR 006F
ENCODING 111
SWIDTH 550 0
DWIDTH 22 0
BBX 18 20 2 0
BITMAP
03F000
0FFC00
1FFF00
3C0F00
780780
700380
F003C0
E001C0
E001C0
E001C0
E001C0
E001C0
E001C0
F003C0
700380
780780
3C1F00
3FFE00
0FFC00
03F000
ENDCHAR
STARTCHAR 0070
ENCODING 112
SWIDTH 550 0
DWIDTH 22 0
BBX 16 28 3 -8
BITMAP
E1F0
E7F8
EFFC
FE1E
F80E
F00F
E007
E007
E007
E007
E007
E007
E007
E00F
E00E
E01E
F03C
FFF8
FFF0
FFC0
E000
E000
E000
E000
E000
E000
E000
E000
ENDCHAR
STARTCHAR 0071
ENCODING 113
SWIDTH 550 0
DWIDTH 22 0
BBX 16 28 2 -8
BITMAP
03FB
0FFF
1FFF
3C0F
7807
7007
7007
E007
E007
E007
E007
E007
E007
E00F
F01F
703F
787F
3FF7
1FE7
0F87
0007
0007
0007
0007
0007
0007
0007
0007
ENDCHAR
STARTCHAR 0072
ENCODING 114
SWIDTH 550 0
DWIDTH 22 0
BBX 16 20 4 0
BITMAP
E1F0
E7FC
EFFE
FF1E
FC0F
F807
F007
E007
E000
E000
E000
E000
E000
E000
E000
E000
E000
E000
E000
E000
ENDCHAR
STARTCHAR 0073
ENCODING 115
SWIDTH 550 0
DWIDTH 22 0
BBX 15 20 4 0
BITMAP
07F0
3FFC
7FFC
F80C
E000
E000
E000
F800
7F00
3FE0
0FF8
01FC
003E
000E
000E
000E
C03E
FFFC
FFF8
3FC0
ENDCHAR
STARTCHAR 0074
ENCODING 116
SWIDTH 550 0
DWIDTH 22 0
BBX 18 26 1 0
BITMAP
018000
038000
038000
038000
038000
038000
FFFFC0
FFFFC0
FFFFC0
038000
038000
038000
038000
038000
038000
038000
038000
038000
038000
038000
038000
038000
03E040
01FFC0
00FFC0
003F80
ENDCHAR
STARTCHAR 0075
ENCODING 117
SWIDTH 550 0
DWIDTH 22 0
BBX 15 20 3 0
BITMAP
E00E
E00E
E00E
E00E
E00E
E00E
E00E
E00E
E00E
E00E
E00E
E00E
E00E
E00E
E01E
F03E
78FE
7FFE
3FCE
1F8E
ENDCHAR
STARTCHAR 0076
ENCODING 118
SWIDTH 550 0
DWIDTH 22 0
BBX 19 20 2 0
BITMAP
F000E0
F001E0
F001C0
7803C0
7803C0
380380
3C0780
3C0700
1C0700
1E0F00
0E0E00
0F1E00
0F1C00
071C00
07BC00
03B800
03B800
03F000
01F000
01F000
ENDCHAR
STARTCHAR 0077
ENCODING 119
SWIDTH 550 0
DWIDTH 22 0
BBX 19 20 1 0
BITMAP
E000E0
E000E0
E000E0
E000E0
E000E0
E0E0E0
E0E0E0
F0F1E0
71F1C0
71B1C0
71B1C0
73B9C0
73B9C0
7319C0
771DC0
771D80
360F80
3E0F80
3E0F80
3C0780
ENDCHAR
STARTCHAR 0078
ENCODING 120
SWIDTH 550 0
DWIDTH 22 0
BBX 20 20 1 0
BITMAP
7C03E0
3C03C0
1E0780
0F0F00
0F0F00
079E00
03BC00
03FC00
01F800
00F000
01F800
03F800
03DC00
079E00
0F0F00
1F0780
1E0780
3C03C0
7801E0
F801F0
ENDCHAR
STARTCHAR 0079
ENCODING 121
SWIDTH 550 0
DWIDTH 22 0
BBX 19 28 1 -8
BITMAP
7800E0
7801E0
3801E0
3C01C0
3C03C0
1C0380
1E0380
0E0780
0F0700
0F0700
070F00
078E00
038E00
039E00
03DC00
01DC00
01F800
00F800
00F800
00F000
00F000
00E000
01E000
03C000
07C000
FF8000
FF0000
F80000
ENDCHAR
STARTCHAR 007A
ENCODING 122
SWIDTH 550 0
DWIDTH 22 0
BBX 16 20 3 0
BITMAP
FFFE
FFFE
FFFE
001C
0038
0078
00F0
00E0
01E0
03C0
0780
0700
0F00
1E00
3C00
3800
7800
FFFF
FFFF
FFFF
ENDCHAR
STARTCHAR 007B
ENCODING 123
SWIDTH 550 0
DWIDTH 22 0
BBX 14 36 4 -8
BITMAP
007C
01FC
03FC
03C0
0780
0700
0700
0700
0700
0700
0700
0700
0700
0700
0E00
FC00
F000
FC00
1E00
0F00
0700
0700
0700
0700
0700
0700
0700
0700
0700
0700
0700
0780
03C0
03FC
01FC
007C
ENDCHAR
STARTCHAR 007C
ENCODING 124
SWIDTH 550 0
DWIDTH 22 0
BBX 3 40 9 -8
BITMAP
E0
E0
E0
E0
E0
E0
E0
E0
E0
E0
E0
E0
E0
E0
E0
E0
E0
E0
E0
E0
E0
E0
E0
E0
E0
E0
E0
E0
E0
E0
E0
E0
E0
E0
E0
E0
E0
E0
E0
E0
ENDCHAR
STARTCHAR 007D
ENCODING 125
SWIDTH 550 0
DWIDTH 22 0
BBX 14 36 4 -8
BITMAP
F800
FE00
FF00
0F00
0780
0380
0380
0380
0380
0380
0380
0380
0380
03C0
01E0
01FC
003C
00FC
01C0
0380
0380
0380
0380
0380
0380
0380
0380
0380
0380
0380
0380
0780
0F00
FF00
FE00
F800
ENDCHAR
STARTCHAR 007E
ENCODING 126
SWIDTH 550 0
DWIDTH 22 0
BBX 19 8 1 7
BITMAP
1F0000
3F80E0
7FC0E0
F1E0E0
E0F1C0
E07FC0
E03F80
001F00
ENDCHAR
STARTCHAR 00A0
ENCODING 160
SWIDTH 550 0
DWIDTH 22 0
BBX 0 0 0 0
BITMAP
ENDCHAR
STARTCHAR 00A1
ENCODING 161
SWIDTH 550 0
DWIDTH 22 0
BBX 5 28 8 -8
BITMAP
70
F8
F8
F8
70
00
00
00
70
70
70
70
78
78
78
78
78
78
78
78
78
78
78
78
78
78
78
78
ENDCHAR
STARTCHAR 00A2
ENCODING 162
SWIDTH 550 0
DWIDTH 22 0
BBX 15 34 2 -5
BITMAP
0038
0038
0038
0038
0030
0070
03FC
0FFE
1FFE
3E72
7C70
7870
7870
F0E0
F0E0
F0E0
F0E0
F0E0
F0E0
F0E0
78E0
79C0
3DC2
3FFE
0FFE
03F8
01C0
01C0
01C0
0180
0380
0380
0380
0380
ENDCHAR
STARTCHAR 00A3
ENCODING 163
SWIDTH 550 0
DWIDTH 22 0
BBX 18 26 2 0
BITMAP
00FC00
03FF00
07FFC0
0F8380
0E0100
1E0000
1C0000
1C0000
1C0000
1C0000
1C0000
1C0000
FFFE00
FFFE00
FFFE00
1C0000
1C0000
1C0000
1C0000
1C0000
1C0000
1C0000
1C0000
FFFFC0
FFFFC0
FFFFC0
ENDCHAR
STARTCHAR 00A4
ENCODING 164
SWIDTH 550 0
DWIDTH 22 0
BBX 19 24 2 1
BITMAP
200080
7001C0
F803E0
7803C0
3DFF80
1FFF00
1FFF00
1E0F00
1C0700
3C0380
380380
380380
380380
380380
380780
3C0700
1E0F00
1FFF00
1FFF00
3FF780
7803C0
F803E0
7001C0
200080
ENDCHAR
STARTCHAR 00A5
ENCODING 165
SWIDTH 550 0
DWIDTH 22 0
BBX 19 26 1 0
BITMAP
F001E0
7803C0
7803C0
3C0780
1C0700
1E0F00
0F0E00
0F1E00
079C00
03B800
03F800
01F000
01F000
00E000
3FFF80
3FFF80
3FFF80
00E000
00E000
00E000
3FFF80
3FFF80
3FFF80
00E000
00E000
00E000
ENDCHAR
STARTCHAR 00A6
ENCODING 166
SWIDTH 550 0
DWIDTH 22 0
BBX 3 40 9 -8
BITMAP
E0
E0
E0
E0
E0
E0
E0
E0
E0
E0
E0
E0
E0
E0
E0
E0
00
00
00
00
00
00
00
00
E0
E0
E0
E0
E0
E0
E0
E0
E0
E0
E0
E0
E0
E0
E0
E0
ENDCHAR
STARTCHAR 00A7
ENCODING 167
SWIDTH 550 0
DWIDTH 22 0
BBX 16 33 3 -5
BITMAP
03F8
0FFC
1FFC
1E04
3800
3800
3800
3C00
1E00
1F80
3FC0
7BF0
70F8
E07C
E01E
E00E
E007
7007
7807
3E07
1F0E
0FDE
03FC
00F8
0078
003C
001C
001C
001C
6078
7FF8
7FF0
3F80
ENDCHAR
STARTCHAR 00A8
ENCODING 168
SWIDTH 550 0
DWIDTH 22 0
BBX 13 4 5 20
BITMAP
7070
F8F8
F8F8
7070
ENDCHAR
STARTCHAR 00A9
ENCODING 169
SWIDTH 550 0
DWIDTH 22 0
BBX 22 26 0 0
BITMAP
00FC00
03FF80
0F03C0
1E01E0
3C00F0
380070
707C38
70FE38
71E238
E1C01C
E3801C
E3801C
E3801C
E3801C
E3801C
E3801C
E3C01C
71E238
70FE38
707C38
380070
3C00F0
1E01E0
0F03C0
07FF00
00FC00
ENDCHAR
STARTCHAR 00AA
ENCODING 170
SWIDTH 550 0
DWIDTH 22 0
BBX 12 18 5 8
BITMAP
3F00
7FC0
41E0
00E0
00E0
00E0
1FE0
7FE0
F0E0
E0E0
E0E0
E3E0
7FE0
3CE0
0000
0000
FFF0
FFF0
ENDCHAR
STARTCHAR 00AB
ENCODING 171
SWIDTH 550 0
DWIDTH 22 0
BBX 16 16 4 3
BITMAP
0804
1E0F
1C1E
3C1C
383C
7838
7070
E0E0
E0E0
7070
7838
383C
3C1C
1C0E
1E0F
0804
ENDCHAR
STARTCHAR 00AC
ENCODING 172
SWIDTH 550 0
DWIDTH 22 0
BBX 17 9 2 3
BITMAP
FFFF80
FFFF80
FFFF80
000380
000380
000380
000380
000380
000380
ENDCHAR
STARTCHAR 00AD
ENCODING 173
SWIDTH 550 0
DWIDTH 22 0
BBX 12 3 5 9
BITMAP
FFF0
FFF0
FFF0
ENDCHAR
STARTCHAR 00AE
ENCODING 174
SWIDTH 550 0
DWIDTH 22 0
BBX 18 18 2 10
BITMAP
03F000
0FFC00
1C0E00
380700
73E380
63F180
C318C0
C338C0
C3F0C0
C3E0C0
C370C0
C330C0
631980
731B80
380700
1C0E00
0FFC00
03F000
ENDCHAR
STARTCHAR 00AF
ENCODING 175
SWIDTH 550 0
DWIDTH 22 0
BBX 10 3 6 20
BITMAP
FFC0
FFC0
FFC0
ENDCHAR
STARTCHAR 00B0
ENCODING 176
SWIDTH 550 0
DWIDTH 22 0
BBX 13 13 4 15
BITMAP
0F80
3FE0
7FF0
7870
F038
E038
E038
E038
E078
7070
7FF0
3FE0
0F80
ENDCHAR
STARTCHAR 00B1
ENCODING 177
SWIDTH 550 0
DWIDTH 22 0
BBX 17 24 2 0
BITMAP
01C000
01C000
01C000
01C000
01C000
01C000
01C000
FFFF80
FFFF80
FFFF80
01C000
01C000
01C000
01C000
01C000
01C000
01C000
01C000
000000
000000
000000
7FFF00
7FFF00
7FFF00
ENDCHAR
STARTCHAR 00B2
ENCODING 178
SWIDTH 550 0
DWIDTH 22 0
BBX 12 15 5 13
BITMAP
1F00
7FC0
FFE0
63E0
01E0
01E0
03E0
03C0
0F80
1F00
3E00
7C00
FFF0
FFF0
FFF0
ENDCHAR
STARTCHAR 00B3
ENCODING 179
SWIDTH 550 0
DWIDTH 22 0
BBX 12 15 5 13
BITMAP
7F80
FFC0
FFE0
80E0
01E0
3FC0
3F80
3FE0
01F0
00F0
00F0
01F0
FFE0
FFC0
FF00
ENDCHAR
STARTCHAR 00B4
ENCODING 180
SWIDTH 550 0
DWIDTH 22 0
BBX 9 5 9 20
BITMAP
0F80
1F00
3E00
7800
F000
ENDCHAR
STARTCHAR 00B5
ENCODING 181
SWIDTH 550 0
DWIDTH 22 0
BBX 17 28 3 -8
BITMAP
E00E00
E00E00
E00E00
E00E00
E00E00
E00E00
E00E00
E00E00
E00E00
E00E00
E00E00
E00E00
E00E00
E00E00
E01E00
F03E00
F8FF00
FFF780
FFC780
EF8380
E00000
E00000
E00000
E00000
E00000
E00000
E00000
E00000
ENDCHAR
STARTCHAR 00B6
ENCODING 182
SWIDTH 550 0
DWIDTH 22 0
BBX 17 33 2 -5
BITMAP
03FF80
0FFF80
3FFF80
3FE380
7FE380
FFE380
FFE380
FFE380
FFE380
FFE380
FFE380
FFE380
7FE380
7FE380
3FE380
0FE380
03E380
000380
000380
000380
000380
000380
000380
000380
000380
000380
000380
000780
100700
1C1F00
3FFE00
1FFC00
03F000
ENDCHAR
STARTCHAR 00B7
ENCODING 183
SWIDTH 550 0
DWIDTH 22 0
BBX 6 7 8 8
BITMAP
78
78
FC
FC
FC
78
38
ENDCHAR
STARTCHAR 00B8
ENCODING 184
SWIDTH 550 0
DWIDTH 22 0
BBX 5 6 8 -6
BITMAP
38
78
70
70
F0
E0
ENDCHAR
STARTCHAR 00B9
ENCODING 185
SWIDTH 550 0
DWIDTH 22 0
BBX 13 15 4 13
BITMAP
0780
3F80
FF80
7B80
6380
0380
0380
0380
0380
0380
0380
0380
7FF8
7FF8
7FF8
ENDCHAR
STARTCHAR 00BA
ENCODING 186
SWIDTH 550 0
DWIDTH 22 0
BBX 13 18 5 8
BITMAP
0F80
3FE0
78F0
7070
E038
E038
E038
E038
E038
E038
7070
78F0
3FE0
0F80
0000
0000
FFF8
FFF8
ENDCHAR
STARTCHAR 00BB
ENCODING 187
SWIDTH 550 0
DWIDTH 22 0
BBX 16 16 2 3
BITMAP
2010
F078
7838
383C
3C1C
1C0E
0E0E
0707
0707
0E0E
1C1E
3C1C
383C
7838
F078
2010
ENDCHAR
STARTCHAR 00BC
ENCODING 188
SWIDTH 550 0
DWIDTH 22 0
BBX 21 28 0 0
BITMAP
0E0038
3E0070
7E00F0
EE00E0
4E01C0
0E03C0
0E0380
0E0700
0E0700
0E0E00
0E1C00
001C00
003800
007800
007000
00E000
01E000
01C3E0
0387E0
0787E0
070EE0
0E0EE0
0E1CE0
1C38E0
383FF8
383FF8
7000E0
F000E0
ENDCHAR
STARTCHAR 00BD
ENCODING 189
SWIDTH 550 0
DWIDTH 22 0
BBX 21 28 0 0
BITMAP
0E0038
3E0070
7E00F0
EE00E0
4E01C0
0E03C0
0E0380
0E0700
0E0700
0E0E00
0E1C00
001C00
003800
007800
007000
00E000
01E000
01C7E0
038FF0
078438
070038
0E0038
0E0070
1C00F0
3803C0
380780
700FF8
F00FF8
ENDCHAR
STARTCHAR 00BE
ENCODING 190
SWIDTH 550 0
DWIDTH 22 0
BBX 20 28 1 0
BITMAP
7C0070
7E00F0
0E00E0
0E01C0
3C03C0
3E0380
070700
070700
070E00
7E1E00
7C1C00
003800
007800
007000
00E000
01E000
01C000
0387C0
078FC0
070FC0
0E1DC0
0E1DC0
1C39C0
3871C0
387FF0
707FF0
F001C0
E001C0
ENDCHAR
STARTCHAR 00BF
ENCODING 191
SWIDTH 550 0
DWIDTH 22 0
BBX 12 28 4 -8
BITMAP
01C0
03E0
03E0
03E0
01C0
0000
0000
0000
01C0
01C0
01C0
01C0
0FC0
3FC0
7FC0
7C00
F000
F000
F000
F000
F000
F800
7800
7C00
3F00
1FF0
07F0
00F0
ENDCHAR
STARTCHAR 00C0
ENCODING 192
SWIDTH 550 0
DWIDTH 22 0
BBX 21 33 0 0
BITMAP
07C000
03E000
00F000
007800
000000
000000
000000
00F800
00F800
01FC00
01DC00
01DC00
03DE00
038E00
038E00
078F00
070700
070700
0F0780
0E0380
0E0380
1E03C0
1C03C0
1C01C0
3FFFE0
3FFFE0
3FFFE0
7800F0
7800F0
700070
F00078
F00078
E00038
ENDCHAR
STARTCHAR 00C1
ENCODING 193
SWIDTH 550 0
DWIDTH 22 0
BBX 21 33 0 0
BITMAP
000F80
001F00
003C00
007800
000000
000000
000000
00F800
00F800
01FC00
01DC00
01DC00
03DE00
038E00
038E00
078F00
070700
070700
0F0780
0E0380
0E0380
1E03C0
1C03C0
1C01C0
3FFFE0
3FFFE0
3FFFE0
7800F0
7800F0
700070
F00078
F00078
E00038
ENDCHAR
STARTCHAR 00C2
ENCODING 194
SWIDTH 550 0
DWIDTH 22 0
BBX 21 33 0 0
BITMAP
007000
01FC00
03DE00
070700
000000
000000
000000
00F800
00F800
01FC00
01DC00
01DC00
03DE00
038E00
038E00
078F00
070700
070700
0F0780
0E0380
0E0380
1E03C0
1C03C0
1C01C0
3FFFE0
3FFFE0
3FFFE0
7800F0
7800F0
700070
F00078
F00078
E00038
ENDCHAR
STARTCHAR 00C3
ENCODING 195
SWIDTH 550 0
DWIDTH 22 0
BBX 21 33 0 0
BITMAP
03E080
07F1C0
0FFFC0
0E3F80
041F00
000000
000000
00F800
00F800
01FC00
01DC00
01DC00
03DE00
038E00
038E00
078F00
070700
070700
0F0780
0E0380
0E0380
1E03C0
1C03C0
1C01C0
3FFFE0
3FFFE0
3FFFE0
7800F0
7800F0
700070
F00078
F00078
E00038
ENDCHAR
STARTCHAR 00C4
ENCODING 196
SWIDTH 550 0
DWIDTH 22 0
BBX 21 33 0 0
BITMAP
030180
0783C0
0783C0
030180
000000
000000
000000
00F800
00F800
01FC00
01DC00
01DC00
03DE00
038E00
038E00
078F00
070700
070700
0F0780
0E0380
0E0380
1E03C0
1C03C0
1C01C0
3FFFE0
3FFFE0
3FFFE0
7800F0
7800F0
700070
F00078
F00078
E00038
ENDCHAR
STARTCHAR 00C5
ENCODING 197
SWIDTH 550 0
DWIDTH 22 0
BBX 21 34 0 0
BITMAP
007800
00FC00
018600
018600
018600
00FC00
007800
000000
00F800
00F800
01FC00
01DC00
01DC00
03DE00
038E00
038E00
078F00
070700
070700
0F0780
0E0380
0E0380
1E03C0
1C03C0
1C01C0
3FFFE0
3FFFE0
3FFFE0
7800F0
7800F0
700070
F00078
F00078
E00038
ENDCHAR
STARTCHAR 00C6
ENCODING 198
SWIDTH 550 0
DWIDTH 22 0
BBX 22 26 -1 0
BITMAP
003FFC
003FFC
007FFC
007E00
00EE00
00EE00
00EE00
01CE00
01CE00
038E00
038E00
038FF8
070FF8
070FF8
0F0E00
0E0E00
0E0E00
1FFE00
1FFE00
1FFE00
380E00
380E00
780E00
700FFC
700FFC
F00FFC
ENDCHAR
STARTCHAR 00C7
ENCODING 199
SWIDTH 550 0
DWIDTH 22 0
BBX 18 32 2 -6
BITMAP
00FE00
03FF80
0FFFC0
1F81C0
3E0040
3C0000
7C0000
780000
780000
F00000
F00000
F00000
F00000
F00000
F00000
F00000
F00000
F80000
780000
780000
7C0000
3E0000
1F80C0
0FFFC0
07FFC0
01FF00
00E000
00E000
00E000
01C000
01C000
01C000
ENDCHAR
STARTCHAR 00C8
ENCODING 200
SWIDTH 550 0
DWIDTH 22 0
BBX 15 33 4 0
BITMAP
7C00
3E00
0F00
0780
0000
0000
0000
FFFE
FFFE
FFFE
E000
E000
E000
E000
E000
E000
E000
E000
FFFE
FFFE
FFFE
E000
E000
E000
E000
E000
E000
E000
E000
E000
FFFE
FFFE
FFFE
ENDCHAR
STARTCHAR 00C9
ENCODING 201
SWIDTH 550 0
DWIDTH 22 0
BBX 15 33 4 0
BITMAP
00F8
01F0
03C0
0780
0000
0000
0000
FFFE
FFFE
FFFE
E000
E000
E000
E000
E000
E000
E000
E000
FFFE
FFFE
FFFE
E000
E000
E000
E000
E000
E000
E000
E000
E000
FFFE
FFFE
FFFE
ENDCHAR
STARTCHAR 00CA
ENCODING 202
SWIDTH 550 0
DWIDTH 22 0
BBX 15 33 4 0
BITMAP
0700
1FC0
3DE0
7070
0000
0000
0000
FFFE
FFFE
FFFE
E000
E000
E000
E000
E000
E000
E000
E000
FFFE
FFFE
FFFE
E000
E000
E000
E000
E000
E000
E000
E000
E000
FFFE
FFFE
FFFE
ENDCHAR
STARTCHAR 00CB
ENCODING 203
SWIDTH 550 0
DWIDTH 22 0
BBX 15 33 4 0
BITMAP
3018
783C
783C
3018
0000
0000
0000
FFFE
FFFE
FFFE
E000
E000
E000
E000
E000
E000
E000
E000
FFFE
FFFE
FFFE
E000
E000
E000
E000
E000
E000
E000
E000
E000
FFFE
FFFE
FFFE
ENDCHAR
STARTCHAR 00CC
ENCODING 204
SWIDTH 550 0
DWIDTH 22 0
BBX 15 33 3 0
BITMAP
3E00
1F00
0780
03C0
0000
0000
0000
FFFE
FFFE
FFFE
0380
0380
0380
0380
0380
0380
0380
0380
0380
0380
0380
0380
0380
0380
0380
0380
0380
0380
0380
0380
FFFE
FFFE
FFFE
ENDCHAR
STARTCHAR 00CD
ENCODING 205
SWIDTH 550 0
DWIDTH 22 0
BBX 15 33 3 0
BITMAP
007C
00F8
01E0
03C0
0000
0000
0000
FFFE
FFFE
FFFE
0380
0380
0380
0380
0380
0380
0380
0380
0380
0380
0380
0380
0380
0380
0380
0380
0380
0380
0380
0380
FFFE
FFFE
FFFE
ENDCHAR
STARTCHAR 00CE
ENCODING 206
SWIDTH 550 0
DWIDTH 22 0
BBX 15 33 3 0
BITMAP
0380
0FE0
1EF0
3838
0000
0000
0000
FFFE
FFFE
FFFE
0380
0380
0380
0380
0380
0380
0380
0380
0380
0380
0380
0380
0380
0380
0380
0380
0380
0380
0380
0380
FFFE
FFFE
FFFE
ENDCHAR
STARTCHAR 00CF
ENCODING 207
SWIDTH 550 0
DWIDTH 22 0
BBX 15 33 3 0
BITMAP
180C
3C1E
3C1E
180C
0000
0000
0000
FFFE
FFFE
FFFE
0380
0380
0380
0380
0380
0380
0380
0380
0380
0380
0380
0380
0380
0380
0380
0380
0380
0380
0380
0380
FFFE
FFFE
FFFE
ENDCHAR
STARTCHAR 00D0
ENCODING 208
SWIDTH 550 0
DWIDTH 22 0
BBX 21 26 0 0
BITMAP
1FF800
1FFF00
1FFF80
1C0FC0
1C03E0
1C01F0
1C00F0
1C00F0
1C0078
1C0078
1C0078
FFE078
FFE078
FFE078
1C0078
1C0078
1C0078
1C00F8
1C00F0
1C00F0
1C01E0
1C03E0
1C0FC0
1FFF80
1FFE00
1FF800
ENDCHAR
STARTCHAR 00D1
ENCODING 209
SWIDTH 550 0
DWIDTH 22 0
BBX 18 33 2 0
BITMAP
0F8200
1FC700
3FFF00
38FE00
107C00
000000
000000
F801C0
F801C0
FC01C0
FC01C0
FE01C0
EE01C0
EF01C0
E701C0
E781C0
E781C0
E3C1C0
E3C1C0
E1E1C0
E1E1C0
E0E1C0
E0F1C0
E071C0
E079C0
E039C0
E03DC0
E01DC0
E01FC0
E00FC0
E00FC0
E007C0
E007C0
ENDCHAR
STARTCHAR 00D2
ENCODING 210
SWIDTH 550 0
DWIDTH 22 0
BBX 20 33 1 0
BITMAP
0F8000
07C000
01E000
00F000
000000
000000
000000
01F800
07FF00
0FFF80
1E07C0
3C03C0
3801E0
7000E0
7000E0
F000F0
E00070
E00070
E00070
E00070
E00070
E00070
E00070
E00070
E000F0
7000E0
7000E0
7801C0
3C03C0
3E0780
1FFF00
0FFE00
03F800
ENDCHAR
STARTCHAR 00D3
ENCODING 211
SWIDTH 550 0
DWIDTH 22 0
BBX 20 33 1 0
BITMAP
001F00
003E00
007800
00F000
000000
000000
000000
01F800
07FF00
0FFF80
1E07C0
3C03C0
3801E0
7000E0
7000E0
F000F0
E00070
E00070
E00070
E00070
E00070
E00070
E00070
E00070
E000F0
7000E0
7000E0
7801C0
3C03C0
3E0780
1FFF00
0FFE00
03F800
ENDCHAR
STARTCHAR 00D4
ENCODING 212
SWIDTH 550 0
DWIDTH 22 0
BBX 20 33 1 0
BITMAP
00E000
03F800
07BC00
0E0E00
000000
000000
000000
01F800
07FF00
0FFF80
1E07C0
3C03C0
3801E0
7000E0
7000E0
F000F0
E00070
E00070
E00070
E00070
E00070
E00070
E00070
E00070
E000F0
7000E0
7000E0
7801C0
3C03C0
3E0780
1FFF00
0FFE00
03F800
ENDCHAR
STARTCHAR 00D5
ENCODING 213
SWIDTH 550 0
DWIDTH 22 0
BBX 20 33 1 0
BITMAP
07C100
0FE380
1FFF80
1C7F00
083E00
000000
000000
01F800
07FF00
0FFF80
1E07C0
3C03C0
3801E0
7000E0
7000E0
F000F0
E00070
E00070
E00070
E00070
E00070
E00070
E00070
E00070
E000F0
7000E0
7000E0
7801C0
3C03C0
3E0780
1FFF00
0FFE00
03F800
ENDCHAR
STARTCHAR 00D6
ENCODING 214
SWIDTH 550 0
DWIDTH 22 0
BBX 20 33 1 0
BITMAP
060300
0F0780
0F0780
060300
000000
000000
000000
01F800
07FF00
0FFF80
1E07C0
3C03C0
3801E0
7000E0
7000E0
F000F0
E00070
E00070
E00070
E00070
E00070
E00070
E00070
E00070
E000F0
7000E0
7000E0
7801C0
3C03C0
3E0780
1FFF00
0FFE00
03F800
ENDCHAR
STARTCHAR 00D7
ENCODING 215
SWIDTH 550 0
DWIDTH 22 0
BBX 16 16 3 2
BITMAP
4004
E00E
F01F
783E
3C78
1E70
1FE0
0FC0
07C0
0FE0
1EF0
3E78
7C3C
F81E
F00F
6006
ENDCHAR
STARTCHAR 00D8
ENCODING 216
SWIDTH 550 0
DWIDTH 22 0
BBX 20 34 1 -4
BITMAP
000380
000380
000700
000700
01FF00
07FF00
0FFF80
1F0FC0
3C1FC0
3C1DE0
781DE0
7839E0
F038F0
F038F0
F070F0
F070F0
F070F0
F0E0F0
F0E0F0
F0E0F0
F1C0F0
F1C1F0
79C1E0
7B81E0
7B83C0
7F83C0
3F0F80
1FFF00
0FFE00
0FF800
0E0000
0E0000
1C0000
1C0000
ENDCHAR
STARTCHAR 00D9
ENCODING 217
SWIDTH 550 0
DWIDTH 22 0
BBX 17 33 2 0
BITMAP
1F0000
0F8000
03C000
01E000
000000
000000
000000
E00380
E00380
E00380
E00380
E00380
E00380
E00380
E00380
E00380
E00380
E00380
E00380
E00380
E00380
E00380
E00380
E00380
E00380
E00380
E00380
F00700
700700
7C1F00
3FFE00
1FFC00
07F000
ENDCHAR
STARTCHAR 00DA
ENCODING 218
SWIDTH 550 0
DWIDTH 22 0
BBX 17 33 2 0
BITMAP
003E00
007C00
00F000
01E000
000000
000000
000000
E00380
E00380
E00380
E00380
E00380
E00380
E00380
E00380
E00380
E00380
E00380
E00380
E00380
E00380
E00380
E00380
E00380
E00380
E00380
E00380
F00700
700700
7C1F00
3FFE00
1FFC00
07F000
ENDCHAR
STARTCHAR 00DB
ENCODING 219
SWIDTH 550 0
DWIDTH 22 0
BBX 17 33 2 0
BITMAP
01C000
07F000
0F7800
1C1C00
000000
000000
000000
E00380
E00380
E00380
E00380
E00380
E00380
E00380
E00380
E00380
E00380
E00380
E00380
E00380
E00380
E00380
E00380
E00380
E00380
E00380
E00380
F00700
700700
7C1F00
3FFE00
1FFC00
07F000
ENDCHAR
STARTCHAR 00DC
ENCODING 220
SWIDTH 550 0
DWIDTH 22 0
BBX 17 33 2 0
BITMAP
0C0600
1E0F00
1E0F00
0C0600
000000
000000
000000
E00380
E00380
E00380
E00380
E00380
E00380
E00380
E00380
E00380
E00380
E00380
E00380
E00380
E00380
E00380
E00380
E00380
E00380
E00380
E00380
F00700
700700
7C1F00
3FFE00
1FFC00
07F000
ENDCHAR
STARTCHAR 00DD
ENCODING 221
SWIDTH 550 0
DWIDTH 22 0
BBX 21 33 0 0
BITMAP
000F80
001F00
003C00
007800
000000
000000
000000
F00078
7800F0
7800F0
3C01E0
3C01E0
1E03C0
1E03C0
0F0780
070780
078F00
038E00
03CE00
01DC00
01FC00
00F800
00F800
007000
007000
007000
007000
007000
007000
007000
007000
007000
007000
ENDCHAR
STARTCHAR 00DE
ENCODING 222
SWIDTH 550 0
DWIDTH 22 0
BBX 17 26 3 0
BITMAP
E00000
E00000
E00000
E00000
FFE000
FFF800
FFFE00
E03F00
E01F00
E00F80
E00780
E00780
E00780
E00780
E00780
E00F00
E01F00
E03E00
FFFC00
FFF800
FFC000
E00000
E00000
E00000
E00000
E00000
ENDCHAR
STARTCHAR 00DF
ENCODING 223
SWIDTH 550 0
DWIDTH 22 0
BBX 17 28 3 0
BITMAP
07E000
1FF800
3FFC00
781E00
700E00
E00E00
E00E00
E01E00
E03C00
E07800
E0F000
E1E000
E1C000
E1C000
E1C000
E1E000
E0F800
E07C00
E03E00
E00F00
E00780
E00380
E00380
E00380
E00780
E1FF00
E1FE00
E1F800
ENDCHAR
STARTCHAR 00E0
ENCODING 224
SWIDTH 550 0
DWIDTH 22 0
BBX 16 28 3 0
BITMAP
7800
3C00
1E00
0F00
0780
0000
0000
0000
0FF0
3FFC
3FFE
301E
000F
0007
0007
0007
07FF
1FFF
7FFF
7C07
F807
F007
F007
F01F
F87F
7FFF
3FF7
1FC7
ENDCHAR
STARTCHAR 00E1
ENCODING 225
SWIDTH 550 0
DWIDTH 22 0
BBX 16 28 3 0
BITMAP
003E
007C
00F8
01E0
03C0
0000
0000
0000
0FF0
3FFC
3FFE
301E
000F
0007
0007
0007
07FF
1FFF
7FFF
7C07
F807
F007
F007
F01F
F87F
7FFF
3FF7
1FC7
ENDCHAR
STARTCHAR 00E2
ENCODING 226
SWIDTH 550 0
DWIDTH 22 0
BBX 16 28 3 0
BITMAP
0380
07C0
0EE0
1C70
3838
0000
0000
0000
0FF0
3FFC
3FFE
301E
000F
0007
0007
0007
07FF
1FFF
7FFF
7C07
F807
F007
F007
F01F
F87F
7FFF
3FF7
1FC7
ENDCHAR
STARTCHAR 00E3
ENCODING 227
SWIDTH 550 0
DWIDTH 22 0
BBX 16 28 3 0
BITMAP
1F04
3F8E
7FFE
71FC
20F8
0000
0000
0000
0FF0
3FFC
3FFE
301E
000F
0007
0007
0007
07FF
1FFF
7FFF
7C07
F807
F007
F007
F01F
F87F
7FFF
3FF7
1FC7
ENDCHAR
STARTCHAR 00E4
ENCODING 228
SWIDTH 550 0
DWIDTH 22 0
BBX 16 27 3 0
BITMAP
1C1C
3E3E
3E3E
1C1C
0000
0000
0000
0FF0
3FFC
3FFE
301E
000F
0007
0007
0007
07FF
1FFF
7FFF
7C07
F807
F007
F007
F01F
F87F
7FFF
3FF7
1FC7
ENDCHAR
STARTCHAR 00E5
ENCODING 229
SWIDTH 550 0
DWIDTH 22 0
BBX 16 30 3 0
BITMAP
03C0
07E0
0E70
0C30
0C30
0E70
07E0
03C0
0000
0000
0FF0
3FFC
3FFE
301E
000F
0007
0007
0007
07FF
1FFF
7FFF
7C07
F807
F007
F007
F01F
F87F
7FFF
3FF7
1FC7
ENDCHAR
STARTCHAR 00E6
ENCODING 230
SWIDTH 550 0
DWIDTH 22 0
BBX 21 20 1 0
BITMAP
1F87C0
7FCFE0
7FFFF0
60FC70
007878
007038
007038
007038
1FFFF8
3FFFF8
7FFFF8
F07000
E07000
E07000
E07000
E0F800
F1FC10
7FBFF0
7F1FF0
3E07E0
ENDCHAR
STARTCHAR 00E7
ENCODING 231
SWIDTH 550 0
DWIDTH 22 0
BBX 15 26 3 -6
BITMAP
03FC
0FFE
1FFE
3E06
7800
7000
7000
E000
E000
E000
E000
E000
E000
F000
7000
7800
7E06
3FFE
1FFE
07F8
01C0
03C0
0380
0380
0780
0700
ENDCHAR
STARTCHAR 00E8
ENCODING 232
SWIDTH 550 0
DWIDTH 22 0
BBX 17 28 2 0
BITMAP
3C0000
1E0000
0F0000
078000
03C000
000000
000000
000000
03F000
0FFC00
1FFE00
3C1F00
780700
700780
E00380
E00380
FFFF80
FFFF80
FFFF80
E00000
E00000
E00000
700000
780000
3C0300
3FFF00
0FFF00
03FC00
ENDCHAR
STARTCHAR 00E9
ENCODING 233
SWIDTH 550 0
DWIDTH 22 0
BBX 17 28 2 0
BITMAP
001F00
003E00
007C00
00F000
01E000
000000
000000
000000
03F000
0FFC00
1FFE00
3C1F00
780700
700780
E00380
E00380
FFFF80
FFFF80
FFFF80
E00000
E00000
E00000
700000
780000
3C0300
3FFF00
0FFF00
03FC00
ENDCHAR
STARTCHAR 00EA
ENCODING 234
SWIDTH 550 0
DWIDTH 22 0
BBX 17 28 2 0
BITMAP
01C000
03E000
077000
0E3800
1C1C00
000000
000000
000000
03F000
0FFC00
1FFE00
3C1F00
780700
700780
E00380
E00380
FFFF80
FFFF80
FFFF80
E00000
E00000
E00000
700000
780000
3C0300
3FFF00
0FFF00
03FC00
ENDCHAR
STARTCHAR 00EB
ENCODING 235
SWIDTH 550 0
DWIDTH 22 0
BBX 17 27 2 0
BITMAP
0E0E00
1F1F00
1F1F00
0E0E00
000000
000000
000000
03F000
0FFC00
1FFE00
3C1F00
780700
700780
E00380
E00380
FFFF80
FFFF80
FFFF80
E00000
E00000
E00000
700000
780000
3C0300
3FFF00
0FFF00
03FC00
ENDCHAR
STARTCHAR 00EC
ENCODING 236
SWIDTH 550 0
DWIDTH 22 0
BBX 16 28 3 0
BITMAP
7800
3C00
1E00
0F00
0780
0000
0000
0000
7FC0
7FC0
7FC0
01C0
01C0
01C0
01C0
01C0
01C0
01C0
01C0
01C0
01C0
01C0
01C0
01C0
01C0
FFFF
FFFF
FFFF
ENDCHAR
STARTCHAR 00ED
ENCODING 237
SWIDTH 550 0
DWIDTH 22 0
BBX 16 28 3 0
BITMAP
003E
007C
00F8
01E0
03C0
0000
0000
0000
7FC0
7FC0
7FC0
01C0
01C0
01C0
01C0
01C0
01C0
01C0
01C0
01C0
01C0
01C0
01C0
01C0
01C0
FFFF
FFFF
FFFF
ENDCHAR
STARTCHAR 00EE
ENCODING 238
SWIDTH 550 0
DWIDTH 22 0
BBX 16 28 3 0
BITMAP
0380
07C0
0EE0
1C70
3838
0000
0000
0000
7FC0
7FC0
7FC0
01C0
01C0
01C0
01C0
01C0
01C0
01C0
01C0
01C0
01C0
01C0
01C0
01C0
01C0
FFFF
FFFF
FFFF
ENDCHAR
STARTCHAR 00EF
ENCODING 239
SWIDTH 550 0
DWIDTH 22 0
BBX 16 27 3 0
BITMAP
1C1C
3E3E
3E3E
1C1C
0000
0000
0000
7FC0
7FC0
7FC0
01C0
01C0
01C0
01C0
01C0
01C0
01C0
01C0
01C0
01C0
01C0
01C0
01C0
01C0
FFFF
FFFF
FFFF
ENDCHAR
STARTCHAR 00F0
ENCODING 240
SWIDTH 550 0
DWIDTH 22 0
BBX 17 28 2 0
BITMAP
0F0000
078E00
03FE00
1FFE00
1FF000
1CF000
007800
003800
03FC00
0FFC00
1FFE00
3E0E00
780F00
700700
700700
E00380
E00380
E00380
E00380
E00380
E00380
F00780
700700
780F00
7C1E00
3FFC00
1FF800
07E000
ENDCHAR
STARTCHAR 00F1
ENCODING 241
SWIDTH 550 0
DWIDTH 22 0
BBX 15 28 3 0
BITMAP
1F04
3F8E
7FFE
71FC
20F8
0000
0000
0000
E3F0
E7F8
FFFC
FE3C
F81E
F00E
E00E
E00E
E00E
E00E
E00E
E00E
E00E
E00E
E00E
E00E
E00E
E00E
E00E
E00E
ENDCHAR
STARTCHAR 00F2
ENCODING 242
SWIDTH 550 0
DWIDTH 22 0
BBX 18 28 2 0
BITMAP
3C0000
1E0000
0F0000
078000
03C000
000000
000000
000000
03F000
0FFC00
1FFF00
3C0F00
780780
700380
F003C0
E001C0
E001C0
E001C0
E001C0
E001C0
E001C0
F003C0
700380
780780
3C1F00
3FFE00
0FFC00
03F000
ENDCHAR
STARTCHAR 00F3
ENCODING 243
SWIDTH 550 0
DWIDTH 22 0
BBX 18 28 2 0
BITMAP
001F00
003E00
007C00
00F000
01E000
000000
000000
000000
03F000
0FFC00
1FFF00
3C0F00
780780
700380
F003C0
E001C0
E001C0
E001C0
E001C0
E001C0
E001C0
F003C0
700380
780780
3C1F00
3FFE00
0FFC00
03F000
ENDCHAR
STARTCHAR 00F4
ENCODING 244
SWIDTH 550 0
DWIDTH 22 0
BBX 18 28 2 0
BITMAP
01C000
03E000
077000
0E3800
1C1C00
000000
000000
000000
03F000
0FFC00
1FFF00
3C0F00
780780
700380
F003C0
E001C0
E001C0
E001C0
E001C0
E001C0
E001C0
F003C0
700380
780780
3C1F00
3FFE00
0FFC00
03F000
ENDCHAR
STARTCHAR 00F5
ENCODING 245
SWIDTH 550 0
DWIDTH 22 0
BBX 18 28 2 0
BITMAP
0F8200
1FC700
3FFF00
38FE00
107C00
000000
000000
000000
03F000
0FFC00
1FFF00
3C0F00
780780
700380
F003C0
E001C0
E001C0
E001C0
E001C0
E001C0
E001C0
F003C0
700380
780780
3C1F00
3FFE00
0FFC00
03F000
ENDCHAR
STARTCHAR 00F6
ENCODING 246
SWIDTH 550 0
DWIDTH 22 0
BBX 18 27 2 0
BITMAP
0E0E00
1F1F00
1F1F00
0E0E00
000000
000000
000000
03F000
0FFC00
1FFF00
3C0F00
780780
700380
F003C0
E001C0
E001C0
E001C0
E001C0
E001C0
E001C0
F003C0
700380
780780
3C1F00
3FFE00
0FFC00
03F000
ENDCHAR
STARTCHAR 00F7
ENCODING 247
SWIDTH 550 0
DWIDTH 22 0
BBX 19 21 1 0
BITMAP
00E000
01F000
01F000
01F000
00E000
000000
000000
000000
000000
FFFFE0
FFFFE0
FFFFE0
000000
000000
000000
000000
00E000
01F000
01F000
01F000
00E000
ENDCHAR
STARTCHAR 00F8
ENCODING 248
SWIDTH 550 0
DWIDTH 22 0
BBX 18 28 2 -4
BITMAP
000E00
000E00
001C00
001C00
03FC00
0FFC00
1FFF00
3C3F00
787780
707380
F073C0
E0E1C0
E0E1C0
E0E1C0
E1C1C0
E1C1C0
E1C1C0
F383C0
738380
7B8780
3F0F00
3FFE00
0FFC00
0FF000
0E0000
0E0000
1C0000
1C0000
ENDCHAR
STARTCHAR 00F9
ENCODING 249
SWIDTH 550 0
DWIDTH 22 0
BBX 15 28 3 0
BITMAP
7800
3C00
1E00
0F00
0780
0000
0000
0000
E00E
E00E
E00E
E00E
E00E
E00E
E00E
E00E
E00E
E00E
E00E
E00E
E00E
E00E
E01E
F03E
78FE
7FFE
3FCE
1F8E
ENDCHAR
STARTCHAR 00FA
ENCODING 250
SWIDTH 550 0
DWIDTH 22 0
BBX 15 28 3 0
BITMAP
003E
007C
00F8
01E0
03C0
0000
0000
0000
E00E
E00E
E00E
E00E
E00E
E00E
E00E
E00E
E00E
E00E
E00E
E00E
E00E
E00E
E01E
F03E
78FE
7FFE
3FCE
1F8E
ENDCHAR
STARTCHAR 00FB
ENCODING 251
SWIDTH 550 0
DWIDTH 22 0
BBX 15 28 3 0
BITMAP
0380
07C0
0EE0
1C70
3838
0000
0000
0000
E00E
E00E
E00E
E00E
E00E
E00E
E00E
E00E
E00E
E00E
E00E
E00E
E00E
E00E
E01E
F03E
78FE
7FFE
3FCE
1F8E
ENDCHAR
STARTCHAR 00FC
ENCODING 252
SWIDTH 550 0
DWIDTH 22 0
BBX 15 27 3 0
BITMAP
1C1C
3E3E
3E3E
1C1C
0000
0000
0000
E00E
E00E
E00E
E00E
E00E
E00E
E00E
E00E
E00E
E00E
E00E
E00E
E00E
E00E
E01E
F03E
78FE
7FFE
3FCE
1F8E
ENDCHAR
STARTCHAR 00FD
ENCODING 253
SWIDTH 550 0
DWIDTH 22 0
BBX 19 36 1 -8
BITMAP
000F80
001F00
003E00
007800
00F000
000000
000000
000000
7800E0
7801E0
3801E0
3C01C0
3C03C0
1C03C0
1E0380
0E0780
0F0700
0F0700
070F00
078E00
038E00
039E00
03DC00
01DC00
01F800
00F800
00F800
00F000
00F000
00E000
01E000
03C000
07C000
FF8000
FF0000
F80000
ENDCHAR
STARTCHAR 00FE
ENCODING 254
SWIDTH 550 0
DWIDTH 22 0
BBX 16 36 3 -8
BITMAP
E000
E000
E000
E000
E000
E000
E000
E000
E1F0
E7F8
EFFC
FE1E
F80E
F00F
E007
E007
E007
E007
E007
E007
E007
E00E
E00E
E01E
F03C
FFF8
FFF0
FFC0
E000
E000
E000
E000
E000
E000
E000
E000
ENDCHAR
STARTCHAR 00FF
ENCODING 255
SWIDTH 550 0
DWIDTH 22 0
BBX 19 35 1 -8
BITMAP
070700
0F8F80
0F8F80
070700
000000
000000
000000
7800E0
7801E0
3801E0
3C01C0
3C03C0
1C03C0
1E0380
0E0780
0F0700
0F0700
070F00
078E00
038E00
039E00
03DC00
01DC00
01F800
00F800
00F800
00F000
00F000
00E000
01E000
03C000
07C000
FF8000
FF0000
F80000
ENDCHAR
STARTCHAR 0100
ENCODING 256
SWIDTH 550 0
DWIDTH 22 0
BBX 21 32 0 0
BITMAP
07FF00
07FF00
07FF00
000000
000000
000000
00F800
00F800
01FC00
01DC00
01DC00
03DE00
038E00
038E00
078F00
070700
070700
0F0780
0E0380
0E0380
1E03C0
1C03C0
1C01C0
3FFFE0
3FFFE0
3FFFE0
7800F0
7800F0
700070
F00078
F00078
E00038
ENDCHAR
STARTCHAR 0101
ENCODING 257
SWIDTH 550 0
DWIDTH 22 0
BBX 16 27 3 0
BITMAP
1FF8
1FF8
1FF8
0000
0000
0000
0000
0FF0
3FFC
3FFE
301E
000F
0007
0007
0007
07FF
1FFF
7FFF
7C07
F807
F007
F007
F01F
F87F
7FFF
3FF7
1FC7
ENDCHAR
STARTCHAR 0102
ENCODING 258
SWIDTH 550 0
DWIDTH 22 0
BBX 21 33 0 0
BITMAP
070700
078F00
03FE00
03FE00
00F800
000000
000000
00F800
00F800
01FC00
01DC00
01DC00
03DE00
038E00
038E00
078F00
070700
070700
0F0780
0E0380
0E0380
1E03C0
1C03C0
1C01C0
3FFFE0
3FFFE0
3FFFE0
7800F0
7800F0
700070
F00078
F00078
E00038
ENDCHAR
STARTCHAR 0103
ENCODING 259
SWIDTH 550 0
DWIDTH 22 0
BBX 16 28 3 0
BITMAP
1C38
1E78
0FF0
0FF0
03C0
0000
0000
0000
0FF0
3FFC
3FFE
301E
000F
0007
0007
0007
07FF
1FFF
7FFF
7C07
F807
F007
F007
F01F
F87F
7FFF
3FF7
1FC7
ENDCHAR
STARTCHAR 0104
ENCODING 260
SWIDTH 550 0
DWIDTH 22 0
BBX 22 34 0 -8
BITMAP
00F800
00F800
01FC00
01DC00
01DC00
03DE00
038E00
038E00
078F00
070700
070700
0F0780
0E0380
0E0380
1E03C0
1C03C0
1C01C0
3FFFE0
3FFFE0
3FFFE0
7800F0
7800F0
700070
F00078
F00078
E00038
000070
000060
0000E0
0000E0
0001E0
0000E0
0000FC
00007C
ENDCHAR
STARTCHAR 0105
ENCODING 261
SWIDTH 550 0
DWIDTH 22 0
BBX 17 28 3 -8
BITMAP
0FF000
3FFC00
3FFE00
301E00
000F00
000700
000700
000700
07FF00
1FFF00
7FFF00
7C0700
F80700
F00700
F00700
F01F00
F87F00
7FFF00
3FF700
1FC700
000700
000E00
001C00
001C00
001C00
001C00
000F80
000780
ENDCHAR
STARTCHAR 0106
ENCODING 262
SWIDTH 550 0
DWIDTH 22 0
BBX 17 33 2 0
BITMAP
001F00
003E00
007800
00F000
000000
000000
000000
00FC00
07FF00
0FFF80
1F8380
3E0080
3C0000
780000
780000
780000
F00000
F00000
F00000
F00000
F00000
F00000
F00000
F00000
F80000
780000
780000
7C0000
3E0000
1F8180
1FFF80
07FF80
01FE00
ENDCHAR
STARTCHAR 0107
ENCODING 263
SWIDTH 550 0
DWIDTH 22 0
BBX 16 28 3 0
BITMAP
001F
003E
007C
00F0
01E0
0000
0000
0000
03FC
0FFE
1FFE
3E06
7800
7000
7000
E000
E000
E000
E000
E000
E000
F000
7000
7800
3E06
3FFE
0FFE
03F8
ENDCHAR
STARTCHAR 0108
ENCODING 264
SWIDTH 550 0
DWIDTH 22 0
BBX 17 33 2 0
BITMAP
00E000
03F800
07BC00
0E0E00
000000
000000
000000
00FC00
07FF00
0FFF80
1F8380
3E0080
3C0000
780000
780000
780000
F00000
F00000
F00000
F00000
F00000
F00000
F00000
F00000
F80000
780000
780000
7C0000
3E0000
1F8180
1FFF80
07FF80
01FE00
ENDCHAR
STARTCHAR 0109
ENCODING 265
SWIDTH 550 0
DWIDTH 22 0
BBX 15 28 3 0
BITMAP
01C0
03E0
0770
0E38
1C1C
0000
0000
0000
03FC
0FFE
1FFE
3E06
7800
7000
7000
E000
E000
E000
E000
E000
E000
F000
7000
7800
3E06
3FFE
0FFE
03F8
ENDCHAR
STARTCHAR 010A
ENCODING 266
SWIDTH 550 0
DWIDTH 22 0
BBX 17 33 2 0
BITMAP
007000
00F800
00F800
00F800
007000
000000
000000
00FC00
07FF00
0FFF80
1F8380
3E0080
3C0000
780000
780000
780000
F00000
F00000
F00000
F00000
F00000
F00000
F00000
F00000
F80000
780000
780000
7C0000
3E0000
1F8180
1FFF80
07FF80
01FE00
ENDCHAR
STARTCHAR 010B
ENCODING 267
SWIDTH 550 0
DWIDTH 22 0
BBX 15 28 3 0
BITMAP
01C0
03E0
03E0
03E0
01C0
0000
0000
0000
03FC
0FFE
1FFE
3E06
7800
7000
7000
E000
E000
E000
E000
E000
E000
F000
7000
7800
3E06
3FFE
0FFE
03F8
ENDCHAR
STARTCHAR 010C
ENCODING 268
SWIDTH 550 0
DWIDTH 22 0
BBX 17 33 2 0
BITMAP
070700
03DE00
01FC00
007000
000000
000000
000000
00FC00
07FF00
0FFF80
1F8380
3E0080
3C0000
780000
780000
780000
F00000
F00000
F00000
F00000
F00000
F00000
F00000
F00000
F80000
780000
780000
7C0000
3E0000
1F8180
1FFF80
07FF80
01FE00
ENDCHAR
STARTCHAR 010D
ENCODING 269
SWIDTH 550 0
DWIDTH 22 0
BBX 15 28 3 0
BITMAP
0E0E
071C
03F8
01F0
00E0
0000
0000
0000
03FC
0FFE
1FFE
3E06
7800
7000
7000
E000
E000
E000
E000
E000
E000
F000
7000
7800
3E06
3FFE
0FFE
03F8
ENDCHAR
STARTCHAR 010E
ENCODING 270
SWIDTH 550 0
DWIDTH 22 0
BBX 19 33 2 0
BITMAP
1C1C00
0F7800
07F000
01C000
000000
000000
000000
FFE000
FFFC00
FFFE00
E03F00
E00F80
E007C0
E003C0
E003C0
E003E0
E001E0
E001E0
E001E0
E001E0
E001E0
E001E0
E001E0
E001E0
E003C0
E003C0
E007C0
E00780
E00F80
E07F00
FFFE00
FFF800
FFC000
ENDCHAR
STARTCHAR 010F
ENCODING 271
SWIDTH 550 0
DWIDTH 22 0
BBX 23 29 1 0
BITMAP
00000E
00071E
00071C
00071C
00073C
000738
000700
000700
000700
03FF00
0FFF00
1FFF00
3C0F00
780700
700700
F00700
E00700
E00700
E00700
E00700
E00700
E00700
E00F00
F01F00
703F00
787F00
3FF700
1FE700
0F8700
ENDCHAR
STARTCHAR 0110
ENCODING 272
SWIDTH 550 0
DWIDTH 22 0
BBX 21 26 0 0
BITMAP
1FF800
1FFF00
1FFF80
1C0FC0
1C03E0
1C01F0
1C00F0
1C00F0
1C0078
1C0078
1C0078
FFE078
FFE078
FFE078
1C0078
1C0078
1C0078
1C00F8
1C00F0
1C00F0
1C01E0
1C03E0
1C0FC0
1FFF80
1FFE00
1FF800
ENDCHAR
STARTCHAR 0111
ENCODING 273
SWIDTH 550 0
DWIDTH 22 0
BBX 20 28 2 0
BITMAP
000700
000700
000700
01FFF0
01FFF0
01FFF0
000700
000700
03FF00
0FFF00
1FFF00
3C0F00
780700
700700
F00700
E00700
E00700
E00700
E00700
E00700
E00700
E00F00
F01F00
703F00
787F00
3FF700
1FE700
0F8700
ENDCHAR
STARTCHAR 0112
ENCODING 274
SWIDTH 550 0
DWIDTH 22 0
BBX 15 32 4 0
BITMAP
7FF0
7FF0
7FF0
0000
0000
0000
FFFE
FFFE
FFFE
E000
E000
E000
E000
E000
E000
E000
E000
FFFE
FFFE
FFFE
E000
E000
E000
E000
E000
E000
E000
E000
E000
FFFE
FFFE
FFFE
ENDCHAR
STARTCHAR 0113
ENCODING 275
SWIDTH 550 0
DWIDTH 22 0
BBX 17 27 2 0
BITMAP
0FFC00
0FFC00
0FFC00
000000
000000
000000
000000
03F000
0FFC00
1FFE00
3C1F00
780700
700780
E00380
E00380
FFFF80
FFFF80
FFFF80
E00000
E00000
E00000
700000
780000
3C0300
3FFF00
0FFF00
03FC00
ENDCHAR
STARTCHAR 0114
ENCODING 276
SWIDTH 550 0
DWIDTH 22 0
BBX 15 33 4 0
BITMAP
7070
78F0
3FE0
3FE0
0F80
0000
0000
FFFE
FFFE
FFFE
E000
E000
E000
E000
E000
E000
E000
E000
FFFE
FFFE
FFFE
E000
E000
E000
E000
E000
E000
E000
E000
E000
FFFE
FFFE
FFFE
ENDCHAR
STARTCHAR 0115
ENCODING 277
SWIDTH 550 0
DWIDTH 22 0
BBX 17 28 2 0
BITMAP
0E1C00
0F3C00
07F800
07F800
01E000
000000
000000
000000
03F000
0FFC00
1FFE00
3C1F00
780700
700780
E00380
E00380
FFFF80
FFFF80
FFFF80
E00000
E00000
E00000
700000
780000
3C0300
3FFF00
0FFF00
03FC00
ENDCHAR
STARTCHAR 0116
ENCODING 278
SWIDTH 550 0
DWIDTH 22 0
BBX 15 33 4 0
BITMAP
0380
07C0
07C0
07C0
0380
0000
0000
FFFE
FFFE
FFFE
E000
E000
E000
E000
E000
E000
E000
E000
FFFE
FFFE
FFFE
E000
E000
E000
E000
E000
E000
E000
E000
E000
FFFE
FFFE
FFFE
ENDCHAR
STARTCHAR 0117
ENCODING 279
SWIDTH 550 0
DWIDTH 22 0
BBX 17 28 2 0
BITMAP
01C000
03E000
03E000
03E000
01C000
000000
000000
000000
03F000
0FFC00
1FFE00
3C1F00
780700
700780
E00380
E00380
FFFF80
FFFF80
FFFF80
E00000
E00000
E00000
700000
780000
3C0300
3FFF00
0FFF00
03FC00
ENDCHAR
STARTCHAR 0118
ENCODING 280
SWIDTH 550 0
DWIDTH 22 0
BBX 16 34 4 -8
BITMAP
FFFE
FFFE
FFFE
E000
E000
E000
E000
E000
E000
E000
E000
FFFE
FFFE
FFFE
E000
E000
E000
E000
E000
E000
E000
E000
E000
FFFE
FFFE
FFFE
000E
001C
0038
0038
0038
0038
001F
000F
ENDCHAR
STARTCHAR 0119
ENCODING 281
SWIDTH 550 0
DWIDTH 22 0
BBX 17 28 2 -8
BITMAP
03F000
0FFC00
1FFE00
3C1F00
780700
700780
E00380
E00380
FFFF80
FFFF80
FFFF80
E00000
E00000
E00000
700000
780000
3C0300
3FFF00
0FFF00
03FC00
003000
007000
00E000
00E000
00E000
00E000
007C00
003C00
ENDCHAR
STARTCHAR 011A
ENCODING 282
SWIDTH 550 0
DWIDTH 22 0
BBX 15 33 4 0
BITMAP
3838
1EF0
0FE0
0380
0000
0000
0000
FFFE
FFFE
FFFE
E000
E000
E000
E000
E000
E000
E000
E000
FFFE
FFFE
FFFE
E000
E000
E000
E000
E000
E000
E000
E000
E000
FFFE
FFFE
FFFE
ENDCHAR
STARTCHAR 011B
ENCODING 283
SWIDTH 550 0
DWIDTH 22 0
BBX 17 28 2 0
BITMAP
0E0E00
071C00
03F800
01F000
00E000
000000
000000
000000
03F000
0FFC00
1FFE00
3C1F00
780700
700780
E00380
E00380
FFFF80
FFFF80
FFFF80
E00000
E00000
E00000
700000
780000
3C0300
3FFF00
0FFF00
03FC00
ENDCHAR
STARTCHAR 011C
ENCODING 284
SWIDTH 550 0
DWIDTH 22 0
BBX 18 33 1 0
BITMAP
007000
01FC00
03DE00
070700
000000
000000
000000
00FE00
03FF80
0FFFC0
1F81C0
3E0040
3C0000
7C0000
780000
780000
F00000
F00000
F03FC0
F03FC0
F03FC0
F001C0
F001C0
F001C0
F801C0
7801C0
7801C0
7C01C0
3E01C0
1F81C0
0FFFC0
07FFC0
01FE00
ENDCHAR
STARTCHAR 011D
ENCODING 285
SWIDTH 550 0
DWIDTH 22 0
BBX 19 36 2 -8
BITMAP
01C000
03E000
077000
0E3800
1C1C00
000000
000000
000000
07FFC0
0FFFC0
1FFFC0
3C1E00
780F00
700700
700700
700700
700700
780F00
3C1E00
3FFC00
3FF800
77F000
700000
700000
7C0000
7FFE00
3FFF80
3FFFC0
7803E0
F001E0
F001E0
F003E0
FC07C0
7FFF80
3FFF00
0FFC00
ENDCHAR
STARTCHAR 011E
ENCODING 286
SWIDTH 550 0
DWIDTH 22 0
BBX 18 33 1 0
BITMAP
070700
078F00
03FE00
03FE00
00F800
000000
000000
00FE00
03FF80
0FFFC0
1F81C0
3E0040
3C0000
7C0000
780000
780000
F00000
F00000
F03FC0
F03FC0
F03FC0
F001C0
F001C0
F001C0
F801C0
7801C0
7801C0
7C01C0
3E01C0
1F81C0
0FFFC0
07FFC0
01FE00
ENDCHAR
STARTCHAR 011F
ENCODING 287
SWIDTH 550 0
DWIDTH 22 0
BBX 19 36 2 -8
BITMAP
0E1C00
0F3C00
07F800
07F800
01E000
000000
000000
000000
07FFC0
0FFFC0
1FFFC0
3C1E00
780F00
700700
700700
700700
700700
780F00
3C1E00
3FFC00
3FF800
77F000
700000
700000
7C0000
7FFE00
3FFF80
3FFFC0
7803E0
F001E0
F001E0
F003E0
FC07C0
7FFF80
3FFF00
0FFC00
ENDCHAR
STARTCHAR 0120
ENCODING 288
SWIDTH 550 0
DWIDTH 22 0
BBX 18 33 1 0
BITMAP
003800
007C00
007C00
007C00
003800
000000
000000
00FE00
03FF80
0FFFC0
1F81C0
3E0040
3C0000
7C0000
780000
780000
F00000
F00000
F03FC0
F03FC0
F03FC0
F001C0
F001C0
F001C0
F801C0
7801C0
7801C0
7C01C0
3E01C0
1F81C0
0FFFC0
07FFC0
01FE00
ENDCHAR
STARTCHAR 0121
ENCODING 289
SWIDTH 550 0
DWIDTH 22 0
BBX 19 36 2 -8
BITMAP
01C000
03E000
03E000
03E000
01C000
000000
000000
000000
07FFC0
0FFFC0
1FFFC0
3C1E00
780F00
700700
700700
700700
700700
780F00
3C1E00
3FFC00
3FF800
77F000
700000
700000
7C0000
7FFE00
3FFF80
3FFFC0
7803E0
F001E0
F001E0
F003E0
FC07C0
7FFF80
3FFF00
0FFC00
ENDCHAR
STARTCHAR 0122
ENCODING 290
SWIDTH 550 0
DWIDTH 22 0
BBX 18 34 1 -8
BITMAP
00FE00
03FF80
0FFFC0
1F81C0
3E0040
3C0000
7C0000
780000
780000
F00000
F00000
F03FC0
F03FC0
F03FC0
F001C0
F001C0
F001C0
F801C0
7801C0
7801C0
7C01C0
3E01C0
1F81C0
0FFFC0
07FFC0
01FE00
000000
000000
007000
00F000
00E000
00E000
01E000
01C000
ENDCHAR
STARTCHAR 0123
ENCODING 291
SWIDTH 550 0
DWIDTH 22 0
BBX 19 37 2 -8
BITMAP
007000
00F000
00E000
00E000
01E000
01C000
000000
000000
000000
07FFC0
0FFFC0
1FFFC0
3C1E00
780F00
700700
700700
700700
700700
780F00
3C1E00
3FFC00
3FF800
77F000
700000
700000
7C0000
7FFE00
3FFF80
3FFFC0
7803E0
F001E0
F001E0
F003E0
FC07C0
7FFF80
3FFF00
0FFC00
ENDCHAR
STARTCHAR 0124
ENCODING 292
SWIDTH 550 0
DWIDTH 22 0
BBX 18 33 2 0
BITMAP
01C000
07F000
0F7800
1C1C00
000000
000000
000000
E001C0
E001C0
E001C0
E001C0
E001C0
E001C0
E001C0
E001C0
E001C0
E001C0
E001C0
FFFFC0
FFFFC0
FFFFC0
E001C0
E001C0
E001C0
E001C0
E001C0
E001C0
E001C0
E001C0
E001C0
E001C0
E001C0
E001C0
ENDCHAR
STARTCHAR 0125
ENCODING 293
SWIDTH 550 0
DWIDTH 22 0
BBX 15 35 3 0
BITMAP
0380
0FE0
1EF0
3838
0000
0000
0000
E000
E000
E000
E000
E000
E000
E000
E000
E3F0
E7F8
EFFC
FE3C
F81E
F00E
E00E
E00E
E00E
E00E
E00E
E00E
E00E
E00E
E00E
E00E
E00E
E00E
E00E
E00E
ENDCHAR
STARTCHAR 0126
ENCODING 294
SWIDTH 550 0
DWIDTH 22 0
BBX 20 26 1 0
BITMAP
3801C0
3801C0
3801C0
3801C0
3801C0
FFFFF0
FFFFF0
FFFFF0
3801C0
3801C0
3801C0
3801C0
3FFFC0
3FFFC0
3FFFC0
3801C0
3801C0
3801C0
3801C0
3801C0
3801C0
3801C0
3801C0
3801C0
3801C0
3801C0
ENDCHAR
STARTCHAR 0127
ENCODING 295
SWIDTH 550 0
DWIDTH 22 0
BBX 18 28 0 0
BITMAP
1C0000
1C0000
1C0000
FFF000
FFF000
FFF000
1C0000
1C0000
1C0000
1C7E00
1CFF00
1DFF80
1FC780
1F03C0
1E01C0
1C01C0
1C01C0
1C01C0
1C01C0
1C01C0
1C01C0
1C01C0
1C01C0
1C01C0
1C01C0
1C01C0
1C01C0
1C01C0
ENDCHAR
STARTCHAR 0128
ENCODING 296
SWIDTH 550 0
DWIDTH 22 0
BBX 15 33 3 0
BITMAP
1F04
3F8E
7FFE
71FC
20F8
0000
0000
FFFE
FFFE
FFFE
0380
0380
0380
0380
0380
0380
0380
0380
0380
0380
0380
0380
0380
0380
0380
0380
0380
0380
0380
0380
FFFE
FFFE
FFFE
ENDCHAR
STARTCHAR 0129
ENCODING 297
SWIDTH 550 0
DWIDTH 22 0
BBX 16 28 3 0
BITMAP
1F04
3F8E
7FFE
71FC
20F8
0000
0000
0000
7FC0
7FC0
7FC0
01C0
01C0
01C0
01C0
01C0
01C0
01C0
01C0
01C0
01C0
01C0
01C0
01C0
01C0
FFFF
FFFF
FFFF
ENDCHAR
STARTCHAR 012A
ENCODING 298
SWIDTH 550 0
DWIDTH 22 0
BBX 15 32 3 0
BITMAP
3FF8
3FF8
3FF8
0000
0000
0000
FFFE
FFFE
FFFE
0380
0380
0380
0380
0380
0380
0380
0380
0380
0380
0380
0380
0380
0380
0380
0380
0380
0380
0380
0380
FFFE
FFFE
FFFE
ENDCHAR
STARTCHAR 012B
ENCODING 299
SWIDTH 550 0
DWIDTH 22 0
BBX 16 27 3 0
BITMAP
1FF8
1FF8
1FF8
0000
0000
0000
0000
7FC0
7FC0
7FC0
01C0
01C0
01C0
01C0
01C0
01C0
01C0
01C0
01C0
01C0
01C0
01C0
01C0
01C0
FFFF
FFFF
FFFF
ENDCHAR
STARTCHAR 012C
ENCODING 300
SWIDTH 550 0
DWIDTH 22 0
BBX 15 33 3 0
BITMAP
3838
3C78
1FF0
1FF0
07C0
0000
0000
FFFE
FFFE
FFFE
0380
0380
0380
0380
0380
0380
0380
0380
0380
0380
0380
0380
0380
0380
0380
0380
0380
0380
0380
0380
FFFE
FFFE
FFFE
ENDCHAR
STARTCHAR 012D
ENCODING 301
SWIDTH 550 0
DWIDTH 22 0
BBX 16 28 3 0
BITMAP
1C38
1E78
0FF0
0FF0
03C0
0000
0000
0000
7FC0
7FC0
7FC0
01C0
01C0
01C0
01C0
01C0
01C0
01C0
01C0
01C0
01C0
01C0
01C0
01C0
01C0
FFFF
FFFF
FFFF
ENDCHAR
STARTCHAR 012E
ENCODING 302
SWIDTH 550 0
DWIDTH 22 0
BBX 16 34 3 -8
BITMAP
FFFE
FFFE
FFFE
0380
0380
0380
0380
0380
0380
0380
0380
0380
0380
0380
0380
0380
0380
0380
0380
0380
0380
0380
0380
FFFE
FFFE
FFFE
000E
001C
0038
0038
0038
0038
001F
000F
ENDCHAR
STARTCHAR 012F
ENCODING 303
SWIDTH 550 0
DWIDTH 22 0
BBX 17 36 3 -8
BITMAP
01C000
03E000
03E000
03E000
01C000
000000
000000
000000
7FC000
7FC000
7FC000
01C000
01C000
01C000
01C000
01C000
01C000
01C000
01C000
01C000
01C000
01C000
01C000
01C000
01C000
FFFF00
FFFF00
FFFF00
000700
000E00
001C00
001C00
001C00
001C00
000F80
000780
ENDCHAR
STARTCHAR 0130
ENCODING 304
SWIDTH 550 0
DWIDTH 22 0
BBX 15 33 3 0
BITMAP
01C0
03E0
03E0
03E0
01C0
0000
0000
FFFE
FFFE
FFFE
0380
0380
0380
0380
0380
0380
0380
0380
0380
0380
0380
0380
0380
0380
0380
0380
0380
0380
0380
0380
FFFE
FFFE
FFFE
ENDCHAR
STARTCHAR 0131
ENCODING 305
SWIDTH 550 0
DWIDTH 22 0
BBX 16 20 3 0
BITMAP
7FC0
7FC0
7FC0
01C0
01C0
01C0
01C0
01C0
01C0
01C0
01C0
01C0
01C0
01C0
01C0
01C0
01C0
FFFF
FFFF
FFFF
ENDCHAR
STARTCHAR 0132
ENCODING 306
SWIDTH 550 0
DWIDTH 22 0
BBX 17 26 2 0
BITMAP
E00380
E00380
E00380
E00380
E00380
E00380
E00380
E00380
E00380
E00380
E00380
E00380
E00380
E00380
E00380
E00380
E00380
E00380
E00380
E00380
E00380
E00780
E10F00
E1FF00
E1FE00
E0F800
ENDCHAR
STARTCHAR 0133
ENCODING 307
SWIDTH 550 0
DWIDTH 22 0
BBX 17 36 2 -8
BITMAP
700700
F80F80
F80F80
F80F80
700700
000000
000000
000000
700700
700700
700700
700700
700700
700700
700700
700700
700700
700700
700700
700700
700700
700700
700700
700700
700700
700700
700700
700700
000700
000700
000F00
000E00
081E00
0FFC00
0FF800
07E000
ENDCHAR
STARTCHAR 0134
ENCODING 308
SWIDTH 550 0
DWIDTH 22 0
BBX 13 33 4 0
BITMAP
0700
1FC0
3DE0
7070
0000
0000
0000
FFF8
FFF8
FFF8
0038
0038
0038
0038
0038
0038
0038
0038
0038
0038
0038
0038
0038
0038
0038
0038
0038
0038
8070
E0F0
FFE0
7FC0
1F00
ENDCHAR
STARTCHAR 0135
ENCODING 309
SWIDTH 550 0
DWIDTH 22 0
BBX 13 36 3 -8
BITMAP
0380
07C0
0EE0
1C70
3838
0000
0000
0000
7FF8
7FF8
7FF8
0038
0038
0038
0038
0038
0038
0038
0038
0038
0038
0038
0038
0038
0038
0038
0038
0038
0038
0038
0078
0070
C0F0
FFE0
FFC0
7F00
ENDCHAR
STARTCHAR 0136
ENCODING 310
SWIDTH 550 0
DWIDTH 22 0
BBX 17 34 3 -8
BITMAP
E00780
E00F00
E01E00
E03C00
E07800
E07000
E0F000
E1E000
E3C000
E78000
E70000
EE0000
FC0000
FE0000
EF0000
E78000
E3C000
E3C000
E1E000
E0F000
E07800
E07C00
E03C00
E01E00
E00F00
E00780
000000
000000
01C000
03C000
038000
038000
078000
070000
ENDCHAR
STARTCHAR 0137
ENCODING 311
SWIDTH 550 0
DWIDTH 22 0
BBX 18 36 4 -8
BITMAP
E00000
E00000
E00000
E00000
E00000
E00000
E00000
E00000
E01F00
E01E00
E03C00
E07800
E0F000
E1E000
E3C000
E78000
EF0000
FE0000
EF0000
E78000
E3C000
E1E000
E0F000
E07800
E03C00
E01E00
E00F00
E007C0
000000
000000
038000
078000
070000
070000
0F0000
0E0000
ENDCHAR
STARTCHAR 0138
ENCODING 312
SWIDTH 550 0
DWIDTH 22 0
BBX 17 20 4 0
BITMAP
E00F00
E01E00
E03C00
E07800
E0F000
E1E000
E3C000
E78000
EF0000
FE0000
EF0000
E78000
E3C000
E1E000
E0F000
E07800
E03C00
E01E00
E00F00
E00780
ENDCHAR
STARTCHAR 0139
ENCODING 313
SWIDTH 550 0
DWIDTH 22 0
BBX 15 33 5 0
BITMAP
01F0
03E0
0780
0F00
0000
0000
0000
E000
E000
E000
E000
E000
E000
E000
E000
E000
E000
E000
E000
E000
E000
E000
E000
E000
E000
E000
E000
E000
E000
E000
FFFE
FFFE
FFFE
ENDCHAR
STARTCHAR 013A
ENCODING 314
SWIDTH 550 0
DWIDTH 22 0
BBX 16 35 3 0
BITMAP
003E
007C
00F0
01E0
0000
0000
0000
7FC0
7FC0
7FC0
01C0
01C0
01C0
01C0
01C0
01C0
01C0
01C0
01C0
01C0
01C0
01C0
01C0
01C0
01C0
01C0
01C0
01C0
01C0
01C0
01C0
01C0
FFFF
FFFF
FFFF
ENDCHAR
STARTCHAR 013B
ENCODING 315
SWIDTH 550 0
DWIDTH 22 0
BBX 15 34 5 -8
BITMAP
E000
E000
E000
E000
E000
E000
E000
E000
E000
E000
E000
E000
E000
E000
E000
E000
E000
E000
E000
E000
E000
E000
E000
FFFE
FFFE
FFFE
0000
0000
0700
0F00
0E00
0E00
1E00
1C00
ENDCHAR
STARTCHAR 013C
ENCODING 316
SWIDTH 550 0
DWIDTH 22 0
BBX 16 36 3 -8
BITMAP
7FC0
7FC0
7FC0
01C0
01C0
01C0
01C0
01C0
01C0
01C0
01C0
01C0
01C0
01C0
01C0
01C0
01C0
01C0
01C0
01C0
01C0
01C0
01C0
01C0
01C0
FFFF
FFFF
FFFF
0000
0000
01C0
03C0
0380
0380
0780
0700
ENDCHAR
STARTCHAR 013D
ENCODING 317
SWIDTH 550 0
DWIDTH 22 0
BBX 15 29 5 0
BITMAP
001C
003C
0038
E038
E078
E070
E000
E000
E000
E000
E000
E000
E000
E000
E000
E000
E000
E000
E000
E000
E000
E000
E000
E000
E000
E000
FFFE
FFFE
FFFE
ENDCHAR
STARTCHAR 013E
ENCODING 318
SWIDTH 550 0
DWIDTH 22 0
BBX 18 29 3 0
BITMAP
0001C0
7FC3C0
7FC380
7FC380
01C780
01C700
01C000
01C000
01C000
01C000
01C000
01C000
01C000
01C000
01C000
01C000
01C000
01C000
01C000
01C000
01C000
01C000
01C000
01C000
01C000
01C000
FFFF00
FFFF00
FFFF00
ENDCHAR
STARTCHAR 013F
ENCODING 319
SWIDTH 550 0
DWIDTH 22 0
BBX 18 26 4 0
BITMAP
E00000
E00000
E00000
E00000
E00000
E00000
E00000
E00000
E00000
E00000
E00780
E00780
E00FC0
E00FC0
E00FC0
E00780
E00780
E00000
E00000
E00000
E00000
E00000
E00000
FFFE00
FFFE00
FFFE00
ENDCHAR
STARTCHAR 0140
ENCODING 320
SWIDTH 550 0
DWIDTH 22 0
BBX 23 28 2 0
BITMAP
7FC000
7FC000
7FC000
01C000
01C000
01C000
01C000
01C000
01C000
01C000
01C000
01C000
01C03C
01C03C
01C07E
01C07E
01C07E
01C03C
01C03C
01C000
01C000
01C000
01C000
01C000
01C000
FFFF00
FFFF00
FFFF00
ENDCHAR
STARTCHAR 0141
ENCODING 321
SWIDTH 550 0
DWIDTH 22 0
BBX 18 26 1 0
BITMAP
0E0000
0E0000
0E0000
0E0000
0E0000
0E0400
0E1C00
0E7C00
0EF800
0FE000
0F8000
1F0000
7E0000
FE0000
EE0000
8E0000
0E0000
0E0000
0E0000
0E0000
0E0000
0E0000
0E0000
0FFFC0
0FFFC0
0FFFC0
ENDCHAR
STARTCHAR 0142
ENCODING 322
SWIDTH 550 0
DWIDTH 22 0
BBX 15 28 4 0
BITMAP
7F80
7F80
7F80
0380
0380
0380
0380
0382
038E
03BE
03FC
03F0
07C0
1F80
3F80
7B80
6380
4380
0380
0380
0380
0380
0380
0380
0380
FFFE
FFFE
FFFE
ENDCHAR
STARTCHAR 0143
ENCODING 323
SWIDTH 550 0
DWIDTH 22 0
BBX 18 33 2 0
BITMAP
003E00
007C00
00F000
01E000
000000
000000
000000
F801C0
F801C0
FC01C0
FC01C0
FE01C0
EE01C0
EF01C0
E701C0
E781C0
E781C0
E3C1C0
E3C1C0
E1E1C0
E1E1C0
E0E1C0
E0F1C0
E071C0
E079C0
E039C0
E03DC0
E01DC0
E01FC0
E00FC0
E00FC0
E007C0
E007C0
ENDCHAR
STARTCHAR 0144
ENCODING 324
SWIDTH 550 0
DWIDTH 22 0
BBX 15 28 3 0
BITMAP
003E
007C
00F8
01E0
03C0
0000
0000
0000
E3F0
E7F8
FFFC
FE3C
F81E
F00E
E00E
E00E
E00E
E00E
E00E
E00E
E00E
E00E
E00E
E00E
E00E
E00E
E00E
E00E
ENDCHAR
STARTCHAR 0145
ENCODING 325
SWIDTH 550 0
DWIDTH 22 0
BBX 18 34 2 -8
BITMAP
F801C0
F801C0
FC01C0
FC01C0
FE01C0
EE01C0
EF01C0
E701C0
E781C0
E781C0
E3C1C0
E3C1C0
E1E1C0
E1E1C0
E0F1C0
E0F1C0
E071C0
E079C0
E039C0
E03DC0
E01DC0
E01FC0
E00FC0
E00FC0
E007C0
E007C0
000000
000000
00E000
01E000
01C000
01C000
03C000
038000
ENDCHAR
STARTCHAR 0146
ENCODING 326
SWIDTH 550 0
DWIDTH 22 0
BBX 15 28 3 -8
BITMAP
E3F0
E7F8
FFFC
FE3C
F81E
F00E
E00E
E00E
E00E
E00E
E00E
E00E
E00E
E00E
E00E
E00E
E00E
E00E
E00E
E00E
0000
0000
01C0
03C0
0380
0380
0780
0700
ENDCHAR
STARTCHAR 0147
ENCODING 327
SWIDTH 550 0
DWIDTH 22 0
BBX 18 33 2 0
BITMAP
0E0E00
07BC00
03F800
00E000
000000
000000
000000
F801C0
F801C0
FC01C0
FC01C0
FE01C0
EE01C0
EF01C0
E701C0
E781C0
E781C0
E3C1C0
E3C1C0
E1E1C0
E1E1C0
E0E1C0
E0F1C0
E071C0
E079C0
E039C0
E03DC0
E01DC0
E01FC0
E00FC0
E00FC0
E007C0
E007C0
ENDCHAR
STARTCHAR 0148
ENCODING 328
SWIDTH 550 0
DWIDTH 22 0
BBX 15 28 3 0
BITMAP
1C1C
0E38
07F0
03E0
01C0
0000
0000
0000
E3F0
E7F8
FFFC
FE3C
F81E
F00E
E00E
E00E
E00E
E00E
E00E
E00E
E00E
E00E
E00E
E00E
E00E
E00E
E00E
E00E
ENDCHAR
STARTCHAR 0149
ENCODING 329
SWIDTH 550 0
DWIDTH 22 0
BBX 18 30 0 0
BITMAP
380000
7C0000
7C0000
7C0000
3C0000
3C0000
780000
F00000
C00000
000000
1C7E00
1CFF00
1FFF80
1FC780
1F03C0
1E01C0
1C01C0
1C01C0
1C01C0
1C01C0
1C01C0
1C01C0
1C01C0
1C01C0
1C01C0
1C01C0
1C01C0
1C01C0
1C01C0
1C01C0
ENDCHAR
STARTCHAR 014A
ENCODING 330
SWIDTH 550 0
DWIDTH 22 0
BBX 17 34 2 -8
BITMAP
F00380
F80380
F80380
FC0380
FC0380
FE0380
EE0380
EF0380
E78380
E78380
E3C380
E3C380
E1E380
E1E380
E0F380
E0F380
E07B80
E03B80
E03F80
E01F80
E01F80
E00F80
E00F80
E00780
E00780
E00380
000380
000380
000780
000700
000F00
007E00
007C00
007000
ENDCHAR
STARTCHAR 014B
ENCODING 331
SWIDTH 550 0
DWIDTH 22 0
BBX 15 28 3 -8
BITMAP
E3F0
E7F8
FFFC
FE3C
F81E
F00E
E00E
E00E
E00E
E00E
E00E
E00E
E00E
E00E
E00E
E00E
E00E
E00E
E00E
E00E
000E
000E
000E
001C
003C
00F8
00F0
00E0
ENDCHAR
STARTCHAR 014C
ENCODING 332
SWIDTH 550 0
DWIDTH 22 0
BBX 20 32 1 0
BITMAP
0FFE00
0FFE00
0FFE00
000000
000000
000000
01F800
07FF00
0FFF80
1E07C0
3C03C0
3801E0
7000E0
7000E0
F000F0
E00070
E00070
E00070
E00070
E00070
E00070
E00070
E00070
E000F0
7000E0
7000E0
7801C0
3C03C0
3E0780
1FFF00
0FFE00
03F800
ENDCHAR
STARTCHAR 014D
ENCODING 333
SWIDTH 550 0
DWIDTH 22 0
BBX 18 27 2 0
BITMAP
0FFC00
0FFC00
0FFC00
000000
000000
000000
000000
03F000
0FFC00
1FFF00
3C0F00
780780
700380
F003C0
E001C0
E001C0
E001C0
E001C0
E001C0
E001C0
F003C0
700380
780780
3C1F00
3FFE00
0FFC00
03F000
ENDCHAR
STARTCHAR 014E
ENCODING 334
SWIDTH 550 0
DWIDTH 22 0
BBX 20 33 1 0
BITMAP
0E0E00
0F1E00
07FC00
07FC00
01F000
000000
000000
01F800
07FF00
0FFF80
1E07C0
3C03C0
3801E0
7000E0
7000E0
F000F0
E00070
E00070
E00070
E00070
E00070
E00070
E00070
E00070
E000F0
7000E0
7000E0
7801C0
3C03C0
3E0780
1FFF00
0FFE00
03F800
ENDCHAR
STARTCHAR 014F
ENCODING 335
SWIDTH 550 0
DWIDTH 22 0
BBX 18 28 2 0
BITMAP
0E1C00
0F3C00
07F800
07F800
01E000
000000
000000
000000
03F000
0FFC00
1FFF00
3C0F00
780780
700380
F003C0
E001C0
E001C0
E001C0
E001C0
E001C0
E001C0
F003C0
700380
780780
3C1F00
3FFE00
0FFC00
03F000
ENDCHAR
STARTCHAR 0150
ENCODING 336
SWIDTH 550 0
DWIDTH 22 0
BBX 20 33 1 0
BITMAP
00F1F0
01E3E0
03C780
078F00
000000
000000
000000
01F800
07FF00
0FFF80
1E07C0
3C03C0
3801E0
7000E0
7000E0
F000F0
E00070
E00070
E00070
E00070
E00070
E00070
E00070
E00070
E000F0
7000E0
7000E0
7801C0
3C03C0
3E0780
1FFF00
0FFE00
03F800
ENDCHAR
STARTCHAR 0151
ENCODING 337
SWIDTH 550 0
DWIDTH 22 0
BBX 19 28 2 0
BITMAP
01E1E0
03C3C0
078780
0F0F00
1E1E00
000000
000000
000000
03F000
0FFC00
1FFF00
3C0F00
780780
700380
F003C0
E001C0
E001C0
E001C0
E001C0
E001C0
E001C0
F003C0
700380
780780
3C1F00
3FFE00
0FFC00
03F000
ENDCHAR
STARTCHAR 0152
ENCODING 338
SWIDTH 550 0
DWIDTH 22 0
BBX 21 26 1 0
BITMAP
01FFF8
07FFF8
1FFFF8
1E1C00
3C1C00
781C00
701C00
701C00
E01C00
E01C00
E01C00
E01FF8
E01FF8
E01FF8
E01C00
E01C00
E01C00
E01C00
701C00
701C00
781C00
381C00
3E1C00
1FFFF8
0FFFF8
03FFF8
ENDCHAR
STARTCHAR 0153
ENCODING 339
SWIDTH 550 0
DWIDTH 22 0
BBX 21 20 1 0
BITMAP
0F0780
1F8FE0
3FDFF0
79FC70
70F870
E07038
E07038
E07038
E07FF8
E07FF8
E07FF8
E07000
E07000
E07000
E0F000
70F800
79FC10
7FDFF0
3F8FF0
1F07E0
ENDCHAR
STARTCHAR 0154
ENCODING 340
SWIDTH 550 0
DWIDTH 22 0
BBX 18 33 3 0
BITMAP
00F800
01F000
03C000
078000
000000
000000
000000
FFE000
FFF800
FFFC00
E07E00
E01F00
E00F00
E00F00
E00F00
E00F00
E01F00
E01E00
E07E00
FFFC00
FFF000
FFE000
E1F000
E07800
E03C00
E03C00
E01E00
E01E00
E00F00
E00F00
E00780
E00780
E003C0
ENDCHAR
STARTCHAR 0155
ENCODING 341
SWIDTH 550 0
DWIDTH 22 0
BBX 16 28 4 0
BITMAP
007C
00F8
01F0
03C0
0780
0000
0000
0000
E1F0
E7FC
EFFE
FF1E
FC0F
F807
F007
E007
E000
E000
E000
E000
E000
E000
E000
E000
E000
E000
E000
E000
ENDCHAR
STARTCHAR 0156
ENCODING 342
SWIDTH 550 0
DWIDTH 22 0
BBX 18 34 3 -8
BITMAP
FFE000
FFF800
FFFC00
E07E00
E01F00
E00F00
E00F00
E00F00
E00F00
E01F00
E01E00
E07E00
FFFC00
FFF000
FFE000
E1F000
E07800
E03C00
E03C00
E01E00
E01E00
E00F00
E00F00
E00780
E00780
E003C0
000000
000000
01C000
03C000
038000
038000
078000
070000
ENDCHAR
STARTCHAR 0157
ENCODING 343
SWIDTH 550 0
DWIDTH 22 0
BBX 16 28 4 -8
BITMAP
E1F0
E7FC
EFFE
FF1E
FC0F
F807
F007
E007
E000
E000
E000
E000
E000
E000
E000
E000
E000
E000
E000
E000
0000
0000
0380
0780
0700
0700
0F00
0E00
ENDCHAR
STARTCHAR 0158
ENCODING 344
SWIDTH 550 0
DWIDTH 22 0
BBX 18 33 3 0
BITMAP
383800
1EF000
0FE000
038000
000000
000000
000000
FFE000
FFF800
FFFC00
E07E00
E01F00
E00F00
E00F00
E00F00
E00F00
E01F00
E01E00
E07E00
FFFC00
FFF000
FFE000
E1F000
E07800
E03C00
E03C00
E01E00
E01E00
E00F00
E00F00
E00780
E00780
E003C0
ENDCHAR
STARTCHAR 0159
ENCODING 345
SWIDTH 550 0
DWIDTH 22 0
BBX 16 28 4 0
BITMAP
3838
1C70
0FE0
07C0
0380
0000
0000
0000
E1F0
E7FC
EFFE
FF1E
FC0F
F807
F007
E007
E000
E000
E000
E000
E000
E000
E000
E000
E000
E000
E000
E000
ENDCHAR
STARTCHAR 015A
ENCODING 346
SWIDTH 550 0
DWIDTH 22 0
BBX 17 33 2 0
BITMAP
003E00
007C00
00F000
01E000
000000
000000
000000
07F800
1FFE00
3FFE00
7C0600
F80000
F00000
F00000
F00000
F80000
7C0000
7F0000
3FC000
1FF000
07FC00
00FE00
003F00
000F80
000780
000780
000780
000780
000F00
C01F00
FFFE00
FFFC00
3FE000
ENDCHAR
STARTCHAR 015B
ENCODING 347
SWIDTH 550 0
DWIDTH 22 0
BBX 15 28 4 0
BITMAP
007C
00F8
01F0
03C0
0780
0000
0000
0000
07F0
3FFC
7FFC
F80C
E000
E000
E000
F800
7F00
3FE0
0FF8
01FC
003E
000E
000E
000E
C03E
FFFC
FFF8
3FC0
ENDCHAR
STARTCHAR 015C
ENCODING 348
SWIDTH 550 0
DWIDTH 22 0
BBX 17 33 2 0
BITMAP
01C000
07F000
0F7800
1C1C00
000000
000000
000000
07F800
1FFE00
3FFE00
7C0600
F80000
F00000
F00000
F00000
F80000
7C0000
7F0000
3FC000
1FF000
07FC00
00FE00
003F00
000F80
000780
000780
000780
000780
000F00
C01F00
FFFE00
FFFC00
3FE000
ENDCHAR
STARTCHAR 015D
ENCODING 349
SWIDTH 550 0
DWIDTH 22 0
BBX 15 28 4 0
BITMAP
0700
0F80
1DC0
38E0
7070
0000
0000
0000
07F0
3FFC
7FFC
F80C
E000
E000
E000
F800
7F00
3FE0
0FF8
01FC
003E
000E
000E
000E
C03E
FFFC
FFF8
3FC0
ENDCHAR
STARTCHAR 015E
ENCODING 350
SWIDTH 550 0
DWIDTH 22 0
BBX 17 32 2 -6
BITMAP
07F800
1FFE00
3FFE00
7C0600
F80000
F00000
F00000
F00000
F80000
7C0000
7E0000
3FC000
1FF000
07FC00
00FE00
003F00
000F80
000780
000780
000780
000780
000F80
C01F00
FFFE00
FFFC00
3FF000
01C000
03C000
038000
038000
078000
070000
ENDCHAR
STARTCHAR 015F
ENCODING 351
SWIDTH 550 0
DWIDTH 22 0
BBX 15 26 4 -6
BITMAP
07F0
3FFC
7FFC
F80C
E000
E000
E000
F800
7F00
3FE0
0FF8
01FC
003E
000E
000E
000E
C03E
FFFC
FFF8
3FE0
01C0
03C0
0380
0380
0780
0700
ENDCHAR
STARTCHAR 0160
ENCODING 352
SWIDTH 550 0
DWIDTH 22 0
BBX 17 33 2 0
BITMAP
0E0E00
07BC00
03F800
00E000
000000
000000
000000
07F800
1FFE00
3FFE00
7C0600
F80000
F00000
F00000
F00000
F80000
7C0000
7F0000
3FC000
1FF000
07FC00
00FE00
003F00
000F80
000780
000780
000780
000780
000F00
C01F00
FFFE00
FFFC00
3FE000
ENDCHAR
STARTCHAR 0161
ENCODING 353
SWIDTH 550 0
DWIDTH 22 0
BBX 15 28 4 0
BITMAP
3838
1C70
0FE0
07C0
0380
0000
0000
0000
07F0
3FFC
7FFC
F80C
E000
E000
E000
F800
7F00
3FE0
0FF8
01FC
003E
000E
000E
000E
C03E
FFFC
FFF8
3FC0
ENDCHAR
STARTCHAR 0162
ENCODING 354
SWIDTH 550 0
DWIDTH 22 0
BBX 19 32 1 -6
BITMAP
FFFFE0
FFFFE0
FFFFE0
00E000
00E000
00E000
00E000
00E000
00E000
00E000
00E000
00E000
00E000
00E000
00E000
00E000
00E000
00E000
00E000
00E000
00E000
00E000
00E000
00E000
00E000
00E000
007000
00F000
00E000
00E000
01E000
01C000
ENDCHAR
STARTCHAR 0163
ENCODING 355
SWIDTH 550 0
DWIDTH 22 0
BBX 18 32 1 -6
BITMAP
018000
038000
038000
038000
038000
038000
FFFFC0
FFFFC0
FFFFC0
038000
038000
038000
038000
038000
038000
038000
038000
038000
038000
038000
038000
038000
03E040
01FFC0
00FFC0
007F80
001C00
003C00
003800
003800
007800
007000
ENDCHAR
STARTCHAR 0164
ENCODING 356
SWIDTH 550 0
DWIDTH 22 0
BBX 19 33 1 0
BITMAP
070700
03DE00
01FC00
007000
000000
000000
000000
FFFFE0
FFFFE0
FFFFE0
00E000
00E000
00E000
00E000
00E000
00E000
00E000
00E000
00E000
00E000
00E000
00E000
00E000
00E000
00E000
00E000
00E000
00E000
00E000
00E000
00E000
00E000
00E000
ENDCHAR
STARTCHAR 0165
ENCODING 357
SWIDTH 550 0
DWIDTH 22 0
BBX 19 29 1 0
BITMAP
0000E0
0001E0
0001C0
0181C0
0383C0
038380
038000
038000
038000
FFFFC0
FFFFC0
FFFFC0
038000
038000
038000
038000
038000
038000
038000
038000
038000
038000
038000
038000
038000
03E040
01FFC0
00FFC0
003F80
ENDCHAR
STARTCHAR 0166
ENCODING 358
SWIDTH 550 0
DWIDTH 22 0
BBX 19 26 1 0
BITMAP
FFFFE0
FFFFE0
FFFFE0
00E000
00E000
00E000
00E000
00E000
00E000
00E000
00E000
1FFF80
1FFF80
1FFF80
00E000
00E000
00E000
00E000
00E000
00E000
00E000
00E000
00E000
00E000
00E000
00E000
ENDCHAR
STARTCHAR 0167
ENCODING 359
SWIDTH 550 0
DWIDTH 22 0
BBX 18 26 1 0
BITMAP
018000
038000
038000
038000
038000
038000
FFFFC0
FFFFC0
FFFFC0
038000
038000
038000
038000
038000
7FFF80
7FFF80
7FFF80
038000
038000
038000
038000
03C000
01E040
01FFC0
00FFC0
003F80
ENDCHAR
STARTCHAR 0168
ENCODING 360
SWIDTH 550 0
DWIDTH 22 0
BBX 17 33 2 0
BITMAP
0F8200
1FC700
3FFF00
38FE00
107C00
000000
000000
E00380
E00380
E00380
E00380
E00380
E00380
E00380
E00380
E00380
E00380
E00380
E00380
E00380
E00380
E00380
E00380
E00380
E00380
E00380
E00380
F00700
700700
7C1F00
3FFE00
1FFC00
07F000
ENDCHAR
STARTCHAR 0169
ENCODING 361
SWIDTH 550 0
DWIDTH 22 0
BBX 15 28 3 0
BITMAP
1F04
3F8E
7FFE
71FC
20F8
0000
0000
0000
E00E
E00E
E00E
E00E
E00E
E00E
E00E
E00E
E00E
E00E
E00E
E00E
E00E
E00E
E01E
F03E
78FE
7FFE
3FCE
1F8E
ENDCHAR
STARTCHAR 016A
ENCODING 362
SWIDTH 550 0
DWIDTH 22 0
BBX 17 32 2 0
BITMAP
1FFC00
1FFC00
1FFC00
000000
000000
000000
E00380
E00380
E00380
E00380
E00380
E00380
E00380
E00380
E00380
E00380
E00380
E00380
E00380
E00380
E00380
E00380
E00380
E00380
E00380
E00380
F00700
700700
7C1F00
3FFE00
1FFC00
07F000
ENDCHAR
STARTCHAR 016B
ENCODING 363
SWIDTH 550 0
DWIDTH 22 0
BBX 15 27 3 0
BITMAP
1FF8
1FF8
1FF8
0000
0000
0000
0000
E00E
E00E
E00E
E00E
E00E
E00E
E00E
E00E
E00E
E00E
E00E
E00E
E00E
E00E
E01E
F03E
78FE
7FFE
3FCE
1F8E
ENDCHAR
STARTCHAR 016C
ENCODING 364
SWIDTH 550 0
DWIDTH 22 0
BBX 17 33 2 0
BITMAP
1C1C00
1E3C00
0FF800
0FF800
03E000
000000
000000
E00380
E00380
E00380
E00380
E00380
E00380
E00380
E00380
E00380
E00380
E00380
E00380
E00380
E00380
E00380
E00380
E00380
E00380
E00380
E00380
F00700
700700
7C1F00
3FFE00
1FFC00
07F000
ENDCHAR
STARTCHAR 016D
ENCODING 365
SWIDTH 550 0
DWIDTH 22 0
BBX 15 28 3 0
BITMAP
1C38
1E78
0FF0
0FF0
03C0
0000
0000
0000
E00E
E00E
E00E
E00E
E00E
E00E
E00E
E00E
E00E
E00E
E00E
E00E
E00E
E00E
E01E
F03E
78FE
7FFE
3FCE
1F8E
ENDCHAR
STARTCHAR 016E
ENCODING 366
SWIDTH 550 0
DWIDTH 22 0
BBX 17 34 2 0
BITMAP
01E000
03F000
061800
061800
061800
03F000
01E000
000000
E00380
E00380
E00380
E00380
E00380
E00380
E00380
E00380
E00380
E00380
E00380
E00380
E00380
E00380
E00380
E00380
E00380
E00380
E00380
E00380
F00700
700700
7C1F00
3FFE00
1FFC00
07F000
ENDCHAR
STARTCHAR 016F
ENCODING 367
SWIDTH 550 0
DWIDTH 22 0
BBX 15 30 3 0
BITMAP
03C0
07E0
0E70
0C30
0C30
0E70
07E0
03C0
0000
0000
E00E
E00E
E00E
E00E
E00E
E00E
E00E
E00E
E00E
E00E
E00E
E00E
E00E
E00E
E01E
F03E
78FE
7FFE
3FCE
1F8E
ENDCHAR
STARTCHAR 0170
ENCODING 368
SWIDTH 550 0
DWIDTH 22 0
BBX 19 33 2 0
BITMAP
01E3E0
03C7C0
078F00
0F1E00
000000
000000
000000
E00380
E00380
E00380
E00380
E00380
E00380
E00380
E00380
E00380
E00380
E00380
E00380
E00380
E00380
E00380
E00380
E00380
E00380
E00380
E00380
F00700
700700
7C1F00
3FFE00
1FFC00
07F000
ENDCHAR
STARTCHAR 0171
ENCODING 369
SWIDTH 550 0
DWIDTH 22 0
BBX 18 28 3 0
BITMAP
03C3C0
078780
0F0F00
1E1E00
3C3C00
000000
000000
000000
E00E00
E00E00
E00E00
E00E00
E00E00
E00E00
E00E00
E00E00
E00E00
E00E00
E00E00
E00E00
E00E00
E00E00
E01E00
F03E00
78FE00
7FFE00
3FCE00
1F8E00
ENDCHAR
STARTCHAR 0172
ENCODING 370
SWIDTH 550 0
DWIDTH 22 0
BBX 17 34 2 -8
BITMAP
E00380
E00380
E00380
E00380
E00380
E00380
E00380
E00380
E00380
E00380
E00380
E00380
E00380
E00380
E00380
E00380
E00380
E00380
E00380
E00380
F00780
700700
7C1F00
3FFE00
1FFC00
07F800
00E000
01C000
038000
038000
038000
038000
01F000
00F000
ENDCHAR
STARTCHAR 0173
ENCODING 371
SWIDTH 550 0
DWIDTH 22 0
BBX 16 28 3 -8
BITMAP
E00E
E00E
E00E
E00E
E00E
E00E
E00E
E00E
E00E
E00E
E00E
E00E
E00E
E00E
E01E
F03E
78FE
7FFE
3FCE
1F8E
000E
001C
0038
0038
0038
0038
001F
000F
ENDCHAR
STARTCHAR 0174
ENCODING 372
SWIDTH 550 0
DWIDTH 22 0
BBX 20 33 1 0
BITMAP
00E000
03F800
07BC00
0E0E00
000000
000000
000000
E00070
E00070
E00070
E00070
E00070
E00070
7000F0
7000E0
7000E0
7060E0
7070E0
70F0E0
70F0E0
70F0E0
70F8E0
71F8E0
7998E0
799CE0
7B9DE0
3B9DE0
3B0DC0
3B0FC0
3F0FC0
3F0FC0
3E07C0
3E07C0
ENDCHAR
STARTCHAR 0175
ENCODING 373
SWIDTH 550 0
DWIDTH 22 0
BBX 19 28 1 0
BITMAP
00E000
01F000
03B800
071C00
0E0E00
000000
000000
000000
E000E0
E000E0
E000E0
E000E0
E000E0
E0E0E0
E0E0E0
F0F1E0
71F1C0
71B1C0
71B1C0
73B9C0
73B9C0
7319C0
771DC0
771D80
360F80
3E0F80
3E0F80
3C0780
ENDCHAR
STARTCHAR 0176
ENCODING 374
SWIDTH 550 0
DWIDTH 22 0
BBX 21 33 0 0
BITMAP
007000
01FC00
03DE00
070700
000000
000000
000000
F00078
7800F0
7800F0
3C01E0
3C01E0
1E03C0
1E03C0
0F0780
070780
078F00
038E00
03CE00
01DC00
01FC00
00F800
00F800
007000
007000
007000
007000
007000
007000
007000
007000
007000
007000
ENDCHAR
STARTCHAR 0177
ENCODING 375
SWIDTH 550 0
DWIDTH 22 0
BBX 19 36 1 -8
BITMAP
00E000
01F000
03B800
071C00
0E0E00
000000
000000
000000
7800E0
7801E0
3801E0
3C01C0
3C03C0
1C03C0
1E0380
0E0780
0F0700
0F0700
070F00
078E00
038E00
039E00
03DC00
01DC00
01F800
00F800
00F800
00F000
00F000
00E000
01E000
03C000
07C000
FF8000
FF0000
F80000
ENDCHAR
STARTCHAR 0178
ENCODING 376
SWIDTH 550 0
DWIDTH 22 0
BBX 21 33 0 0
BITMAP
030180
0783C0
0783C0
030180
000000
000000
000000
F00078
7800F0
7800F0
3C01E0
3C01E0
1E03C0
1E03C0
0F0780
070780
078F00
038E00
03CE00
01DC00
01FC00
00F800
00F800
007000
007000
007000
007000
007000
007000
007000
007000
007000
007000
ENDCHAR
STARTCHAR 0179
ENCODING 377
SWIDTH 550 0
DWIDTH 22 0
BBX 18 33 2 0
BITMAP
003E00
007C00
00F000
01E000
000000
000000
000000
FFFF80
FFFF80
FFFF80
000F00
000F00
001E00
001C00
003C00
007800
007800
00F000
00E000
01E000
03C000
03C000
078000
070000
0F0000
1E0000
1E0000
3C0000
380000
780000
FFFFC0
FFFFC0
FFFFC0
ENDCHAR
STARTCHAR 017A
ENCODING 378
SWIDTH 550 0
DWIDTH 22 0
BBX 16 28 3 0
BITMAP
003E
007C
00F8
01E0
03C0
0000
0000
0000
FFFE
FFFE
FFFE
001C
0038
0078
00F0
00E0
01E0
03C0
0780
0700
0F00
1E00
3C00
3800
7800
FFFF
FFFF
FFFF
ENDCHAR
STARTCHAR 017B
ENCODING 379
SWIDTH 550 0
DWIDTH 22 0
BBX 18 33 2 0
BITMAP
00E000
01F000
01F000
01F000
00E000
000000
000000
FFFF80
FFFF80
FFFF80
000F00
000F00
001E00
001C00
003C00
007800
007800
00F000
00E000
01E000
03C000
03C000
078000
070000
0F0000
1E0000
1E0000
3C0000
380000
780000
FFFFC0
FFFFC0
FFFFC0
ENDCHAR
STARTCHAR 017C
ENCODING 380
SWIDTH 550 0
DWIDTH 22 0
BBX 16 28 3 0
BITMAP
0380
07C0
07C0
07C0
0380
0000
0000
0000
FFFE
FFFE
FFFE
001C
0038
0078
00F0
00E0
01E0
03C0
0780
0700
0F00
1E00
3C00
3800
7800
FFFF
FFFF
FFFF
ENDCHAR
STARTCHAR 017D
ENCODING 381
SWIDTH 550 0
DWIDTH 22 0
BBX 18 33 2 0
BITMAP
0E0E00
07BC00
03F800
00E000
000000
000000
000000
FFFF80
FFFF80
FFFF80
000F00
000F00
001E00
001C00
003C00
007800
007800
00F000
00E000
01E000
03C000
03C000
078000
070000
0F0000
1E0000
1E0000
3C0000
380000
780000
FFFFC0
FFFFC0
FFFFC0
ENDCHAR
STARTCHAR 017E
ENCODING 382
SWIDTH 550 0
DWIDTH 22 0
BBX 16 28 3 0
BITMAP
1C1C
0E38
07F0
03E0
01C0
0000
0000
0000
FFFE
FFFE
FFFE
001C
0038
0078
00F0
00E0
01E0
03C0
0780
0700
0F00
1E00
3C00
3800
7800
FFFF
FFFF
FFFF
ENDCHAR
STARTCHAR 017F
ENCODING 383
SWIDTH 550 0
DWIDTH 22 0
BBX 14 28 6 0
BITMAP
03F8
1FFC
3FFC
7C0C
7000
7000
E000
E000
E000
E000
E000
E000
E000
E000
E000
E000
E000
E000
E000
E000
E000
E000
E000
E000
E000
E000
E000
E000
ENDCHAR
STARTCHAR 0180
ENCODING 384
SWIDTH 550 0
DWIDTH 22 0
BBX 19 28 0 0
BITMAP
1C0000
1C0000
1C0000
FFF000
FFF000
FFF000
1C0000
1C0000
1C3E00
1CFF00
1DFF80
1FC3C0
1F01C0
1E01E0
1C00E0
1C00E0
1C00E0
1C00E0
1C00E0
1C00E0
1C00E0
1C01E0
1C01C0
1C03C0
1E0780
1FFF00
1FFE00
03F800
ENDCHAR
STARTCHAR 0181
ENCODING 385
SWIDTH 550 0
DWIDTH 22 0
BBX 20 26 0 0
BITMAP
1FFC00
3FFF80
7FFFC0
F707C0
E703E0
E701E0
E701E0
E701E0
0701E0
0703C0
070F80
07FF00
07FF00
07FFC0
0707E0
0701E0
0700F0
0700F0
0700F0
0700F0
0700F0
0701E0
0707E0
07FFC0
07FF00
07FC00
ENDCHAR
STARTCHAR 0182
ENCODING 386
SWIDTH 550 0
DWIDTH 22 0
BBX 17 26 3 0
BITMAP
FFFE00
FFFE00
FFFE00
E00000
E00000
E00000
E00000
E00000
E00000
E00000
E00000
FFE000
FFFC00
FFFE00
E03F00
E00F00
E00780
E00780
E00780
E00780
E00780
E00F00
E03F00
FFFE00
FFF800
FFE000
ENDCHAR
STARTCHAR 0183
ENCODING 387
SWIDTH 550 0
DWIDTH 22 0
BBX 16 28 3 0
BITMAP
FFFC
FFFC
FFFC
E000
E000
E000
E000
E000
E1F0
E7F8
EFFC
FE1E
F80E
F00F
E007
E007
E007
E007
E007
E007
E007
E00F
E00E
E01E
F03C
FFF8
FFF0
1FC0
ENDCHAR
STARTCHAR 0184
ENCODING 388
SWIDTH 550 0
DWIDTH 22 0
BBX 19 26 1 0
BITMAP
180000
780000
F80000
F80000
780000
380000
380000
380000
380000
380000
380000
3FF800
3FFF00
3FFF80
380FC0
3803C0
3801E0
3801E0
3801E0
3801E0
3801E0
3803C0
380FC0
3FFF80
3FFE00
3FF800
ENDCHAR
STARTCHAR 0185
ENCODING 389
SWIDTH 550 0
DWIDTH 22 0
BBX 19 26 0 0
BITMAP
1C0000
7C0000
FC0000
FC0000
7C0000
1C0000
1C3E00
1CFF00
1DFF80
1FC3C0
1F01C0
1E01E0
1C00E0
1C00E0
1C00E0
1C00E0
1C00E0
1C00E0
1C00E0
1C01E0
1C01C0
1C03C0
1E0780
1FFF00
1FFE00
03F800
ENDCHAR
STARTCHAR 0186
ENCODING 390
SWIDTH 550 0
DWIDTH 22 0
BBX 18 26 3 0
BITMAP
3FC000
FFF800
FFFC00
C07E00
001F00
000F80
000780
000780
0007C0
0003C0
0003C0
0003C0
0003C0
0003C0
0003C0
0003C0
0003C0
000780
000780
000780
000F00
001F00
E07E00
FFFC00
FFF800
3FC000
ENDCHAR
STARTCHAR 0187
ENCODING 391
SWIDTH 550 0
DWIDTH 22 0
BBX 21 31 2 0
BITMAP
0000F8
0001F8
0001F8
0003C0
000380
00FF80
07FF80
0FFF80
1F8380
3E0080
3C0000
780000
780000
780000
F00000
F00000
F00000
F00000
F00000
F00000
F00000
F00000
F00000
780000
780000
7C0000
3E0080
1F8380
1FFF80
07FF00
01FC00
ENDCHAR
STARTCHAR 0188
ENCODING 392
SWIDTH 550 0
DWIDTH 22 0
BBX 19 24 3 0
BITMAP
0003E0
0007E0
000FE0
000F00
03FE00
0FFE00
1FFE00
3E0600
780000
700000
700000
E00000
E00000
E00000
E00000
E00000
E00000
F00000
700000
780000
3E0600
3FFE00
0FFE00
03F800
ENDCHAR
STARTCHAR 0189
ENCODING 393
SWIDTH 550 0
DWIDTH 22 0
BBX 21 26 0 0
BITMAP
1FF800
1FFF00
1FFF80
1C0FC0
1C03E0
1C01F0
1C00F0
1C00F0
1C0078
1C0078
1C0078
FFE078
FFE078
FFE078
1C0078
1C0078
1C0078
1C00F8
1C00F0
1C00F0
1C01E0
1C03E0
1C0FC0
1FFF80
1FFE00
1FF800
ENDCHAR
STARTCHAR 018A
ENCODING 394
SWIDTH 550 0
DWIDTH 22 0
BBX 21 26 0 0
BITMAP
1FF800
3FFF00
7FFF80
F70FC0
E703E0
E701F0
E700F0
E700F0
0700F8
070078
070078
070078
070078
070078
070078
070078
070078
0700F0
0700F0
0700F0
0701E0
0703E0
070FC0
07FF80
07FE00
07F000
ENDCHAR
STARTCHAR 018B
ENCODING 395
SWIDTH 550 0
DWIDTH 22 0
BBX 17 26 2 0
BITMAP
3FFF80
3FFF80
3FFF80
000380
000380
000380
000380
000380
000380
000380
000380
03FF80
1FFF80
3FFF80
7E0380
780380
F00380
F00380
F00380
F00380
F00380
780380
7E0380
3FFF80
0FFF80
03FF80
ENDCHAR
STARTCHAR 018C
ENCODING 396
SWIDTH 550 0
DWIDTH 22 0
BBX 16 28 2 0
BITMAP
3FFF
3FFF
3FFF
0007
0007
0007
0007
0007
03FF
0FFF
1FFF
3C0F
7807
7007
F007
E007
E007
E007
E007
E007
E007
E00F
F01F
703F
787F
3FF7
1FE7
0F87
ENDCHAR
STARTCHAR 018D
ENCODING 397
SWIDTH 550 0
DWIDTH 22 0
BBX 17 28 2 0
BITMAP
07F000
1FFC00
3FFE00
3C1E00
780F00
700700
E00780
E00380
E00380
E00380
E00380
E00380
F00380
700700
780F00
3C1E00
1F3C00
0FF800
07F000
03E000
01F000
00F800
003800
003800
407800
7FF000
7FF000
3FC000
ENDCHAR
STARTCHAR 018E
ENCODING 398
SWIDTH 550 0
DWIDTH 22 0
BBX 15 26 4 0
BITMAP
FFFE
FFFE
FFFE
000E
000E
000E
000E
000E
000E
000E
000E
FFFE
FFFE
FFFE
000E
000E
000E
000E
000E
000E
000E
000E
000E
FFFE
FFFE
FFFE
ENDCHAR
STARTCHAR 018F
ENCODING 399
SWIDTH 550 0
DWIDTH 22 0
BBX 20 26 1 0
BITMAP
0FF000
7FFE00
7FFF00
701F80
0007C0
0003E0
0001E0
0001E0
0000F0
0000F0
0000F0
FFFFF0
FFFFF0
FFFFF0
E000F0
E000F0
E000F0
E000F0
7001E0
7001E0
7003C0
3803C0
3E0F80
1FFF00
0FFE00
03F800
ENDCHAR
STARTCHAR 0190
ENCODING 400
SWIDTH 550 0
DWIDTH 22 0
BBX 17 26 2 0
BITMAP
03FC00
0FFF00
3FFF00
3E0300
7C0000
780000
780000
780000
780000
3C0000
3E0000
0FFE00
0FFE00
3FFE00
7E0000
780000
F00000
F00000
F00000
F00000
F00000
780000
7E0380
3FFF80
1FFF80
07FE00
ENDCHAR
STARTCHAR 0191
ENCODING 401
SWIDTH 550 0
DWIDTH 22 0
BBX 19 33 -1 -7
BITMAP
07FFE0
07FFE0
07FFE0
070000
070000
070000
070000
070000
070000
070000
070000
070000
07FFC0
07FFC0
07FFC0
070000
070000
070000
070000
070000
070000
070000
070000
070000
070000
070000
070000
070000
070000
0F0000
FE0000
FC0000
F80000
ENDCHAR
STARTCHAR 0192
ENCODING 402
SWIDTH 550 0
DWIDTH 22 0
BBX 19 33 1 -5
BITMAP
0007E0
001FE0
003FE0
003C00
007800
007800
007000
007000
007000
00F000
00F000
00F000
3FFFC0
3FFFC0
3FFFC0
00E000
01E000
01E000
01E000
01E000
01E000
01C000
01C000
01C000
03C000
03C000
03C000
038000
078000
0F8000
FF0000
FE0000
FC0000
ENDCHAR
STARTCHAR 0193
ENCODING 403
SWIDTH 550 0
DWIDTH 22 0
BBX 21 31 1 0
BITMAP
000078
0000F8
0001F8
0001E0
0001C0
00FFC0
03FFC0
0FFFC0
1F81C0
3E0000
3C0000
7C0000
780000
780000
F00000
F00000
F03FC0
F03FC0
F03FC0
F001C0
F001C0
F001C0
F801C0
7801C0
7801C0
7C01C0
3E01C0
1F81C0
0FFFC0
07FFC0
01FE00
ENDCHAR
STARTCHAR 0194
ENCODING 404
SWIDTH 550 0
DWIDTH 22 0
BBX 22 26 0 0
BITMAP
F0003C
780078
780078
3C00F0
3C00E0
1E01E0
0E01C0
0F03C0
070380
078700
038F00
03CE00
01DE00
01FC00
00FC00
00F800
007800
00FC00
00FC00
01CE00
03CE00
038700
070700
07FF80
0FFFC0
0FFFC0
ENDCHAR
STARTCHAR 0195
ENCODING 405
SWIDTH 550 0
DWIDTH 22 0
BBX 18 28 2 0
BITMAP
E00000
E00000
E00000
E00000
E00000
E00000
E00000
E00000
E781C0
FFC1C0
FFC1C0
F9E1C0
F0E1C0
E0E1C0
E0E1C0
E0E1C0
E0E1C0
E0E1C0
E0E1C0
E0E1C0
E0E1C0
E0E1C0
E0E1C0
E0E1C0
E0F3C0
E07F80
E07F80
E01E00
ENDCHAR
STARTCHAR 0196
ENCODING 406
SWIDTH 550 0
DWIDTH 22 0
BBX 9 28 9 0
BITMAP
E000
E000
E000
E000
E000
E000
E000
E000
E000
E000
E000
E000
E000
E000
E000
E000
E000
E000
E000
E000
E000
E000
E000
E000
F000
7F80
7F80
1F80
ENDCHAR
STARTCHAR 0197
ENCODING 407
SWIDTH 550 0
DWIDTH 22 0
BBX 15 26 3 0
BITMAP
FFFE
FFFE
FFFE
0380
0380
0380
0380
0380
0380
0380
0380
3FFC
3FFC
3FFC
0380
0380
0380
0380
0380
0380
0380
0380
0380
FFFE
FFFE
FFFE
ENDCHAR
STARTCHAR 0198
ENCODING 408
SWIDTH 550 0
DWIDTH 22 0
BBX 17 26 3 0
BITMAP
E00F80
E01F80
E03F80
E07C00
E07800
E0F000
E1E000
E3C000
E3C000
E78000
EF0000
FE0000
FE0000
FE0000
EF0000
E78000
E3C000
E3E000
E1E000
E0F000
E07800
E07C00
E03E00
E01E00
E00F00
E00780
ENDCHAR
STARTCHAR 0199
ENCODING 409
SWIDTH 550 0
DWIDTH 22 0
BBX 18 28 4 0
BITMAP
1FC000
3FC000
7FC000
F00000
E00000
E00000
E00000
E00000
E01F00
E01E00
E03C00
E07800
E0F000
E1E000
E3C000
E78000
EF0000
FE0000
EF0000
E78000
E3C000
E1E000
E0F000
E07800
E03C00
E01E00
E00F00
E007C0
ENDCHAR
STARTCHAR 019A
ENCODING 410
SWIDTH 550 0
DWIDTH 22 0
BBX 16 28 3 0
BITMAP
7FC0
7FC0
7FC0
01C0
01C0
01C0
01C0
01C0
01C0
01C0
01C0
01C0
01C0
3FFC
3FFC
3FFC
01C0
01C0
01C0
01C0
01C0
01C0
01C0
01C0
01C0
FFFF
FFFF
FFFF
ENDCHAR
STARTCHAR 019B
ENCODING 411
SWIDTH 550 0
DWIDTH 22 0
BBX 20 28 2 0
BITMAP
3E1000
3FB000
3FF800
03E000
07C000
0FC000
1FE000
1CE000
00E000
01F000
01F000
01F000
03F800
03B800
07BC00
073C00
0F1C00
0F1E00
0E0E00
1E0E00
1C0F00
3C0700
3C0700
780780
780380
7803F0
F001F0
F000F0
ENDCHAR
STARTCHAR 019C
ENCODING 412
SWIDTH 550 0
DWIDTH 22 0
BBX 18 26 2 0
BITMAP
E0E1C0
E0E1C0
E0E1C0
E0E1C0
E0E1C0
E0E1C0
E0E1C0
E0E1C0
E0E1C0
E0E1C0
E0E1C0
E0E1C0
E0E1C0
E0E1C0
E0E1C0
E0E1C0
E0E1C0
E0E1C0
E0E1C0
E0E1C0
E1E3C0
E1E3C0
E3E7C0
FF7FC0
7E7DC0
3C39C0
ENDCHAR
STARTCHAR 019D
ENCODING 413
SWIDTH 550 0
DWIDTH 22 0
BBX 21 34 -2 -8
BITMAP
0F0038
0F8038
0F8038
0FC038
0FC038
0EE038
0EE038
0EF038
0E7038
0E7838
0E3838
0E3838
0E1C38
0E1C38
0E0E38
0E0E38
0E0F38
0E0738
0E07B8
0E03B8
0E03B8
0E01F8
0E01F8
0E00F8
0E00F8
0E00F8
0E0000
0E0000
0E0000
0E0000
1E0000
FC0000
F80000
F00000
ENDCHAR
STARTCHAR 019E
ENCODING 414
SWIDTH 550 0
DWIDTH 22 0
BBX 16 28 2 -8
BITMAP
E1F8
E3FC
E7FE
6F1E
7C0F
7807
7007
7007
7007
7007
7007
7007
7007
7007
7007
7007
7007
7007
7007
7007
0007
0007
0007
0007
0007
0007
0007
0007
ENDCHAR
STARTCHAR 019F
ENCODING 415
SWIDTH 550 0
DWIDTH 22 0
BBX 20 26 1 0
BITMAP
01F800
07FF00
0FFF80
1F0FC0
3C03C0
3C03E0
7801E0
7801E0
F000F0
F000F0
F000F0
FFFFF0
FFFFF0
FFFFF0
F000F0
F000F0
F000F0
F000F0
7801E0
7801E0
7C03C0
3C03C0
3F0F80
1FFF00
0FFE00
03F800
ENDCHAR
STARTCHAR 01A0
ENCODING 416
SWIDTH 550 0
DWIDTH 22 0
BBX 22 29 1 0
BITMAP
00001C
00001C
00001C
01F81C
07FF1C
0FFFB8
1E07F0
3C03C0
3801E0
7000E0
7000E0
F000F0
E00070
E00070
E00070
E00070
E00070
E00070
E00070
E00070
E000F0
7000E0
7000E0
7801C0
3C03C0
3E0780
1FFF00
0FFE00
03F800
ENDCHAR
STARTCHAR 01A1
ENCODING 417
SWIDTH 550 0
DWIDTH 22 0
BBX 21 23 1 0
BITMAP
000038
000038
000038
03F038
0FFC38
1FFF70
3C0FE0
780780
700380
F003C0
E001C0
E001C0
E001C0
E001C0
E001C0
E001C0
F003C0
700380
780780
3C1F00
3FFE00
0FFC00
03F000
ENDCHAR
STARTCHAR 01A2
ENCODING 418
SWIDTH 550 0
DWIDTH 22 0
BBX 18 26 2 0
BITMAP
0F87C0
3FFFC0
3FFFC0
79E1C0
70E1C0
70E1C0
E0E1C0
E0E1C0
E0E1C0
E0E1C0
E0E1C0
E0E1C0
E0E1C0
E0E1C0
E0E1C0
E0E1C0
E0E1C0
E0E1C0
E0E1C0
E0E1C0
60E1C0
70E1C0
79E1C0
3FC1C0
3FC1C0
0F81C0
ENDCHAR
STARTCHAR 01A3
ENCODING 419
SWIDTH 550 0
DWIDTH 22 0
BBX 18 20 2 0
BITMAP
0F87C0
3FFFC0
3FFFC0
79E1C0
70E1C0
F0E1C0
E0E1C0
E0E1C0
E0E1C0
E0E1C0
E0E1C0
E0E1C0
E0E1C0
E0E1C0
E0E1C0
70E1C0
79E1C0
7FE1C0
3FC1C0
0F81C0
ENDCHAR
STARTCHAR 01A4
ENCODING 420
SWIDTH 550 0
DWIDTH 22 0
BBX 21 26 0 0
BITMAP
1FFE00
3FFFC0
7FFFE0
F383F0
E380F0
E380F8
E38078
E38078
038078
038078
038078
0380F0
0381F0
0383E0
03FFC0
03FF80
03FC00
038000
038000
038000
038000
038000
038000
038000
038000
038000
ENDCHAR
STARTCHAR 01A5
ENCODING 421
SWIDTH 550 0
DWIDTH 22 0
BBX 16 36 3 -8
BITMAP
1FC0
3FC0
7FC0
F000
E000
E000
E000
E000
E1F0
E7F8
EFFC
FE1E
F80E
F00F
E007
E007
E007
E007
E007
E007
E007
E00F
E00E
E01E
F03C
FFF8
FFF0
FFC0
E000
E000
E000
E000
E000
E000
E000
E000
ENDCHAR
STARTCHAR 01A6
ENCODING 422
SWIDTH 550 0
DWIDTH 22 0
BBX 18 29 3 -3
BITMAP
E00000
E00000
E00000
FFE000
FFF800
FFFC00
E07E00
E01F00
E00F00
E00F00
E00F00
E00F00
E01F00
E01E00
E07E00
FFF800
FFF000
FFE000
E1F000
E07800
E03800
E03C00
E01C00
E01E00
E00F00
E00F00
000780
000780
0003C0
ENDCHAR
STARTCHAR 01A7
ENCODING 423
SWIDTH 550 0
DWIDTH 22 0
BBX 17 26 3 0
BITMAP
1FF000
7FFC00
7FFF00
601F00
000780
000780
000780
000780
000F80
001F00
007E00
01FC00
07F000
1FE000
3F0000
7E0000
F80000
F00000
F00000
F00000
F00000
F80000
7C0380
3FFF80
1FFF80
07FE00
ENDCHAR
STARTCHAR 01A8
ENCODING 424
SWIDTH 550 0
DWIDTH 22 0
BBX 15 20 4 0
BITMAP
3FE0
7FF0
7FF8
603C
001C
001C
003C
0078
03F8
0FE0
3F80
7E00
F800
F000
E000
E000
F00E
7FFE
3FFE
0FF8
ENDCHAR
STARTCHAR 01A9
ENCODING 425
SWIDTH 550 0
DWIDTH 22 0
BBX 18 26 2 0
BITMAP
FFFFC0
FFFFC0
FFFFC0
780000
3C0000
1E0000
0F0000
0F8000
07C000
03E000
01F000
00F800
007800
00F800
01F000
01E000
03C000
078000
0F0000
1F0000
3E0000
3C0000
780000
FFFFC0
FFFFC0
FFFFC0
ENDCHAR
STARTCHAR 01AA
ENCODING 426
SWIDTH 550 0
DWIDTH 22 0
BBX 18 38 1 -8
BITMAP
1F0000
3F8000
7FC000
F1E000
E0E000
E0E000
E0E000
F1E000
7FE000
7FE000
1FE000
00E000
00E000
00E000
00E000
00E000
00E000
00E000
00E000
00E000
00E000
00E000
00E000
00E000
00E000
00E000
00E000
00E000
00E000
00E000
00E000
00E000
00E000
00E000
00F000
007FC0
007FC0
001FC0
ENDCHAR
STARTCHAR 01AB
ENCODING 427
SWIDTH 550 0
DWIDTH 22 0
BBX 18 34 1 -8
BITMAP
018000
038000
038000
038000
038000
038000
FFFFC0
FFFFC0
FFFFC0
038000
038000
038000
038000
038000
038000
038000
038000
038000
038000
038000
038000
03C000
01E040
01FFC0
00FFC0
003FC0
0001C0
0001C0
0001C0
0001C0
0003C0
003FC0
003F80
003F00
ENDCHAR
STARTCHAR 01AC
ENCODING 428
SWIDTH 550 0
DWIDTH 22 0
BBX 20 26 0 0
BITMAP
1FFFF0
3FFFF0
7FFFF0
F07000
E07000
E07000
E07000
E07000
007000
007000
007000
007000
007000
007000
007000
007000
007000
007000
007000
007000
007000
007000
007000
007000
007000
007000
ENDCHAR
STARTCHAR 01AD
ENCODING 429
SWIDTH 550 0
DWIDTH 22 0
BBX 18 28 1 0
BITMAP
007E00
01FE00
01FE00
03C000
038000
038000
038000
038000
FFFFC0
FFFFC0
FFFFC0
038000
038000
038000
038000
038000
038000
038000
038000
038000
038000
038000
038000
03C000
01E040
01FFC0
00FFC0
003FC0
ENDCHAR
STARTCHAR 01AE
ENCODING 430
SWIDTH 550 0
DWIDTH 22 0
BBX 19 34 1 -8
BITMAP
FFFFE0
FFFFE0
FFFFE0
00E000
00E000
00E000
00E000
00E000
00E000
00E000
00E000
00E000
00E000
00E000
00E000
00E000
00E000
00E000
00E000
00E000
00E000
00E000
00E000
00E000
00E000
00E000
00E000
00E000
00E000
00E000
00F000
007F80
007F80
001F80
ENDCHAR
STARTCHAR 01AF
ENCODING 431
SWIDTH 550 0
DWIDTH 22 0
BBX 20 29 2 0
BITMAP
000070
000070
000070
E00E70
E00E70
E00E60
E00FC0
E00F80
E00E00
E00E00
E00E00
E00E00
E00E00
E00E00
E00E00
E00E00
E00E00
E00E00
E00E00
E00E00
E00E00
E00E00
E00E00
E01E00
701C00
783C00
3FF800
1FF000
0FC000
ENDCHAR
STARTCHAR 01B0
ENCODING 432
SWIDTH 550 0
DWIDTH 22 0
BBX 20 23 2 0
BITMAP
000070
000070
000070
E00E70
E00E70
E00E60
E00FC0
E00F80
E00E00
E00E00
E00E00
E00E00
E00E00
E00E00
E00E00
E00E00
E00E00
E01E00
F03E00
787E00
7FFE00
3FEE00
1F8E00
ENDCHAR
STARTCHAR 01B1
ENCODING 433
SWIDTH 550 0
DWIDTH 22 0
BBX 20 26 1 0
BITMAP
FF0FF0
FF0FF0
FF0FF0
0E0700
1C0380
3C03C0
3801C0
7801E0
7001E0
F000F0
F000F0
F000F0
F000F0
F000F0
F000F0
F000F0
F000F0
F000F0
F801E0
7801E0
7803E0
3C03C0
3F0F80
1FFF80
0FFE00
03F800
ENDCHAR
STARTCHAR 01B2
ENCODING 434
SWIDTH 550 0
DWIDTH 22 0
BBX 17 26 2 0
BITMAP
E07C00
E07F00
E07F00
E00780
E00380
E00380
E00380
E00380
E00380
E00380
E00380
E00380
E00380
E00380
E00380
E00380
E00380
E00380
E00380
E00380
F00700
700700
7C1F00
3FFE00
1FFC00
07F000
ENDCHAR
STARTCHAR 01B3
ENCODING 435
SWIDTH 550 0
DWIDTH 22 0
BBX 21 26 0 0
BITMAP
F00078
7800F8
7801F8
3C01E0
3C01C0
1E03C0
0E0380
0F0780
070700
078F00
038E00
03DE00
01DC00
01FC00
00F800
00F800
007000
007000
007000
007000
007000
007000
007000
007000
007000
007000
ENDCHAR
STARTCHAR 01B4
ENCODING 436
SWIDTH 550 0
DWIDTH 22 0
BBX 22 28 1 -8
BITMAP
78007C
7800FC
3800FC
3C01E0
3C01C0
1E01C0
1E03C0
0E0380
0F0780
0F0700
070700
078F00
038E00
03DE00
03DE00
01DC00
01FC00
00F800
00F800
00F800
00F000
00F000
01E000
03C000
07C000
FF8000
FF0000
F80000
ENDCHAR
STARTCHAR 01B5
ENCODING 437
SWIDTH 550 0
DWIDTH 22 0
BBX 17 26 2 0
BITMAP
FFFF80
FFFF80
FFFF80
000700
000F00
001E00
001E00
003C00
003800
007800
00F000
7FFF80
7FFF80
7FFF80
03C000
078000
070000
0F0000
1E0000
1C0000
3C0000
780000
700000
FFFF80
FFFF80
FFFF80
ENDCHAR
STARTCHAR 01B6
ENCODING 438
SWIDTH 550 0
DWIDTH 22 0
BBX 16 20 3 0
BITMAP
FFFE
FFFE
FFFE
001C
003C
0078
00F0
01E0
7FFE
7FFE
7FFE
0F00
0E00
1E00
3C00
7800
7000
FFFF
FFFF
FFFF
ENDCHAR
STARTCHAR 01B7
ENCODING 439
SWIDTH 550 0
DWIDTH 22 0
BBX 15 26 3 0
BITMAP
FFFC
FFFC
FFFC
003C
0078
00F0
01E0
03C0
0780
0700
0FC0
0FF0
0FF8
007C
001C
001E
000E
000E
000E
000E
001E
001C
007C
FFF8
FFE0
FF80
ENDCHAR
STARTCHAR 01B8
ENCODING 440
SWIDTH 550 0
DWIDTH 22 0
BBX 16 26 3 0
BITMAP
7FFF
7FFF
7FFF
3800
1C00
0E00
0700
0380
01C0
00E0
03F0
1FF0
3FF0
7E00
7800
F000
E000
E000
E000
E000
F000
7000
7C00
3FFF
0FFF
01FF
ENDCHAR
STARTCHAR 01B9
ENCODING 441
SWIDTH 550 0
DWIDTH 22 0
BBX 15 26 3 -6
BITMAP
7FFE
7FFE
7FFE
3800
1C00
0E00
0700
0380
01C0
00E0
03F0
1FF0
3FF0
7E00
7800
F000
E000
E000
E000
E000
F000
7000
7C00
3FFE
0FFE
03FE
ENDCHAR
STARTCHAR 01BA
ENCODING 442
SWIDTH 550 0
DWIDTH 22 0
BBX 15 28 3 -8
BITMAP
FFFC
FFFC
FFFC
0078
00F0
01E0
03C0
0780
0FE0
0FF8
0FFC
003C
001E
000E
000E
000E
000E
001C
007C
1FF8
7FE0
FC00
E000
E000
F000
7FC0
7FC0
1FC0
ENDCHAR
STARTCHAR 01BB
ENCODING 443
SWIDTH 550 0
DWIDTH 22 0
BBX 17 26 3 0
BITMAP
07E000
1FF800
7FFC00
F83E00
601E00
400F00
000F00
000F00
000F00
000F00
000E00
001E00
7FFF80
7FFF80
7FFF80
00F000
01F000
03E000
07C000
0F0000
1E0000
3E0000
7C0000
FFFF80
FFFF80
FFFF80
ENDCHAR
STARTCHAR 01BC
ENCODING 444
SWIDTH 550 0
DWIDTH 22 0
BBX 18 26 1 0
BITMAP
FFFF80
FFFF80
FFFF80
070000
070000
0F0000
0F0000
0E0000
0E0000
0E0000
1FF800
1FFE00
1FFF00
001F80
0007C0
0003C0
0003C0
0003C0
0003C0
0003C0
000780
000F80
001F00
1FFE00
1FFC00
1FE000
ENDCHAR
STARTCHAR 01BD
ENCODING 445
SWIDTH 550 0
DWIDTH 22 0
BBX 16 20 3 0
BITMAP
FFFE
FFFE
FFFE
1C00
1C00
1C00
3FE0
3FFC
3FFE
001E
000F
0007
0007
0007
0007
000F
003E
7FFC
7FF8
7FC0
ENDCHAR
STARTCHAR 01BE
ENCODING 446
SWIDTH 550 0
DWIDTH 22 0
BBX 14 24 3 0
BITMAP
0E00
0E00
0E00
0E00
FFF0
FFF0
FFF0
0E00
0E00
0F00
07C0
03F0
00F8
0078
003C
003C
003C
003C
007C
00F8
03F8
3FF0
3FC0
3E00
ENDCHAR
STARTCHAR 01BF
ENCODING 447
SWIDTH 550 0
DWIDTH 22 0
BBX 16 28 3 -8
BITMAP
E1F0
E7FC
EFFC
FE1E
F80E
F007
E007
E007
E007
E007
E007
E007
E00E
E01E
E03C
E07C
E3F8
FFE0
FFC0
FE00
E000
E000
E000
E000
E000
E000
E000
E000
ENDCHAR
STARTCHAR 01C0
ENCODING 448
SWIDTH 550 0
DWIDTH 22 0
BBX 3 40 9 -8
BITMAP
E0
E0
E0
E0
E0
E0
E0
E0
E0
E0
E0
E0
E0
E0
E0
E0
E0
E0
E0
E0
E0
E0
E0
E0
E0
E0
E0
E0
E0
E0
E0
E0
E0
E0
E0
E0
E0
E0
E0
E0
ENDCHAR
STARTCHAR 01C1
ENCODING 449
SWIDTH 550 0
DWIDTH 22 0
BBX 9 40 7 -8
BITMAP
E380
E380
E380
E380
E380
E380
E380
E380
E380
E380
E380
E380
E380
E380
E380
E380
E380
E380
E380
E380
E380
E380
E380
E380
E380
E380
E380
E380
E380
E380
E380
E380
E380
E380
E380
E380
E380
E380
E380
E380
ENDCHAR
STARTCHAR 01C2
ENCODING 450
SWIDTH 550 0
DWIDTH 22 0
BBX 14 40 4 -8
BITMAP
0700
0700
0700
0700
0700
0700
0700
0700
0700
0700
0700
0700
0700
FFFC
FFFC
FFFC
0700
0700
0700
0700
0700
0700
FFFC
FFFC
FFFC
0700
0700
0700
0700
0700
0700
0700
0700
0700
0700
0700
0700
0700
0700
0700
ENDCHAR
STARTCHAR 01C3
ENCODING 451
SWIDTH 550 0
DWIDTH 22 0
BBX 5 28 8 0
BITMAP
78
78
78
78
78
78
78
78
78
78
78
78
78
78
78
78
78
38
38
38
00
00
00
70
F8
F8
F8
70
ENDCHAR
STARTCHAR 01C4
ENCODING 452
SWIDTH 550 0
DWIDTH 22 0
BBX 21 33 2 0
BITMAP
001C38
000FF0
0007E0
0003C0
000000
000000
000000
FC1FE0
FF1FE0
FF9FE0
E780E0
E3C0E0
E1C1C0
E1C1C0
E0E1C0
E0E1C0
E0E380
E0E380
E0E380
E0E380
E0E700
E0E700
E0E700
E0E700
E0EE00
E1CE00
E1CE00
E1CE00
E39C00
E79C00
FF1FE0
FE1FE0
F81FE0
ENDCHAR
STARTCHAR 01C5
ENCODING 453
SWIDTH 550 0
DWIDTH 22 0
BBX 20 28 2 0
BITMAP
003870
001CE0
F80FC0
FE0780
FF0780
E70000
E38000
E38000
E39FE0
E1DFE0
E1DFE0
E1C0E0
E1C1C0
E1C1C0
E1C1C0
E1C380
E1C380
E1C380
E1C700
E1C700
E1C700
E38E00
E38E00
E38E00
E71C00
FE1FE0
FE1FE0
F81FE0
ENDCHAR
STARTCHAR 01C6
ENCODING 454
SWIDTH 550 0
DWIDTH 22 0
BBX 21 28 1 0
BITMAP
01CE38
01C770
01C360
01C3E0
01C1C0
01C000
01C000
01C000
1FCFF8
3FCFF8
7FCFF8
71C038
71C070
E1C070
E1C060
E1C0E0
E1C0E0
E1C1C0
E1C1C0
E1C380
E1C380
E1C380
E1C700
E1C700
71CE00
7FCFF8
3FCFF8
1DCFF8
ENDCHAR
STARTCHAR 01C7
ENCODING 455
SWIDTH 550 0
DWIDTH 22 0
BBX 17 26 2 0
BITMAP
E07F80
E07F80
E07F80
E00380
E00380
E00380
E00380
E00380
E00380
E00380
E00380
E00380
E00380
E00380
E00380
E00380
E00380
E00380
E00380
E00380
E00380
E00380
E00700
FF3F00
FF3E00
FF3800
ENDCHAR
STARTCHAR 01C8
ENCODING 456
SWIDTH 550 0
DWIDTH 22 0
BBX 18 36 2 -8
BITMAP
000380
0007C0
E007C0
E007C0
E00380
E00000
E00000
E00000
E07F80
E07F80
E07F80
E00380
E00380
E00380
E00380
E00380
E00380
E00380
E00380
E00380
E00380
E00380
E00380
E00380
E00380
FF0380
FF0380
FF0380
000380
000380
000380
000700
000F00
01FE00
01FC00
01F800
ENDCHAR
STARTCHAR 01C9
ENCODING 457
SWIDTH 550 0
DWIDTH 22 0
BBX 19 36 1 -8
BITMAP
FE01C0
FE03E0
FE03E0
0E03E0
0E01C0
0E0000
0E0000
0E0000
0E1FC0
0E1FC0
0E1FC0
0E01C0
0E01C0
0E01C0
0E01C0
0E01C0
0E01C0
0E01C0
0E01C0
0E01C0
0E01C0
0E01C0
0E01C0
0E01C0
0E01C0
FFE1C0
FFE1C0
FFE1C0
0001C0
0001C0
0001C0
000380
000780
00FF00
00FE00
00FC00
ENDCHAR
STARTCHAR 01CA
ENCODING 458
SWIDTH 550 0
DWIDTH 22 0
BBX 19 26 1 0
BITMAP
F0E7E0
F0E7E0
F0E7E0
F8E0E0
F8E0E0
F8E0E0
F8E0E0
F8E0E0
FCE0E0
FCE0E0
FCE0E0
ECE0E0
EEE0E0
EEE0E0
EEE0E0
E6E0E0
E7E0E0
E7E0E0
E7E0E0
E3E0E0
E3E0E0
E3E0E0
E3E1E0
E1E7C0
E1E780
E1E700
ENDCHAR
STARTCHAR 01CB
ENCODING 459
SWIDTH 550 0
DWIDTH 22 0
BBX 19 36 1 -8
BITMAP
0001C0
0003E0
F0E3E0
F0E3E0
F0E1C0
F8E000
F8E000
F8E000
F8E7E0
F8E7E0
FCE7E0
FCE0E0
FCE0E0
ECE0E0
EEE0E0
EEE0E0
EEE0E0
E6E0E0
E7E0E0
E7E0E0
E7E0E0
E3E0E0
E3E0E0
E3E0E0
E3E0E0
E1E0E0
E1E0E0
E1E0E0
0000E0
0000E0
0000E0
0001E0
0001C0
003FC0
003F80
003E00
ENDCHAR
STARTCHAR 01CC
ENCODING 460
SWIDTH 550 0
DWIDTH 22 0
BBX 20 36 1 -8
BITMAP
0000E0
0001F0
0001F0
0001F0
0000E0
000000
000000
000000
E787F0
EFC7F0
FFE7F0
F8E070
F0E070
E0E070
E0E070
E0E070
E0E070
E0E070
E0E070
E0E070
E0E070
E0E070
E0E070
E0E070
E0E070
E0E070
E0E070
E0E070
000070
000070
000070
0000F0
0000E0
001FE0
001FC0
001F00
ENDCHAR
STARTCHAR 01CD
ENCODING 461
SWIDTH 550 0
DWIDTH 22 0
BBX 21 33 0 0
BITMAP
038380
01EF00
00FE00
003800
000000
000000
000000
00F800
00F800
01FC00
01DC00
01DC00
03DE00
038E00
038E00
078F00
070700
070700
0F0780
0E0380
0E0380
1E03C0
1C03C0
1C01C0
3FFFE0
3FFFE0
3FFFE0
7800F0
7800F0
700070
F00078
F00078
E00038
ENDCHAR
STARTCHAR 01CE
ENCODING 462
SWIDTH 550 0
DWIDTH 22 0
BBX 16 28 3 0
BITMAP
1C1C
0E38
07F0
03E0
01C0
0000
0000
0000
0FF0
3FFC
3FFE
301E
000F
0007
0007
0007
07FF
1FFF
7FFF
7C07
F807
F007
F007
F01F
F87F
7FFF
3FF7
1FC7
ENDCHAR
STARTCHAR 01CF
ENCODING 463
SWIDTH 550 0
DWIDTH 22 0
BBX 15 33 3 0
BITMAP
1C1C
0F78
07F0
01C0
0000
0000
0000
FFFE
FFFE
FFFE
0380
0380
0380
0380
0380
0380
0380
0380
0380
0380
0380
0380
0380
0380
0380
0380
0380
0380
0380
0380
FFFE
FFFE
FFFE
ENDCHAR
STARTCHAR 01D0
ENCODING 464
SWIDTH 550 0
DWIDTH 22 0
BBX 16 28 3 0
BITMAP
1C1C
0E38
07F0
03E0
01C0
0000
0000
0000
7FC0
7FC0
7FC0
01C0
01C0
01C0
01C0
01C0
01C0
01C0
01C0
01C0
01C0
01C0
01C0
01C0
01C0
FFFF
FFFF
FFFF
ENDCHAR
STARTCHAR 01D1
ENCODING 465
SWIDTH 550 0
DWIDTH 22 0
BBX 20 33 1 0
BITMAP
070700
03DE00
01FC00
007000
000000
000000
000000
01F800
07FF00
0FFF80
1E07C0
3C03C0
3801E0
7000E0
7000E0
F000F0
E00070
E00070
E00070
E00070
E00070
E00070
E00070
E00070
E000F0
7000E0
7000E0
7801C0
3C03C0
3E0780
1FFF00
0FFE00
03F800
ENDCHAR
STARTCHAR 01D2
ENCODING 466
SWIDTH 550 0
DWIDTH 22 0
BBX 18 28 2 0
BITMAP
0E0E00
071C00
03F800
01F000
00E000
000000
000000
000000
03F000
0FFC00
1FFF00
3C0F00
780780
700380
F003C0
E001C0
E001C0
E001C0
E001C0
E001C0
E001C0
F003C0
700380
780780
3C1F00
3FFE00
0FFC00
03F000
ENDCHAR
STARTCHAR 01D3
ENCODING 467
SWIDTH 550 0
DWIDTH 22 0
BBX 17 33 2 0
BITMAP
0E0E00
07BC00
03F800
00E000
000000
000000
000000
E00380
E00380
E00380
E00380
E00380
E00380
E00380
E00380
E00380
E00380
E00380
E00380
E00380
E00380
E00380
E00380
E00380
E00380
E00380
E00380
F00700
700700
7C1F00
3FFE00
1FFC00
07F000
ENDCHAR
STARTCHAR 01D4
ENCODING 468
SWIDTH 550 0
DWIDTH 22 0
BBX 15 28 3 0
BITMAP
1C1C
0E38
07F0
03E0
01C0
0000
0000
0000
E00E
E00E
E00E
E00E
E00E
E00E
E00E
E00E
E00E
E00E
E00E
E00E
E00E
E00E
E01E
F03E
78FE
7FFE
3FCE
1F8E
ENDCHAR
STARTCHAR 01D5
ENCODING 469
SWIDTH 550 0
DWIDTH 22 0
BBX 17 38 2 0
BITMAP
0FFC00
0FFC00
0FFC00
000000
000000
0C0C00
1E1E00
1E1E00
0C0C00
000000
000000
000000
E00380
E00380
E00380
E00380
E00380
E00380
E00380
E00380
E00380
E00380
E00380
E00380
E00380
E00380
E00380
E00380
E00380
E00380
E00380
E00380
F00700
700700
7C1F00
3FFE00
1FFC00
07F000
ENDCHAR
STARTCHAR 01D6
ENCODING 470
SWIDTH 550 0
DWIDTH 22 0
BBX 15 31 3 0
BITMAP
1FF8
1FF8
1FF8
0000
0000
1818
3C3C
3C3C
1818
0000
0000
E00E
E00E
E00E
E00E
E00E
E00E
E00E
E00E
E00E
E00E
E00E
E00E
E00E
E00E
E01E
F03E
78FE
7FFE
3FCE
1F8E
ENDCHAR
STARTCHAR 01D7
ENCODING 471
SWIDTH 550 0
DWIDTH 22 0
BBX 17 38 2 0
BITMAP
001C00
003800
007000
00E000
000000
0C0C00
1E1E00
1E1E00
0C0C00
000000
000000
000000
E00380
E00380
E00380
E00380
E00380
E00380
E00380
E00380
E00380
E00380
E00380
E00380
E00380
E00380
E00380
E00380
E00380
E00380
E00380
E00380
F00700
700700
7C1F00
3FFE00
1FFC00
07F000
ENDCHAR
STARTCHAR 01D8
ENCODING 472
SWIDTH 550 0
DWIDTH 22 0
BBX 15 31 3 0
BITMAP
0070
00E0
01C0
0380
0000
1818
3C3C
3C3C
1818
0000
0000
E00E
E00E
E00E
E00E
E00E
E00E
E00E
E00E
E00E
E00E
E00E
E00E
E00E
E00E
E01E
F03E
78FE
7FFE
3FCE
1F8E
ENDCHAR
STARTCHAR 01D9
ENCODING 473
SWIDTH 550 0
DWIDTH 22 0
BBX 17 38 2 0
BITMAP
0E1E00
073C00
03B800
01F000
00E000
0C0C00
1E1E00
1E1E00
0C0C00
000000
000000
000000
E00380
E00380
E00380
E00380
E00380
E00380
E00380
E00380
E00380
E00380
E00380
E00380
E00380
E00380
E00380
E00380
E00380
E00380
E00380
E00380
F00700
700700
7C1F00
3FFE00
1FFC00
07F000
ENDCHAR
STARTCHAR 01DA
ENCODING 474
SWIDTH 550 0
DWIDTH 22 0
BBX 15 33 3 0
BITMAP
1C3C
0E78
0770
03E0
01C0
0000
1818
3C3C
3C3C
1818
0000
0000
0000
E00E
E00E
E00E
E00E
E00E
E00E
E00E
E00E
E00E
E00E
E00E
E00E
E00E
E00E
E01E
F03E
78FE
7FFE
3FCE
1F8E
ENDCHAR
STARTCHAR 01DB
ENCODING 475
SWIDTH 550 0
DWIDTH 22 0
BBX 17 38 2 0
BITMAP
0E0000
070000
038000
01C000
000000
0C0C00
1E1E00
1E1E00
0C0C00
000000
000000
000000
E00380
E00380
E00380
E00380
E00380
E00380
E00380
E00380
E00380
E00380
E00380
E00380
E00380
E00380
E00380
E00380
E00380
E00380
E00380
E00380
F00700
700700
7C1F00
3FFE00
1FFC00
07F000
ENDCHAR
STARTCHAR 01DC
ENCODING 476
SWIDTH 550 0
DWIDTH 22 0
BBX 15 31 3 0
BITMAP
0E00
0700
0380
01C0
0000
1818
3C3C
3C3C
1818
0000
0000
E00E
E00E
E00E
E00E
E00E
E00E
E00E
E00E
E00E
E00E
E00E
E00E
E00E
E00E
E01E
F03E
78FE
7FFE
3FCE
1F8E
ENDCHAR
STARTCHAR 01DD
ENCODING 477
SWIDTH 550 0
DWIDTH 22 0
BBX 17 20 2 0
BITMAP
1FE000
7FF800
7FFE00
603E00
000F00
000700
000380
000380
000380
FFFF80
FFFF80
FFFF80
E00380
E00380
E00700
700F00
7C1E00
3FFC00
1FF800
07E000
ENDCHAR
STARTCHAR 01DE
ENCODING 478
SWIDTH 550 0
DWIDTH 22 0
BBX 21 38 0 0
BITMAP
03FF00
03FF00
03FF00
000000
000000
030300
078780
078780
030300
000000
000000
000000
00F800
00F800
01FC00
01DC00
01DC00
03DE00
038E00
038E00
078F00
070700
070700
0F0780
0E0380
0E0380
1E03C0
1C03C0
1C01C0
3FFFE0
3FFFE0
3FFFE0
7800F0
7800F0
700070
F00078
F00078
E00038
ENDCHAR
STARTCHAR 01DF
ENCODING 479
SWIDTH 550 0
DWIDTH 22 0
BBX 16 31 3 0
BITMAP
1FF8
1FF8
1FF8
0000
0000
1818
3C3C
3C3C
1818
0000
0000
0FF0
3FFC
3FFE
301E
000F
0007
0007
0007
07FF
1FFF
7FFF
7C07
F807
F007
F007
F01F
F87F
7FFF
3FF7
1FC7
ENDCHAR
STARTCHAR 01E0
ENCODING 480
SWIDTH 550 0
DWIDTH 22 0
BBX 21 38 0 0
BITMAP
07FF00
07FF00
07FF00
000000
000000
000000
006000
00F000
00F000
006000
000000
000000
00F800
00F800
01FC00
01DC00
01DC00
03DE00
038E00
038E00
078F00
070700
070700
0F0780
0E0380
0E0380
1E03C0
1C03C0
1C01C0
3FFFE0
3FFFE0
3FFFE0
7800F0
7800F0
700070
F00078
F00078
E00038
ENDCHAR
STARTCHAR 01E1
ENCODING 481
SWIDTH 550 0
DWIDTH 22 0
BBX 16 31 3 0
BITMAP
1FF8
1FF8
1FF8
0000
0000
0300
0780
0780
0300
0000
0000
0FF0
3FFC
3FFE
301E
000F
0007
0007
0007
07FF
1FFF
7FFF
7C07
F807
F007
F007
F01F
F87F
7FFF
3FF7
1FC7
ENDCHAR
STARTCHAR 01E2
ENCODING 482
SWIDTH 550 0
DWIDTH 22 0
BBX 22 32 -1 0
BITMAP
003FF8
003FF8
003FF8
000000
000000
000000
003FFC
003FFC
007FFC
007E00
00EE00
00EE00
00EE00
01CE00
01CE00
038E00
038E00
038FF8
070FF8
070FF8
0F0E00
0E0E00
0E0E00
1FFE00
1FFE00
1FFE00
380E00
380E00
780E00
700FFC
700FFC
F00FFC
ENDCHAR
STARTCHAR 01E3
ENCODING 483
SWIDTH 550 0
DWIDTH 22 0
BBX 21 27 1 0
BITMAP
07FE00
07FE00
07FE00
000000
000000
000000
000000
1F87C0
7FCFE0
7FFFF0
60FC70
007878
007038
007038
007038
1FFFF8
3FFFF8
7FFFF8
F07000
E07000
E07000
E07000
E0F800
F1FC10
7FBFF0
7F1FF0
3E07E0
ENDCHAR
STARTCHAR 01E4
ENCODING 484
SWIDTH 550 0
DWIDTH 22 0
BBX 21 26 1 0
BITMAP
00FF00
03FFC0
0FFFC0
1F81C0
3E0000
3C0000
7C0000
780000
780000
F00000
F00000
F00000
F03FC0
F03FC0
F03FC0
F001C0
F001C0
F83FF8
783FF8
783FF8
7C01C0
3E01C0
1F81C0
0FFFC0
07FFC0
01FE00
ENDCHAR
STARTCHAR 01E5
ENCODING 485
SWIDTH 550 0
DWIDTH 22 0
BBX 22 28 1 -8
BITMAP
03FFE0
07FFE0
1FFFE0
1E0F00
3C0780
380380
380380
380380
380380
1C0780
1E0F00
1FFE00
1FFC00
39F800
380000
380000
3C0000
3FFF00
1FFFC0
1FFFE0
3C01F0
FFFFFC
FFFFFC
3C00F0
3F03E0
1FFFC0
0FFF80
01FE00
ENDCHAR
STARTCHAR 01E6
ENCODING 486
SWIDTH 550 0
DWIDTH 22 0
BBX 18 33 1 0
BITMAP
038380
01EF00
00FE00
003800
000000
000000
000000
00FE00
03FF80
0FFFC0
1F81C0
3E0040
3C0000
7C0000
780000
780000
F00000
F00000
F03FC0
F03FC0
F03FC0
F001C0
F001C0
F001C0
F801C0
7801C0
7801C0
7C01C0
3E01C0
1F81C0
0FFFC0
07FFC0
01FE00
ENDCHAR
STARTCHAR 01E7
ENCODING 487
SWIDTH 550 0
DWIDTH 22 0
BBX 19 36 2 -8
BITMAP
0E0E00
071C00
03F800
01F000
00E000
000000
000000
000000
07FFC0
0FFFC0
1FFFC0
3C1E00
780F00
700700
700700
700700
700700
780F00
3C1E00
3FFC00
3FF800
77F000
700000
700000
7C0000
7FFE00
3FFF80
3FFFC0
7803E0
F001E0
F001E0
F003E0
FC07C0
7FFF80
3FFF00
0FFC00
ENDCHAR
STARTCHAR 01E8
ENCODING 488
SWIDTH 550 0
DWIDTH 22 0
BBX 17 33 3 0
BITMAP
1C1C00
0F7800
07F000
01C000
000000
000000
000000
E00780
E00F00
E01E00
E03C00
E07800
E07000
E0F000
E1E000
E3C000
E78000
E70000
EE0000
FC0000
FE0000
EF0000
E78000
E3C000
E3C000
E1E000
E0F000
E07800
E07C00
E03C00
E01E00
E00F00
E00780
ENDCHAR
STARTCHAR 01E9
ENCODING 489
SWIDTH 550 0
DWIDTH 22 0
BBX 18 34 4 0
BITMAP
1C1C00
0F7800
07F000
01C000
000000
000000
E00000
E00000
E00000
E00000
E00000
E00000
E00000
E00000
E01F00
E01E00
E03C00
E07800
E0F000
E1E000
E3C000
E78000
EF0000
FE0000
EF0000
E78000
E3C000
E1E000
E0F000
E07800
E03C00
E01E00
E00F00
E007C0
ENDCHAR
STARTCHAR 01EA
ENCODING 490
SWIDTH 550 0
DWIDTH 22 0
BBX 20 34 1 -8
BITMAP
01F800
07FF00
0FFF80
1E07C0
3C03C0
3801E0
7000E0
7000E0
F000F0
E00070
E00070
E00070
E00070
E00070
E00070
E00070
E00070
E000F0
7000E0
7000E0
7801C0
3C03C0
3E0780
1FFF00
0FFE00
03F800
007000
00E000
01C000
01C000
01C000
01C000
00F800
007800
ENDCHAR
STARTCHAR 01EB
ENCODING 491
SWIDTH 550 0
DWIDTH 22 0
BBX 18 28 2 -8
BITMAP
03F000
0FFC00
1FFF00
3C0F00
780780
700380
F003C0
E001C0
E001C0
E001C0
E001C0
E001C0
E001C0
F003C0
700380
780780
3C1F00
3FFE00
0FFC00
03F000
007000
00E000
01C000
01C000
01C000
01C000
00F800
007800
ENDCHAR
STARTCHAR 01EC
ENCODING 492
SWIDTH 550 0
DWIDTH 22 0
BBX 20 40 1 -8
BITMAP
0FFE00
0FFE00
0FFE00
000000
000000
000000
01F800
07FF00
0FFF80
1E07C0
3C03C0
3801E0
7000E0
7000E0
F000F0
E00070
E00070
E00070
E00070
E00070
E00070
E00070
E00070
E000F0
7000E0
7000E0
7801C0
3C03C0
3E0780
1FFF00
0FFE00
03F800
007000
00E000
01C000
01C000
01C000
01C000
00F800
007800
ENDCHAR
STARTCHAR 01ED
ENCODING 493
SWIDTH 550 0
DWIDTH 22 0
BBX 18 35 2 -8
BITMAP
0FFC00
0FFC00
0FFC00
000000
000000
000000
000000
03F000
0FFC00
1FFF00
3C0F00
780780
700380
F003C0
E001C0
E001C0
E001C0
E001C0
E001C0
E001C0
F003C0
700380
780780
3C1F00
3FFE00
0FFC00
03F000
007000
00E000
01C000
01C000
01C000
01C000
00F800
007800
ENDCHAR
STARTCHAR 01EE
ENCODING 494
SWIDTH 550 0
DWIDTH 22 0
BBX 15 33 3 0
BITMAP
1C1C
0F78
07F0
01C0
0000
0000
0000
FFFC
FFFC
FFFC
003C
0078
00F0
01E0
03C0
0780
0700
0FC0
0FF0
0FF8
007C
001C
001E
000E
000E
000E
000E
001E
001C
007C
FFF8
FFE0
FF80
ENDCHAR
STARTCHAR 01EF
ENCODING 495
SWIDTH 550 0
DWIDTH 22 0
BBX 15 34 4 -6
BITMAP
3838
1C70
0FE0
07C0
0380
0000
0000
0000
FFFC
FFFC
FFFC
0078
0070
00E0
01C0
0380
0700
0F00
1F80
1FF0
1FF8
00FC
003C
001E
000E
000E
000E
000E
001E
001C
007C
FFF8
FFE0
FF80
ENDCHAR
STARTCHAR 01F0
ENCODING 496
SWIDTH 550 0
DWIDTH 22 0
BBX 13 36 3 -8
BITMAP
3838
1C70
0FE0
07C0
0380
0000
0000
0000
7FF8
7FF8
7FF8
0038
0038
0038
0038
0038
0038
0038
0038
0038
0038
0038
0038
0038
0038
0038
0038
0038
0038
0038
0078
0070
C0F0
FFE0
FFC0
7F00
ENDCHAR
STARTCHAR 01F1
ENCODING 497
SWIDTH 550 0
DWIDTH 22 0
BBX 19 26 2 0
BITMAP
FC3FE0
FF3FE0
FFBFE0
E780E0
E3C0E0
E1C1C0
E1C1C0
E0E1C0
E0E380
E0E380
E0E380
E0E700
E0E700
E0E700
E0E700
E0EE00
E0EE00
E0EE00
E1DC00
E1DC00
E1DC00
E39800
E7B800
FF3FE0
FE3FE0
F83FE0
ENDCHAR
STARTCHAR 01F2
ENCODING 498
SWIDTH 550 0
DWIDTH 22 0
BBX 19 26 2 0
BITMAP
F80000
FE0000
FF0000
E70000
E38000
E38000
E39FE0
E1DFE0
E1DFE0
E1C0E0
E1C1C0
E1C1C0
E1C1C0
E1C380
E1C380
E1C380
E1C700
E1C700
E1C700
E38E00
E38E00
E38E00
E71C00
FE1FE0
FE1FE0
F81FE0
ENDCHAR
STARTCHAR 01F3
ENCODING 499
SWIDTH 550 0
DWIDTH 22 0
BBX 20 28 1 0
BITMAP
01C000
01C000
01C000
01C000
01C000
01C000
01C000
01C000
1FCFF0
3FCFF0
7FCFF0
71C070
71C0E0
E1C0E0
E1C0E0
E1C1C0
E1C1C0
E1C1C0
E1C380
E1C380
E1C380
E1C700
E1C700
E1C700
71CE00
7FCFF0
3FCFF0
1ECFF0
ENDCHAR
STARTCHAR 01F4
ENCODING 500
SWIDTH 550 0
DWIDTH 22 0
BBX 18 33 1 0
BITMAP
001F00
003E00
007800
00F000
000000
000000
000000
00FE00
03FF80
0FFFC0
1F81C0
3E0040
3C0000
7C0000
780000
780000
F00000
F00000
F03FC0
F03FC0
F03FC0
F001C0
F001C0
F001C0
F801C0
7801C0
7801C0
7C01C0
3E01C0
1F81C0
0FFFC0
07FFC0
01FE00
ENDCHAR
STARTCHAR 01F5
ENCODING 501
SWIDTH 550 0
DWIDTH 22 0
BBX 19 36 2 -8
BITMAP
007C00
00F800
01F000
03C000
078000
000000
000000
000000
07FFC0
0FFFC0
1FFFC0
3C1E00
780F00
700700
700700
700700
700700
780F00
3C1E00
3FFC00
3FF800
77F000
700000
700000
7C0000
7FFE00
3FFF80
3FFFC0
7803E0
F001E0
F001E0
F003E0
FC07C0
7FFF80
3FFF00
0FFC00
ENDCHAR
STARTCHAR 01F6
ENCODING 502
SWIDTH 550 0
DWIDTH 22 0
BBX 18 26 2 0
BITMAP
E0E000
E0E000
E0E000
E0E000
E0E000
E0E000
E0E1C0
E0E1C0
E0E1C0
E0E1C0
E0E1C0
FFE1C0
FFE1C0
FFE1C0
E0E1C0
E0E1C0
E0E1C0
E0E1C0
E0E1C0
E0E1C0
E0E1C0
E0E1C0
E0F3C0
E07F80
E07F80
E01E00
ENDCHAR
STARTCHAR 01F7
ENCODING 503
SWIDTH 550 0
DWIDTH 22 0
BBX 18 34 2 -8
BITMAP
E1F800
E7FE00
FFFF00
FC0F80
F00780
E003C0
E003C0
E003C0
E003C0
E003C0
E003C0
E003C0
E00780
E00780
E00780
E00F00
E00F00
E01E00
E03C00
E07800
E1F000
E3E000
EFC000
FF0000
FC0000
F00000
E00000
E00000
E00000
E00000
E00000
E00000
E00000
E00000
ENDCHAR
STARTCHAR 01F8
ENCODING 504
SWIDTH 550 0
DWIDTH 22 0
BBX 18 33 2 0
BITMAP
0F8000
07C000
01E000
00F000
000000
000000
000000
F801C0
F801C0
FC01C0
FC01C0
FE01C0
EE01C0
EF01C0
E701C0
E781C0
E781C0
E3C1C0
E3C1C0
E1E1C0
E1E1C0
E0E1C0
E0F1C0
E071C0
E079C0
E039C0
E03DC0
E01DC0
E01FC0
E00FC0
E00FC0
E007C0
E007C0
ENDCHAR
STARTCHAR 01F9
ENCODING 505
SWIDTH 550 0
DWIDTH 22 0
BBX 15 28 3 0
BITMAP
3C00
1E00
0F00
0780
03C0
0000
0000
0000
E3F0
E7F8
FFFC
FE3C
F81E
F00E
E00E
E00E
E00E
E00E
E00E
E00E
E00E
E00E
E00E
E00E
E00E
E00E
E00E
E00E
ENDCHAR
STARTCHAR 01FA
ENCODING 506
SWIDTH 550 0
DWIDTH 22 0
BBX 21 37 0 0
BITMAP
0007C0
001E00
000000
007800
00FC00
018600
018600
018600
00FC00
007800
000000
00F800
00F800
01FC00
01DC00
01DC00
03DE00
038E00
038E00
078F00
070700
070700
0F0780
0E0380
0E0380
1E03C0
1C03C0
1C01C0
3FFFE0
3FFFE0
3FFFE0
7800F0
7800F0
700070
F00078
F00078
E00038
ENDCHAR
STARTCHAR 01FB
ENCODING 507
SWIDTH 550 0
DWIDTH 22 0
BBX 16 35 3 0
BITMAP
007C
00F8
01E0
03C0
0000
03C0
07E0
0E70
0C30
0C30
0E70
07E0
03C0
0000
0000
0FF0
3FFC
3FFE
301E
000F
0007
0007
0007
07FF
1FFF
7FFF
7C07
F807
F007
F007
F01F
F87F
7FFF
3FF7
1FC7
ENDCHAR
STARTCHAR 01FC
ENCODING 508
SWIDTH 550 0
DWIDTH 22 0
BBX 22 33 -1 0
BITMAP
0003E0
0007C0
000F00
001E00
000000
000000
000000
003FFC
003FFC
007FFC
007E00
00EE00
00EE00
00EE00
01CE00
01CE00
038E00
038E00
038FF8
070FF8
070FF8
0F0E00
0E0E00
0E0E00
1FFE00
1FFE00
1FFE00
380E00
380E00
780E00
700FFC
700FFC
F00FFC
ENDCHAR
STARTCHAR 01FD
ENCODING 509
SWIDTH 550 0
DWIDTH 22 0
BBX 21 28 1 0
BITMAP
000F80
001F00
003E00
007800
00F000
000000
000000
000000
1F87C0
7FCFE0
7FFFF0
60FC70
007878
007038
007038
007038
1FFFF8
3FFFF8
7FFFF8
F07000
E07000
E07000
E07000
E0F800
F1FC10
7FBFF0
7F1FF0
3E07E0
ENDCHAR
STARTCHAR 01FE
ENCODING 510
SWIDTH 550 0
DWIDTH 22 0
BBX 20 37 1 -4
BITMAP
007C00
00F800
01E000
03C380
000380
000700
000700
01FF00
07FF00
0FFF80
1F0FC0
3C1FC0
3C1DE0
781DE0
7839E0
F038F0
F038F0
F070F0
F070F0
F070F0
F0E0F0
F0E0F0
F0E0F0
F1C0F0
F1C1F0
F9C1E0
7B81E0
7B83C0
7F83C0
3F0F80
1FFF00
0FFE00
0FF800
0E0000
0E0000
1C0000
1C0000
ENDCHAR
STARTCHAR 01FF
ENCODING 511
SWIDTH 550 0
DWIDTH 22 0
BBX 18 32 2 -4
BITMAP
007C00
00F800
01F000
03C000
078E00
000E00
001C00
001C00
03FC00
0FFC00
1FFF00
3C3F00
787780
707380
F073C0
E0E1C0
E0E1C0
E0E1C0
E1C1C0
E1C1C0
E1C1C0
F383C0
738380
7B8780
3F0F00
3FFE00
0FFC00
0FF000
0E0000
0E0000
1C0000
1C0000
ENDCHAR
STARTCHAR 0200
ENCODING 512
SWIDTH 550 0
DWIDTH 22 0
BBX 21 33 0 0
BITMAP
3C1E00
1E0F00
0F0780
0383C0
000000
000000
000000
00F800
00F800
01FC00
01DC00
01DC00
03DE00
038E00
038E00
078F00
070700
070700
0F0780
0E0380
0E0380
1E03C0
1C03C0
1C01C0
3FFFE0
3FFFE0
3FFFE0
7800F0
7800F0
700070
F00078
F00078
E00038
ENDCHAR
STARTCHAR 0201
ENCODING 513
SWIDTH 550 0
DWIDTH 22 0
BBX 18 28 1 0
BITMAP
F0F000
787800
3C3C00
1E1E00
0F0F00
000000
000000
000000
03FC00
0FFF00
0FFF80
0C0780
0003C0
0001C0
0001C0
0001C0
01FFC0
07FFC0
1FFFC0
1F01C0
3E01C0
3C01C0
3C01C0
3C07C0
3E1FC0
1FFFC0
0FFDC0
07F1C0
ENDCHAR
STARTCHAR 0202
ENCODING 514
SWIDTH 550 0
DWIDTH 22 0
BBX 21 33 0 0
BITMAP
007800
01FE00
03FE00
038700
038700
000000
000000
00F800
00F800
01FC00
01DC00
01DC00
03DE00
038E00
038E00
078F00
070700
070700
0F0780
0E0380
0E0380
1E03C0
1C03C0
1C01C0
3FFFE0
3FFFE0
3FFFE0
7800F0
7800F0
700070
F00078
F00078
E00038
ENDCHAR
STARTCHAR 0203
ENCODING 515
SWIDTH 550 0
DWIDTH 22 0
BBX 16 28 3 0
BITMAP
03C0
0FF0
0FF0
1E78
1C38
0000
0000
0000
0FF0
3FFC
3FFE
301E
000F
0007
0007
0007
07FF
1FFF
7FFF
7C07
F807
F007
F007
F01F
F87F
7FFF
3FF7
1FC7
ENDCHAR
STARTCHAR 0204
ENCODING 516
SWIDTH 550 0
DWIDTH 22 0
BBX 17 33 2 0
BITMAP
F07800
783C00
3C1E00
0E0F00
000000
000000
000000
3FFF80
3FFF80
3FFF80
380000
380000
380000
380000
380000
380000
380000
380000
3FFF80
3FFF80
3FFF80
380000
380000
380000
380000
380000
380000
380000
380000
380000
3FFF80
3FFF80
3FFF80
ENDCHAR
STARTCHAR 0205
ENCODING 517
SWIDTH 550 0
DWIDTH 22 0
BBX 18 28 1 0
BITMAP
F0F000
787800
3C3C00
1E1E00
0F0F00
000000
000000
000000
01F800
07FE00
0FFF00
1E0F80
3C0380
3803C0
7001C0
7001C0
7FFFC0
7FFFC0
7FFFC0
700000
700000
700000
380000
3C0000
1E0180
1FFF80
07FF80
01FE00
ENDCHAR
STARTCHAR 0206
ENCODING 518
SWIDTH 550 0
DWIDTH 22 0
BBX 15 33 4 0
BITMAP
0780
1FE0
3FE0
3870
3870
0000
0000
FFFE
FFFE
FFFE
E000
E000
E000
E000
E000
E000
E000
E000
FFFE
FFFE
FFFE
E000
E000
E000
E000
E000
E000
E000
E000
E000
FFFE
FFFE
FFFE
ENDCHAR
STARTCHAR 0207
ENCODING 519
SWIDTH 550 0
DWIDTH 22 0
BBX 17 28 2 0
BITMAP
01E000
07F800
07F800
0F3C00
0E1C00
000000
000000
000000
03F000
0FFC00
1FFE00
3C1F00
780700
700780
E00380
E00380
FFFF80
FFFF80
FFFF80
E00000
E00000
E00000
700000
780000
3C0300
3FFF00
0FFF00
03FC00
ENDCHAR
STARTCHAR 0208
ENCODING 520
SWIDTH 550 0
DWIDTH 22 0
BBX 16 33 2 0
BITMAP
F078
783C
3C1E
0E0F
0000
0000
0000
7FFF
7FFF
7FFF
01C0
01C0
01C0
01C0
01C0
01C0
01C0
01C0
01C0
01C0
01C0
01C0
01C0
01C0
01C0
01C0
01C0
01C0
01C0
01C0
7FFF
7FFF
7FFF
ENDCHAR
STARTCHAR 0209
ENCODING 521
SWIDTH 550 0
DWIDTH 22 0
BBX 18 28 1 0
BITMAP
F0F000
787800
3C3C00
1E1E00
0F0F00
000000
000000
000000
1FF000
1FF000
1FF000
007000
007000
007000
007000
007000
007000
007000
007000
007000
007000
007000
007000
007000
007000
3FFFC0
3FFFC0
3FFFC0
ENDCHAR
STARTCHAR 020A
ENCODING 522
SWIDTH 550 0
DWIDTH 22 0
BBX 15 33 3 0
BITMAP
03C0
0FF0
1FF0
1C38
1C38
0000
0000
FFFE
FFFE
FFFE
0380
0380
0380
0380
0380
0380
0380
0380
0380
0380
0380
0380
0380
0380
0380
0380
0380
0380
0380
0380
FFFE
FFFE
FFFE
ENDCHAR
STARTCHAR 020B
ENCODING 523
SWIDTH 550 0
DWIDTH 22 0
BBX 16 28 3 0
BITMAP
03C0
0FF0
0FF0
1E78
1C38
0000
0000
0000
7FC0
7FC0
7FC0
01C0
01C0
01C0
01C0
01C0
01C0
01C0
01C0
01C0
01C0
01C0
01C0
01C0
01C0
FFFF
FFFF
FFFF
ENDCHAR
STARTCHAR 020C
ENCODING 524
SWIDTH 550 0
DWIDTH 22 0
BBX 20 33 1 0
BITMAP
783C00
3C1E00
1E0F00
070780
000000
000000
000000
01F800
07FF00
0FFF80
1E07C0
3C03C0
3801E0
7000E0
7000E0
F000F0
E00070
E00070
E00070
E00070
E00070
E00070
E00070
E00070
E000F0
7000E0
7000E0
7801C0
3C03C0
3E0780
1FFF00
0FFE00
03F800
ENDCHAR
STARTCHAR 020D
ENCODING 525
SWIDTH 550 0
DWIDTH 22 0
BBX 19 28 1 0
BITMAP
F0F000
787800
3C3C00
1E1E00
0F0F00
000000
000000
000000
01F800
07FE00
0FFF80
1E0780
3C03C0
3801C0
7801E0
7000E0
7000E0
7000E0
7000E0
7000E0
7000E0
7801E0
3801C0
3C03C0
1E0F80
1FFF00
07FE00
01F800
ENDCHAR
STARTCHAR 020E
ENCODING 526
SWIDTH 550 0
DWIDTH 22 0
BBX 20 33 1 0
BITMAP
00F000
03FC00
07FC00
070E00
070E00
000000
000000
01F800
07FF00
0FFF80
1E07C0
3C03C0
3801E0
7000E0
7000E0
F000F0
E00070
E00070
E00070
E00070
E00070
E00070
E00070
E00070
E000F0
7000E0
7000E0
7801C0
3C03C0
3E0780
1FFF00
0FFE00
03F800
ENDCHAR
STARTCHAR 020F
ENCODING 527
SWIDTH 550 0
DWIDTH 22 0
BBX 18 28 2 0
BITMAP
01E000
07F800
07F800
0F3C00
0E1C00
000000
000000
000000
03F000
0FFC00
1FFF00
3C0F00
780780
700380
F003C0
E001C0
E001C0
E001C0
E001C0
E001C0
E001C0
F003C0
700380
780780
3C1F00
3FFE00
0FFC00
03F000
ENDCHAR
STARTCHAR 0210
ENCODING 528
SWIDTH 550 0
DWIDTH 22 0
BBX 19 33 2 0
BITMAP
F07800
783C00
3C1E00
0E0F00
000000
000000
000000
7FF000
7FFC00
7FFE00
703F00
700F80
700780
700780
700780
700780
700F80
700F00
703F00
7FFE00
7FF800
7FF000
70F800
703C00
701E00
701E00
700F00
700F00
700780
700780
7003C0
7003C0
7001E0
ENDCHAR
STARTCHAR 0211
ENCODING 529
SWIDTH 550 0
DWIDTH 22 0
BBX 19 28 1 0
BITMAP
F0F000
787800
3C3C00
1E1E00
0F0F00
000000
000000
000000
1C3E00
1CFF80
1DFFC0
1FE3C0
1F81E0
1F00E0
1E00E0
1C00E0
1C0000
1C0000
1C0000
1C0000
1C0000
1C0000
1C0000
1C0000
1C0000
1C0000
1C0000
1C0000
ENDCHAR
STARTCHAR 0212
ENCODING 530
SWIDTH 550 0
DWIDTH 22 0
BBX 18 33 3 0
BITMAP
03C000
0FF000
1FF000
1C3800
1C3800
000000
000000
FFE000
FFF800
FFFC00
E07E00
E01F00
E00F00
E00F00
E00F00
E00F00
E01F00
E01E00
E07E00
FFFC00
FFF000
FFE000
E1F000
E07800
E03C00
E03C00
E01E00
E01E00
E00F00
E00F00
E00780
E00780
E003C0
ENDCHAR
STARTCHAR 0213
ENCODING 531
SWIDTH 550 0
DWIDTH 22 0
BBX 16 28 4 0
BITMAP
0780
1FE0
1FE0
3CF0
3870
0000
0000
0000
E1F0
E7FC
EFFE
FF1E
FC0F
F807
F007
E007
E000
E000
E000
E000
E000
E000
E000
E000
E000
E000
E000
E000
ENDCHAR
STARTCHAR 0214
ENCODING 532
SWIDTH 550 0
DWIDTH 22 0
BBX 17 33 2 0
BITMAP
F07800
783C00
3C1E00
0E0F00
000000
000000
000000
E00380
E00380
E00380
E00380
E00380
E00380
E00380
E00380
E00380
E00380
E00380
E00380
E00380
E00380
E00380
E00380
E00380
E00380
E00380
E00380
F00700
700700
7C1F00
3FFE00
1FFC00
07F000
ENDCHAR
STARTCHAR 0215
ENCODING 533
SWIDTH 550 0
DWIDTH 22 0
BBX 17 28 1 0
BITMAP
F0F000
787800
3C3C00
1E1E00
0F0F00
000000
000000
000000
380380
380380
380380
380380
380380
380380
380380
380380
380380
380380
380380
380380
380380
380380
380780
3C0F80
1E3F80
1FFF80
0FF380
07E380
ENDCHAR
STARTCHAR 0216
ENCODING 534
SWIDTH 550 0
DWIDTH 22 0
BBX 17 33 2 0
BITMAP
01E000
07F800
0FF800
0E1C00
0E1C00
000000
000000
E00380
E00380
E00380
E00380
E00380
E00380
E00380
E00380
E00380
E00380
E00380
E00380
E00380
E00380
E00380
E00380
E00380
E00380
E00380
E00380
F00700
700700
7C1F00
3FFE00
1FFC00
07F000
ENDCHAR
STARTCHAR 0217
ENCODING 535
SWIDTH 550 0
DWIDTH 22 0
BBX 15 28 3 0
BITMAP
03C0
0FF0
0FF0
1E78
1C38
0000
0000
0000
E00E
E00E
E00E
E00E
E00E
E00E
E00E
E00E
E00E
E00E
E00E
E00E
E00E
E00E
E01E
F03E
78FE
7FFE
3FCE
1F8E
ENDCHAR
STARTCHAR 0218
ENCODING 536
SWIDTH 550 0
DWIDTH 22 0
BBX 17 34 2 -8
BITMAP
07F800
1FFE00
3FFE00
7C0600
F80000
F00000
F00000
F00000
F80000
7C0000
7F0000
3FC000
1FF000
07FC00
00FE00
003F00
000F80
000780
000780
000780
000780
000F00
C01F00
FFFE00
FFFC00
3FE000
000000
000000
00E000
01E000
01C000
01C000
03C000
038000
ENDCHAR
STARTCHAR 0219
ENCODING 537
SWIDTH 550 0
DWIDTH 22 0
BBX 15 28 4 -8
BITMAP
07F0
3FFC
7FFC
F80C
E000
E000
E000
F800
7F00
3FE0
0FF8
01FC
003E
000E
000E
000E
C03E
FFFC
FFF8
3FC0
0000
0000
0380
0780
0700
0700
0F00
0E00
ENDCHAR
STARTCHAR 021A
ENCODING 538
SWIDTH 550 0
DWIDTH 22 0
BBX 19 34 1 -8
BITMAP
FFFFE0
FFFFE0
FFFFE0
00E000
00E000
00E000
00E000
00E000
00E000
00E000
00E000
00E000
00E000
00E000
00E000
00E000
00E000
00E000
00E000
00E000
00E000
00E000
00E000
00E000
00E000
00E000
000000
000000
007000
00F000
00E000
00E000
01E000
01C000
ENDCHAR
STARTCHAR 021B
ENCODING 539
SWIDTH 550 0
DWIDTH 22 0
BBX 18 34 1 -8
BITMAP
018000
038000
038000
038000
038000
038000
FFFFC0
FFFFC0
FFFFC0
038000
038000
038000
038000
038000
038000
038000
038000
038000
038000
038000
038000
038000
03E040
01FFC0
00FFC0
007F80
000000
000000
007000
00F000
00E000
00E000
01E000
01C000
ENDCHAR
STARTCHAR 021C
ENCODING 540
SWIDTH 550 0
DWIDTH 22 0
BBX 15 26 3 0
BITMAP
FFFC
FFFC
FFFC
003C
0078
00F0
01E0
03C0
0780
0700
0FC0
0FF0
0FF8
007C
001C
001E
000E
000E
000E
000E
001E
001C
007C
FFF8
FFE0
FF80
ENDCHAR
STARTCHAR 021D
ENCODING 541
SWIDTH 550 0
DWIDTH 22 0
BBX 15 26 4 -6
BITMAP
FFFC
FFFC
FFFC
0078
0070
00E0
01C0
0380
0700
0F00
1F80
1FF0
1FF8
00FC
003C
001E
000E
000E
000E
000E
001E
001C
007C
FFF8
FFE0
FF80
ENDCHAR
STARTCHAR 021E
ENCODING 542
SWIDTH 550 0
DWIDTH 22 0
BBX 18 33 2 0
BITMAP
0E0E00
07BC00
03F800
00E000
000000
000000
000000
E001C0
E001C0
E001C0
E001C0
E001C0
E001C0
E001C0
E001C0
E001C0
E001C0
E001C0
FFFFC0
FFFFC0
FFFFC0
E001C0
E001C0
E001C0
E001C0
E001C0
E001C0
E001C0
E001C0
E001C0
E001C0
E001C0
E001C0
ENDCHAR
STARTCHAR 021F
ENCODING 543
SWIDTH 550 0
DWIDTH 22 0
BBX 15 33 3 0
BITMAP
1C1C
0F78
07F0
01C0
0000
E000
E000
E000
E000
E000
E000
E000
E000
E3F0
E7F8
EFFC
FE3C
F81E
F00E
E00E
E00E
E00E
E00E
E00E
E00E
E00E
E00E
E00E
E00E
E00E
E00E
E00E
E00E
ENDCHAR
STARTCHAR 0220
ENCODING 544
SWIDTH 550 0
DWIDTH 22 0
BBX 17 34 2 -8
BITMAP
E1F800
E7FE00
EFFF00
FE0F00
FC0780
F00380
E00380
E00380
E00380
E00380
E00380
E00380
E00380
E00380
E00380
E00380
E00380
E00380
E00380
E00380
E00380
E00380
E00380
E00380
E00380
E00380
000380
000380
000380
000380
000380
000380
000380
000380
ENDCHAR
STARTCHAR 0221
ENCODING 545
SWIDTH 550 0
DWIDTH 22 0
BBX 25 35 2 -7
BITMAP
00070000
00070000
00070000
00070000
00070000
00070000
00070000
00070000
03FF0000
0FFF0000
1FFF0000
3C0F0000
78070000
70070000
F0070000
E0070000
E0070000
E0070000
E0070000
E0070000
E0070000
E00F0000
F01F0000
703F0000
787F0000
3FF70000
1FE70000
0F873E00
0007FF00
0007FF80
0003C380
00038380
0007C780
0007FF00
00073E00
ENDCHAR
STARTCHAR 0222
ENCODING 546
SWIDTH 550 0
DWIDTH 22 0
BBX 17 26 2 0
BITMAP
380E00
700700
700700
700700
700700
780F00
380E00
1C1C00
0F7800
07F000
03E000
07F000
1F7C00
3C1E00
780E00
700700
E00780
E00380
E00380
E00380
E00380
F00780
780F00
3FFE00
1FFC00
07F000
ENDCHAR
STARTCHAR 0223
ENCODING 547
SWIDTH 550 0
DWIDTH 22 0
BBX 17 28 2 0
BITMAP
380E00
700700
700700
700700
700700
780F00
380E00
1C1C00
0F7800
07F000
03E000
07F000
0F7800
1C3C00
381E00
780F00
700700
700700
E00380
E00380
E00380
E00380
E00780
700700
7C1F00
3FFE00
1FFC00
07F000
ENDCHAR
STARTCHAR 0224
ENCODING 548
SWIDTH 550 0
DWIDTH 22 0
BBX 18 34 2 -8
BITMAP
FFFFC0
FFFFC0
FFFFC0
000380
000780
000F00
000E00
001E00
003C00
003800
007800
00F000
00E000
01E000
03C000
038000
070000
0F0000
1E0000
1C0000
3C0000
780000
700000
FFFFC0
FFFFC0
FFFFC0
0001C0
0001C0
0001C0
0001C0
0003C0
001FC0
001F80
001F00
ENDCHAR
STARTCHAR 0225
ENCODING 549
SWIDTH 550 0
DWIDTH 22 0
BBX 16 28 3 -8
BITMAP
FFFE
FFFE
FFFE
001C
003C
0078
00F0
00E0
01E0
03C0
0780
0F00
0F00
1E00
3C00
7800
7000
FFFF
FFFF
FFFF
0007
0007
0007
0007
000F
00FE
00FE
00F8
ENDCHAR
STARTCHAR 0226
ENCODING 550
SWIDTH 550 0
DWIDTH 22 0
BBX 21 33 0 0
BITMAP
003800
007C00
007C00
007C00
003800
000000
000000
00F800
00F800
01FC00
01DC00
01DC00
03DE00
038E00
038E00
078F00
070700
070700
0F0780
0E0380
0E0380
1E03C0
1C03C0
1C01C0
3FFFE0
3FFFE0
3FFFE0
7800F0
7800F0
700070
F00078
F00078
E00038
ENDCHAR
STARTCHAR 0227
ENCODING 551
SWIDTH 550 0
DWIDTH 22 0
BBX 16 28 3 0
BITMAP
0380
07C0
07C0
07C0
0380
0000
0000
0000
0FF0
3FFC
3FFE
301E
000F
0007
0007
0007
07FF
1FFF
7FFF
7C07
F807
F007
F007
F01F
F87F
7FFF
3FF7
1FC7
ENDCHAR
STARTCHAR 0228
ENCODING 552
SWIDTH 550 0
DWIDTH 22 0
BBX 15 32 4 -6
BITMAP
FFFE
FFFE
FFFE
E000
E000
E000
E000
E000
E000
E000
E000
FFFE
FFFE
FFFE
E000
E000
E000
E000
E000
E000
E000
E000
E000
FFFE
FFFE
FFFE
0380
0780
0700
0700
0F00
0E00
ENDCHAR
STARTCHAR 0229
ENCODING 553
SWIDTH 550 0
DWIDTH 22 0
BBX 17 26 2 -6
BITMAP
03F000
0FFC00
1FFE00
3C1F00
780700
700780
E00380
E00380
FFFF80
FFFF80
FFFF80
E00000
E00000
E00000
700000
780000
3C0300
3FFF00
0FFF00
03FC00
00E000
01E000
01C000
01C000
03C000
038000
ENDCHAR
STARTCHAR 022A
ENCODING 554
SWIDTH 550 0
DWIDTH 22 0
BBX 20 38 1 0
BITMAP
07FE00
07FE00
07FE00
000000
000000
060600
0F0F00
0F0F00
060600
000000
000000
000000
01F800
07FF00
0FFF80
1E07C0
3C03C0
3801E0
7000E0
7000E0
F000F0
E00070
E00070
E00070
E00070
E00070
E00070
E00070
E00070
E000F0
7000E0
7000E0
7801C0
3C03C0
3E0780
1FFF00
0FFE00
03F800
ENDCHAR
STARTCHAR 022B
ENCODING 555
SWIDTH 550 0
DWIDTH 22 0
BBX 18 31 2 0
BITMAP
0FFC00
0FFC00
0FFC00
000000
000000
0C0C00
1E1E00
1E1E00
0C0C00
000000
000000
03F000
0FFC00
1FFF00
3C0F00
780780
700380
F003C0
E001C0
E001C0
E001C0
E001C0
E001C0
E001C0
F003C0
700380
780780
3C1F00
3FFE00
0FFC00
03F000
ENDCHAR
STARTCHAR 022C
ENCODING 556
SWIDTH 550 0
DWIDTH 22 0
BBX 20 37 1 0
BITMAP
0FFF00
0FFF00
0FFF00
000000
07C100
0FE380
1FFF00
1C7F00
083E00
000000
000000
01F800
07FF00
0FFF80
1E07C0
3C03C0
3801E0
7000E0
7000E0
F000F0
E00070
E00070
E00070
E00070
E00070
E00070
E00070
E00070
E000F0
7000E0
7000E0
7801C0
3C03C0
3E0780
1FFF00
0FFE00
03F800
ENDCHAR
STARTCHAR 022D
ENCODING 557
SWIDTH 550 0
DWIDTH 22 0
BBX 18 33 2 0
BITMAP
0FFC00
0FFC00
0FFC00
000000
000000
0F8200
1FC700
3FFF00
38FE00
107C00
000000
000000
000000
03F000
0FFC00
1FFF00
3C0F00
780780
700380
F003C0
E001C0
E001C0
E001C0
E001C0
E001C0
E001C0
F003C0
700380
780780
3C1F00
3FFE00
0FFC00
03F000
ENDCHAR
STARTCHAR 022E
ENCODING 558
SWIDTH 550 0
DWIDTH 22 0
BBX 20 33 1 0
BITMAP
007000
00F800
00F800
00F800
007000
000000
000000
01F800
07FF00
0FFF80
1E07C0
3C03C0
3801E0
7000E0
7000E0
F000F0
E00070
E00070
E00070
E00070
E00070
E00070
E00070
E00070
E000F0
7000E0
7000E0
7801C0
3C03C0
3E0780
1FFF00
0FFE00
03F800
ENDCHAR
STARTCHAR 022F
ENCODING 559
SWIDTH 550 0
DWIDTH 22 0
BBX 18 28 2 0
BITMAP
01C000
03E000
03E000
03E000
01C000
000000
000000
000000
03F000
0FFC00
1FFF00
3C0F00
780780
700380
F003C0
E001C0
E001C0
E001C0
E001C0
E001C0
E001C0
F003C0
700380
780780
3C1F00
3FFE00
0FFC00
03F000
ENDCHAR
STARTCHAR 0230
ENCODING 560
SWIDTH 550 0
DWIDTH 22 0
BBX 20 38 1 0
BITMAP
0FFE00
0FFE00
0FFE00
000000
000000
000000
00C000
01E000
01E000
00C000
000000
000000
01F800
07FF00
0FFF80
1E07C0
3C03C0
3801E0
7000E0
7000E0
F000F0
E00070
E00070
E00070
E00070
E00070
E00070
E00070
E00070
E000F0
7000E0
7000E0
7801C0
3C03C0
3E0780
1FFF00
0FFE00
03F800
ENDCHAR
STARTCHAR 0231
ENCODING 561
SWIDTH 550 0
DWIDTH 22 0
BBX 18 31 2 0
BITMAP
0FFC00
0FFC00
0FFC00
000000
000000
018000
03C000
03C000
018000
000000
000000
03F000
0FFC00
1FFF00
3C0F00
780780
700380
F003C0
E001C0
E001C0
E001C0
E001C0
E001C0
E001C0
F003C0
700380
780780
3C1F00
3FFE00
0FFC00
03F000
ENDCHAR
STARTCHAR 0232
ENCODING 562
SWIDTH 550 0
DWIDTH 22 0
BBX 21 32 0 0
BITMAP
07FF00
07FF00
07FF00
000000
000000
000000
F00078
7800F0
7800F0
3C01E0
3C01E0
1E03C0
1E03C0
0F0780
070780
078F00
038E00
03CE00
01DC00
01FC00
00F800
00F800
007000
007000
007000
007000
007000
007000
007000
007000
007000
007000
ENDCHAR
STARTCHAR 0233
ENCODING 563
SWIDTH 550 0
DWIDTH 22 0
BBX 19 35 1 -8
BITMAP
07FE00
07FE00
07FE00
000000
000000
000000
000000
7800E0
7801E0
3801E0
3C01C0
3C03C0
1C03C0
1E0380
0E0780
0F0700
0F0700
070F00
078E00
038E00
039E00
03DC00
01DC00
01F800
00F800
00F800
00F000
00F000
00E000
01E000
03C000
07C000
FF8000
FF0000
F80000
ENDCHAR
STARTCHAR 0234
ENCODING 564
SWIDTH 550 0
DWIDTH 22 0
BBX 18 36 4 -8
BITMAP
FF8000
FF8000
FF8000
038000
038000
038000
038000
038000
038000
038000
038000
038000
038000
038000
038000
038000
038000
038000
038000
038000
038000
038000
038000
038000
038000
038000
038000
038000
039F00
03FF80
03E3C0
01C1C0
01C1C0
03E3C0
03FF80
039F00
ENDCHAR
STARTCHAR 0235
ENCODING 565
SWIDTH 550 0
DWIDTH 22 0
BBX 24 28 3 -8
BITMAP
E1F000
E7F800
EFFC00
FE3C00
F81E00
F00E00
E00E00
E00E00
E00E00
E00E00
E00E00
E00E00
E00E00
E00E00
E00E00
E00E00
E00E00
E00E00
E00E00
E00E00
000E7C
000FFE
000F8F
000707
000707
000F8F
000FFE
000E7C
ENDCHAR
STARTCHAR 0236
ENCODING 566
SWIDTH 550 0
DWIDTH 22 0
BBX 17 34 2 -8
BITMAP
030000
070000
070000
070000
070000
070000
FFFF80
FFFF80
FFFF80
070000
070000
070000
070000
070000
070000
070000
070000
070000
070000
070000
070000
070000
070000
070000
070000
070000
073E00
07FF00
07C780
038380
038380
07C780
07FF00
073E00
ENDCHAR
STARTCHAR 0237
ENCODING 567
SWIDTH 550 0
DWIDTH 22 0
BBX 13 28 3 -8
BITMAP
7FF8
7FF8
7FF8
0038
0038
0038
0038
0038
0038
0038
0038
0038
0038
0038
0038
0038
0038
0038
0038
0038
0038
0038
0078
0070
C0F0
FFE0
FFC0
7F00
ENDCHAR
STARTCHAR 0238
ENCODING 568
SWIDTH 550 0
DWIDTH 22 0
BBX 19 28 1 0
BITMAP
00E000
00E000
00E000
00E000
00E000
00E000
00E000
00E000
0FFE00
3FFF80
7FFF80
78E3C0
70E1C0
E0E0E0
E0E0E0
E0E0E0
E0E0E0
E0E0E0
E0E0E0
E0E0E0
E0E0E0
E0E0E0
E0E0E0
F0E1E0
71F1C0
7FFFC0
3FFF80
1EEF00
ENDCHAR
STARTCHAR 0239
ENCODING 569
SWIDTH 550 0
DWIDTH 22 0
BBX 19 28 1 -8
BITMAP
1EEF00
3FFF80
7FFFC0
71F1C0
F0E1E0
E0E0E0
E0E0E0
E0E0E0
E0E0E0
E0E0E0
E0E0E0
E0E0E0
E0E0E0
E0E0E0
E0E0E0
70E1C0
70E3C0
7FFFC0
3FFF80
0FFE00
00E000
00E000
00E000
00E000
00E000
00E000
00E000
00E000
ENDCHAR
STARTCHAR 023A
ENCODING 570
SWIDTH 550 0
DWIDTH 22 0
BBX 26 31 -2 -3
BITMAP
000003C0
00000780
003E0F00
003E0F00
007F1E00
00773C00
00773800
00F7F800
00E3F000
00E3E000
01E3C000
01C3C000
01C7C000
03C7E000
038FE000
039EE000
07BCF000
0738F000
07787000
0FFFF800
0FFFF800
0FFFF800
1FC03C00
1F803C00
1F001C00
3F001E00
3E001E00
3C000E00
3C000000
78000000
F0000000
ENDCHAR
STARTCHAR 023B
ENCODING 571
SWIDTH 550 0
DWIDTH 22 0
BBX 26 31 -2 -3
BITMAP
000003C0
00000780
000FCF00
007FFF00
00FFFE00
01F83C00
03E03800
03C07800
0780F000
0781E000
0781C000
0F03C000
0F078000
0F070000
0F0F0000
0F1E0000
0F3C0000
0F380000
0F780000
0FF00000
07E00000
07E00000
07C00000
07E00000
07F81800
0FFFF800
1E7FF800
1C1FE000
3C000000
78000000
F0000000
ENDCHAR
STARTCHAR 023C
ENCODING 572
SWIDTH 550 0
DWIDTH 22 0
BBX 20 24 2 -3
BITMAP
0000F0
01FFE0
07FFC0
0FFFC0
1F0780
3C0700
380F00
381E00
701C00
703C00
707800
707000
70E000
71E000
7BC000
3B8000
3F8000
1F0300
1FFF00
1FFF00
3DFC00
380000
780000
F00000
ENDCHAR
STARTCHAR 023D
ENCODING 573
SWIDTH 550 0
DWIDTH 22 0
BBX 19 26 1 0
BITMAP
0E0000
0E0000
0E0000
0E0000
0E0000
0E0000
0E0000
0E0000
0E0000
0E0000
0E0000
FFF000
FFF000
FFF000
0E0000
0E0000
0E0000
0E0000
0E0000
0E0000
0E0000
0E0000
0E0000
0FFFE0
0FFFE0
0FFFE0
ENDCHAR
STARTCHAR 023E
ENCODING 574
SWIDTH 550 0
DWIDTH 22 0
BBX 26 31 -1 -3
BITMAP
000003C0
00000780
3FFFFF00
3FFFFF00
3FFFFE00
00383C00
00383800
00387800
0038F000
0039E000
0039C000
003BC000
003F8000
003F0000
003F0000
003E0000
003C0000
00380000
00780000
00F80000
00F80000
01F80000
03F80000
07B80000
07380000
0F380000
1E380000
1C380000
3C000000
78000000
F0000000
ENDCHAR
STARTCHAR 023F
ENCODING 575
SWIDTH 550 0
DWIDTH 22 0
BBX 14 28 4 -8
BITMAP
0FF0
3FF8
7FF8
F008
E000
E000
E000
F800
7E00
3FC0
0FF0
01F8
007C
001C
001C
001C
C03C
FFF8
FFF0
FFC0
1E00
0F00
0700
0380
03C0
01F8
00F8
0078
ENDCHAR
STARTCHAR 0240
ENCODING 576
SWIDTH 550 0
DWIDTH 22 0
BBX 17 28 3 -8
BITMAP
FFFE00
FFFE00
FFFE00
001C00
003C00
007800
00F000
00E000
01E000
03C000
078000
0F0000
0F0000
1E0000
3C0000
780000
700000
FE0000
FF8000
FFC000
03E000
01E000
00F000
007000
007800
003F80
001F80
000F80
ENDCHAR
STARTCHAR 0241
ENCODING 577
SWIDTH 550 0
DWIDTH 22 0
BBX 13 28 5 0
BITMAP
F800
FF00
FF80
0FC0
01E0
00F0
00F0
0078
0078
0078
0078
0078
0078
0078
00F0
01F0
03E0
3FC0
3F80
3E00
3800
3800
3800
3800
3800
3800
3800
3800
ENDCHAR
STARTCHAR 0242
ENCODING 578
SWIDTH 550 0
DWIDTH 22 0
BBX 12 20 6 0
BITMAP
F800
FE00
FF80
0FC0
03E0
01E0
00F0
00F0
00F0
00F0
00F0
01E0
03E0
7FC0
7F80
7E00
7000
7000
7000
7000
ENDCHAR
STARTCHAR 0243
ENCODING 579
SWIDTH 550 0
DWIDTH 22 0
BBX 19 26 0 0
BITMAP
1FFC00
1FFF00
1FFF80
1C0780
1C03C0
1C01C0
1C01C0
1C01C0
1C01C0
1C0380
1C0780
1FFF00
1FFF00
1FFF80
1C07C0
1C01E0
1C00E0
FFC0E0
FFC0E0
FFC0E0
1C00E0
1C01C0
1C07C0
1FFF80
1FFF00
1FF800
ENDCHAR
STARTCHAR 0244
ENCODING 580
SWIDTH 550 0
DWIDTH 22 0
BBX 22 26 0 0
BITMAP
3800E0
3800E0
3800E0
3800E0
3800E0
3800E0
3800E0
3800E0
3800E0
3800E0
3800E0
FFFFFC
FFFFFC
FFFFFC
3800E0
3800E0
3800E0
3800E0
3800E0
3800E0
3C01E0
1C01C0
1F07C0
0FFF80
07FF00
01FC00
ENDCHAR
STARTCHAR 0245
ENCODING 581
SWIDTH 550 0
DWIDTH 22 0
BBX 21 26 0 0
BITMAP
00F800
00F800
01FC00
01DC00
01DC00
03DE00
038E00
038E00
078F00
070F00
070700
0F0780
0F0780
0E0380
1E03C0
1E03C0
1C01C0
3C01E0
3C01E0
3800E0
7800F0
7800F0
7000F0
F00078
F00078
E00078
ENDCHAR
STARTCHAR 0246
ENCODING 582
SWIDTH 550 0
DWIDTH 22 0
BBX 26 31 -2 -3
BITMAP
000003C0
00000780
03FFFF00
03FFFF00
03FFFE00
03803C00
03803800
03807800
0380F000
0381E000
0381C000
0383C000
03878000
03FFF800
03FFF800
03FFF800
03BC0000
03B80000
03F80000
03F00000
03E00000
03E00000
03C00000
07800000
07800000
0FFFF800
1FFFF800
1FFFF800
3C000000
78000000
F0000000
ENDCHAR
STARTCHAR 0247
ENCODING 583
SWIDTH 550 0
DWIDTH 22 0
BBX 20 24 1 -3
BITMAP
0000F0
01F9E0
07FFC0
0FFFC0
1E0F80
3C0780
380FC0
701FC0
701DC0
7FFFC0
7FFFC0
7FFFC0
70E000
71E000
73C000
3B8000
3F8000
1F0180
1FFF80
1FFF80
3DFE00
380000
780000
F00000
ENDCHAR
STARTCHAR 0248
ENCODING 584
SWIDTH 550 0
DWIDTH 22 0
BBX 17 26 4 0
BITMAP
FFF800
FFF800
FFF800
003800
003800
003800
003800
003800
003800
003800
003800
07FF80
07FF80
07FF80
003800
003800
003800
003800
003800
003800
003800
807000
E0F000
FFE000
7FC000
1F0000
ENDCHAR
STARTCHAR 0249
ENCODING 585
SWIDTH 550 0
DWIDTH 22 0
BBX 18 36 2 -8
BITMAP
001C00
003E00
003E00
003E00
001C00
000000
000000
000000
7FFC00
7FFC00
7FFC00
001C00
001C00
001C00
001C00
001C00
001C00
03FFC0
03FFC0
03FFC0
001C00
001C00
001C00
001C00
001C00
001C00
001C00
001C00
001C00
001C00
003C00
003800
C0F800
FFF000
FFE000
3F8000
ENDCHAR
STARTCHAR 024A
ENCODING 586
SWIDTH 550 0
DWIDTH 22 0
BBX 22 34 1 -8
BITMAP
01FCC0
07FFC0
0FFFC0
1F07C0
3C01C0
7C01C0
7801C0
7801C0
F001C0
F001C0
F001C0
F001C0
F001C0
F001C0
F001C0
F001C0
F001C0
F001C0
7801C0
7801C0
7803C0
3C07C0
3E1FC0
1FFFC0
0FFDC0
03F1C0
0001C0
0001C0
0001C0
0001C0
0001E0
0000FC
0000FC
00007C
ENDCHAR
STARTCHAR 024B
ENCODING 587
SWIDTH 550 0
DWIDTH 22 0
BBX 20 28 2 -7
BITMAP
03FB00
0FFF00
1FFF00
3C0F00
780700
700700
F00700
E00700
E00700
E00700
E00700
E00700
E00700
E00F00
F01F00
703F00
787F00
3FF700
1FE700
0F8700
000700
000700
000700
000700
000780
0007F0
0003F0
0001F0
ENDCHAR
STARTCHAR 024C
ENCODING 588
SWIDTH 550 0
DWIDTH 22 0
BBX 21 26 0 0
BITMAP
1FFC00
1FFF00
1FFF80
1C0FC0
1C03E0
1C01E0
1C01E0
1C01E0
1C01E0
1C03E0
1C03C0
1C0FC0
FFFF80
FFFE00
FFFC00
1C3E00
1C1F00
1C0F00
1C0780
1C07C0
1C03C0
1C03E0
1C01E0
1C01F0
1C00F0
1C00F8
ENDCHAR
STARTCHAR 024D
ENCODING 589
SWIDTH 550 0
DWIDTH 22 0
BBX 20 20 1 0
BITMAP
0E1F00
0E7FC0
0EFFE0
0FF1E0
0FC0F0
0F8070
0F0070
0E0070
0E0000
FFF000
FFF000
FFF000
0E0000
0E0000
0E0000
0E0000
0E0000
0E0000
0E0000
0E0000
ENDCHAR
STARTCHAR 024E
ENCODING 590
SWIDTH 550 0
DWIDTH 22 0
BBX 21 26 0 0
BITMAP
F00078
7800F0
7C00F0
3C01E0
1E01C0
FFFFF8
FFFFF8
FFFFF8
070700
078F00
038E00
03DE00
01DC00
01FC00
00F800
00F800
007000
007000
007000
007000
007000
007000
007000
007000
007000
007000
ENDCHAR
STARTCHAR 024F
ENCODING 591
SWIDTH 550 0
DWIDTH 22 0
BBX 20 28 1 -8
BITMAP
7800E0
7801E0
7801E0
3C01C0
3C03C0
1C03C0
1E0380
1E0780
FFFFF0
FFFFF0
FFFFF0
078E00
078E00
038E00
03DC00
01DC00
01FC00
00F800
00F800
00F000
00F000
00E000
01E000
03C000
07C000
FF8000
FE0000
F80000
ENDCHAR
STARTCHAR 0250
ENCODING 592
SWIDTH 550 0
DWIDTH 22 0
BBX 17 20 3 0
BITMAP
E1F800
E7FE00
EFFF00
FE0F80
F80780
E00780
E00780
E00F80
E01F00
FFFF00
FFFC00
FFF000
E00000
E00000
E00000
F00000
780E00
7FFE00
3FFE00
0FF000
ENDCHAR
STARTCHAR 0251
ENCODING 593
SWIDTH 550 0
DWIDTH 22 0
BBX 16 20 2 0
BITMAP
03F3
0FFF
1FFF
3C0F
7807
7007
F007
E007
E007
E007
E007
E007
E007
E00F
F01F
703F
787F
3FF7
1FE7
0F87
ENDCHAR
STARTCHAR 0252
ENCODING 594
SWIDTH 550 0
DWIDTH 22 0
BBX 16 20 3 0
BITMAP
E1F0
E7F8
EFFC
FE1E
F80E
F00F
E007
E007
E007
E007
E007
E007
E007
E00F
E00E
E01E
F03C
FFF8
FFF0
1FC0
ENDCHAR
STARTCHAR 0253
ENCODING 595
SWIDTH 550 0
DWIDTH 22 0
BBX 16 28 3 0
BITMAP
1FC0
3FC0
7FC0
F000
E000
E000
E000
E000
E1F0
E7F8
EFFC
FE1E
F80E
F00F
E007
E007
E007
E007
E007
E007
E007
E00F
E00E
E01E
F03C
FFF8
FFF0
1FC0
ENDCHAR
STARTCHAR 0254
ENCODING 596
SWIDTH 550 0
DWIDTH 22 0
BBX 15 20 4 0
BITMAP
3F80
FFE0
FFF0
C0F8
003C
001C
001E
000E
000E
000E
000E
000E
000E
001C
001C
003C
C0F8
FFF0
FFE0
7F80
ENDCHAR
STARTCHAR 0255
ENCODING 597
SWIDTH 550 0
DWIDTH 22 0
BBX 17 23 3 -3
BITMAP
03FC00
0FFE00
1FFE00
3E0600
780000
700000
700000
E00000
E00000
E00000
E00000
E00000
E01F00
F03F80
707F80
78F380
3EE780
3FFF00
0FFE00
03FC00
01C000
01C000
01C000
ENDCHAR
STARTCHAR 0256
ENCODING 598
SWIDTH 550 0
DWIDTH 22 0
BBX 22 36 2 -8
BITMAP
000700
000700
000700
000700
000700
000700
000700
000700
03FF00
0FFF00
1FFF00
3C0F00
780700
700700
F00700
E00700
E00700
E00700
E00700
E00700
E00700
E00F00
F01F00
703F00
787F00
3FF700
1FE700
0F8700
000700
000700
000700
000700
000780
0003FC
0003FC
0000FC
ENDCHAR
STARTCHAR 0257
ENCODING 599
SWIDTH 550 0
DWIDTH 22 0
BBX 21 28 2 0
BITMAP
0000F8
0001F8
0003F8
000780
000700
000700
000700
000700
03FF00
0FFF00
1FFF00
3C0F00
780700
700700
F00700
E00700
E00700
E00700
E00700
E00700
E00700
E00F00
F01F00
703F00
787F00
3FF700
1FE700
0F8700
ENDCHAR
STARTCHAR 0258
ENCODING 600
SWIDTH 550 0
DWIDTH 22 0
BBX 18 20 2 0
BITMAP
03F000
1FFC00
3FFE00
7C1F00
700F80
E00780
E00380
E003C0
FFFFC0
FFFFC0
FFFFC0
0003C0
0003C0
0003C0
000780
000F80
401F00
7FFF00
7FFC00
1FF000
ENDCHAR
STARTCHAR 0259
ENCODING 601
SWIDTH 550 0
DWIDTH 22 0
BBX 17 20 2 0
BITMAP
1FE000
7FF800
7FFE00
601E00
000700
000700
000380
000380
FFFF80
FFFF80
FFFF80
E00380
E00380
E00780
700700
700F00
3C1E00
3FFC00
1FF800
07E000
ENDCHAR
STARTCHAR 025A
ENCODING 602
SWIDTH 550 0
DWIDTH 22 0
BBX 21 20 1 0
BITMAP
3F8000
7FE000
7FF000
40F800
003800
003C00
001DC0
001FC0
01FFC0
3FFCF8
FF9C78
F81C00
E01C00
E01C00
F01C00
703800
787800
3FF000
1FE000
0FC000
ENDCHAR
STARTCHAR 025B
ENCODING 603
SWIDTH 550 0
DWIDTH 22 0
BBX 17 20 3 0
BITMAP
03FE00
1FFF80
3FFF80
7E0180
780000
780000
780000
3E0000
1FFC00
07FC00
3FFC00
7C0000
F80000
F00000
F00000
F80000
7C0180
7FFF80
3FFF80
07FE00
ENDCHAR
STARTCHAR 025C
ENCODING 604
SWIDTH 550 0
DWIDTH 22 0
BBX 17 20 3 0
BITMAP
3FF000
FFFC00
FFFE00
C01F00
000700
000700
000700
000E00
1FFC00
1FF800
1FFE00
001F00
000780
000780
000780
000780
C01F00
FFFF00
FFFE00
3FF000
ENDCHAR
STARTCHAR 025D
ENCODING 605
SWIDTH 550 0
DWIDTH 22 0
BBX 19 20 3 0
BITMAP
3FC000
FFF000
FFF800
C07C00
001C00
001C00
001F00
003F00
3FFF80
3FF1E0
3FFCE0
003E00
000F00
000F00
000F00
000F00
C03E00
FFFE00
FFF800
7FE000
ENDCHAR
STARTCHAR 025E
ENCODING 606
SWIDTH 550 0
DWIDTH 22 0
BBX 18 20 2 0
BITMAP
01FC00
07FF00
1FFF80
3E07C0
7C01C0
7801C0
7001C0
E00380
E07F00
E07F00
E07F80
E003C0
E001C0
F001C0
7001C0
7803C0
3E0780
1FFF80
0FFF00
03F800
ENDCHAR
STARTCHAR 025F
ENCODING 607
SWIDTH 550 0
DWIDTH 22 0
BBX 18 28 3 -8
BITMAP
7FF800
7FF800
7FF800
003800
003800
003800
003800
003800
0FFFC0
0FFFC0
0FFFC0
003800
003800
003800
003800
003800
003800
003800
003800
003800
003800
003800
007800
007000
C0F000
FFE000
FFC000
7F0000
ENDCHAR
STARTCHAR 0260
ENCODING 608
SWIDTH 550 0
DWIDTH 22 0
BBX 21 36 2 -8
BITMAP
0000F8
0001F8
0003F8
000780
000700
000700
000700
000700
03FF00
0FFF00
1FFF00
3C0F00
780700
700700
700700
E00700
E00700
E00700
E00700
E00700
E00700
E00F00
F01F00
703F00
787F00
3FF700
1FE700
0F8700
000700
000700
000700
000F00
301E00
3FFE00
3FFC00
1FF000
ENDCHAR
STARTCHAR 0261
ENCODING 609
SWIDTH 550 0
DWIDTH 22 0
BBX 16 28 2 -8
BITMAP
03F3
0FFF
1FFF
3C0F
7807
7007
7007
E007
E007
E007
E007
E007
E007
E00F
F01F
703F
787F
3FF7
1FE7
0F87
0007
0007
0007
000F
301E
3FFE
3FFC
1FF0
ENDCHAR
STARTCHAR 0262
ENCODING 610
SWIDTH 550 0
DWIDTH 22 0
BBX 15 20 3 0
BITMAP
03F8
0FFE
1FFE
3E06
7800
7000
7000
E000
E000
E0FE
E0FE
E0FE
E00E
F00E
700E
780E
3E0E
3FFE
0FFE
03F8
ENDCHAR
STARTCHAR 0263
ENCODING 611
SWIDTH 550 0
DWIDTH 22 0
BBX 19 28 2 -8
BITMAP
F001E0
7001C0
7803C0
7803C0
3C0780
3C0780
1C0700
1E0F00
0E0E00
0F1E00
0F1E00
071C00
07BC00
03B800
03F800
01F000
01F000
01F000
01F000
03F000
03B800
07B800
071C00
071C00
071C00
07FC00
03F800
01F000
ENDCHAR
STARTCHAR 0264
ENCODING 612
SWIDTH 550 0
DWIDTH 22 0
BBX 17 20 3 0
BITMAP
F00780
F80780
F80F80
3C1E00
1C1C00
1E3C00
0E3800
077000
077000
03E000
03E000
03E000
07F000
077000
0E3800
0E3800
0E3800
0FF800
07F000
03E000
ENDCHAR
STARTCHAR 0265
ENCODING 613
SWIDTH 550 0
DWIDTH 22 0
BBX 15 28 3 -8
BITMAP
E00E
E00E
E00E
E00E
E00E
E00E
E00E
E00E
E00E
E00E
E00E
E00E
E00E
E00E
E01E
F03E
70FE
7FEE
3FCE
1F8E
000E
000E
000E
000E
000E
000E
000E
000E
ENDCHAR
STARTCHAR 0266
ENCODING 614
SWIDTH 550 0
DWIDTH 22 0
BBX 15 28 3 0
BITMAP
1F80
3F80
7F80
F000
E000
E000
E000
E000
E1F0
E7F8
EFFC
FE3C
F81E
F00E
E00E
E00E
E00E
E00E
E00E
E00E
E00E
E00E
E00E
E00E
E00E
E00E
E00E
E00E
ENDCHAR
STARTCHAR 0267
ENCODING 615
SWIDTH 550 0
DWIDTH 22 0
BBX 15 36 3 -8
BITMAP
1F80
3F80
7F80
F000
E000
E000
E000
E000
E3F0
E7F8
EFFC
FE3C
F81E
F00E
E00E
E00E
E00E
E00E
E00E
E00E
E00E
E00E
E00E
E00E
E00E
E00E
E00E
E00E
000E
000E
000E
000E
001E
01FE
01FC
01F8
ENDCHAR
STARTCHAR 0268
ENCODING 616
SWIDTH 550 0
DWIDTH 22 0
BBX 16 28 3 0
BITMAP
01C0
03E0
03E0
03E0
01C0
0000
0000
0000
7FC0
7FC0
7FC0
01C0
01C0
01C0
01C0
01C0
01C0
3FFC
3FFC
3FFC
01C0
01C0
01C0
01C0
01C0
FFFF
FFFF
FFFF
ENDCHAR
STARTCHAR 0269
ENCODING 617
SWIDTH 550 0
DWIDTH 22 0
BBX 17 20 2 0
BITMAP
FFC000
FFC000
FFC000
01C000
01C000
01C000
01C000
01C000
01C000
01C000
01C000
01C000
01C000
01C000
01C000
01C000
01E000
00FF80
007F80
003F80
ENDCHAR
STARTCHAR 026A
ENCODING 618
SWIDTH 550 0
DWIDTH 22 0
BBX 15 20 3 0
BITMAP
FFFE
FFFE
FFFE
0380
0380
0380
0380
0380
0380
0380
0380
0380
0380
0380
0380
0380
0380
FFFE
FFFE
FFFE
ENDCHAR
STARTCHAR 026B
ENCODING 619
SWIDTH 550 0
DWIDTH 22 0
BBX 16 28 3 0
BITMAP
7FC0
7FC0
7FC0
01C0
01C0
01C0
01C0
01C0
01C0
01C0
01C0
01C0
1FC4
3FCE
7FFE
71FC
21F8
01C0
01C0
01C0
01C0
01C0
01C0
01C0
01C0
FFFF
FFFF
FFFF
ENDCHAR
STARTCHAR 026C
ENCODING 620
SWIDTH 550 0
DWIDTH 22 0
BBX 18 28 1 0
BITMAP
0FF000
0FF000
0FF000
007000
007000
007000
007000
007000
007000
007000
787000
FE7000
C77000
C3F000
FFFFC0
7FFFC0
3FFFC0
007000
007000
007000
007000
007000
007000
007000
007000
1FFFC0
1FFFC0
1FFFC0
ENDCHAR
STARTCHAR 026D
ENCODING 621
SWIDTH 550 0
DWIDTH 22 0
BBX 15 36 4 -8
BITMAP
FF80
FF80
FF80
0380
0380
0380
0380
0380
0380
0380
0380
0380
0380
0380
0380
0380
0380
0380
0380
0380
0380
0380
0380
0380
0380
0380
0380
0380
0380
0380
0380
0380
03C0
01FE
01FE
007E
ENDCHAR
STARTCHAR 026E
ENCODING 622
SWIDTH 550 0
DWIDTH 22 0
BBX 20 34 0 -6
BITMAP
FF0000
FF0000
FF0000
070000
070000
070000
070000
070000
07FFE0
07FFE0
07FFE0
0701E0
0703C0
070780
070780
070F00
070F00
071E00
073C00
073F00
073F80
0703C0
0700E0
0700F0
070070
070070
070070
070070
000070
0000E0
0003E0
01FFC0
01FF80
01FE00
ENDCHAR
STARTCHAR 026F
ENCODING 623
SWIDTH 550 0
DWIDTH 22 0
BBX 18 20 2 0
BITMAP
E0E1C0
E0E1C0
E0E1C0
E0E1C0
E0E1C0
E0E1C0
E0E1C0
E0E1C0
E0E1C0
E0E1C0
E0E1C0
E0E1C0
E0E1C0
E0E1C0
E1E3C0
E3E3C0
E7E7C0
FEFEC0
7EFCC0
3878C0
ENDCHAR
STARTCHAR 0270
ENCODING 624
SWIDTH 550 0
DWIDTH 22 0
BBX 18 28 2 -8
BITMAP
E0E1C0
E0E1C0
E0E1C0
E0E1C0
E0E1C0
E0E1C0
E0E1C0
E0E1C0
E0E1C0
E0E1C0
E0E1C0
E0E1C0
E0E1C0
E1E1C0
E1E3C0
E3E3C0
E7E7C0
FF7DC0
7E7DC0
3C39C0
0001C0
0001C0
0001C0
0001C0
0001C0
0001C0
0001C0
0001C0
ENDCHAR
STARTCHAR 0271
ENCODING 625
SWIDTH 550 0
DWIDTH 22 0
BBX 18 28 2 -8
BITMAP
E70F00
EF9F80
EFBFC0
F9F9C0
F1F1C0
F1E1C0
E1C1C0
E1C1C0
E1C1C0
E1C1C0
E1C1C0
E1C1C0
E1C1C0
E1C1C0
E1C1C0
E1C1C0
E1C1C0
E1C1C0
E1C1C0
E1C1C0
0001C0
0001C0
0001C0
0001C0
0003C0
003F80
003F80
003E00
ENDCHAR
STARTCHAR 0272
ENCODING 626
SWIDTH 550 0
DWIDTH 22 0
BBX 20 28 -2 -8
BITMAP
070F80
073FC0
077FE0
07F1E0
07C0F0
078070
070070
070070
070070
070070
070070
070070
070070
070070
070070
070070
070070
070070
070070
070070
070000
070000
070000
070000
0F0000
FE0000
FC0000
F80000
ENDCHAR
STARTCHAR 0273
ENCODING 627
SWIDTH 550 0
DWIDTH 22 0
BBX 20 28 3 -8
BITMAP
E3F000
E7F800
EFFC00
FE3C00
F81E00
F00E00
E00E00
E00E00
E00E00
E00E00
E00E00
E00E00
E00E00
E00E00
E00E00
E00E00
E00E00
E00E00
E00E00
E00E00
000E00
000E00
000E00
000E00
000F00
0007F0
0007F0
0001F0
ENDCHAR
STARTCHAR 0274
ENCODING 628
SWIDTH 550 0
DWIDTH 22 0
BBX 16 20 3 0
BITMAP
F007
F007
F807
FC07
FC07
FE07
EF07
EF07
E787
E3C7
E3C7
E1E7
E0F7
E0F7
E07F
E03F
E03F
E01F
E00F
E00F
ENDCHAR
STARTCHAR 0275
ENCODING 629
SWIDTH 550 0
DWIDTH 22 0
BBX 18 20 2 0
BITMAP
03F000
0FFC00
1FFF00
3C0F00
780780
700380
E001C0
E001C0
FFFFC0
FFFFC0
FFFFC0
E001C0
E001C0
F003C0
700380
780780
3C0F00
3FFE00
0FFC00
03F000
ENDCHAR
STARTCHAR 0276
ENCODING 630
SWIDTH 550 0
DWIDTH 22 0
BBX 18 20 2 0
BITMAP
07FFC0
1FFFC0
3FFFC0
7C7000
707000
707000
E07000
E07000
E07FC0
E07FC0
E07FC0
E07000
E07000
E07000
F07000
707000
787000
3FFFC0
1FFFC0
07FFC0
ENDCHAR
STARTCHAR 0277
ENCODING 631
SWIDTH 550 0
DWIDTH 22 0
BBX 19 20 1 0
BITMAP
03F800
0FFE00
1FFF00
3E0F80
7803C0
7001C0
7001C0
E000E0
E000E0
E000E0
E000E0
E0E0E0
E0E0E0
E0E0E0
E0E0E0
70E1C0
71F1C0
7FBFC0
3FBF80
0F1E00
ENDCHAR
STARTCHAR 0278
ENCODING 632
SWIDTH 550 0
DWIDTH 22 0
BBX 21 36 0 -8
BITMAP
007000
007000
007000
007000
007000
007000
007000
007000
01FE00
0FFF80
1FFFC0
3E73E0
7870F0
707070
F07078
E07038
E07038
E07038
E07038
E07038
E07038
F07078
707070
7870F0
3E73E0
1FFFC0
0FFF80
03FC00
007000
007000
007000
007000
007000
007000
007000
007000
ENDCHAR
STARTCHAR 0279
ENCODING 633
SWIDTH 550 0
DWIDTH 22 0
BBX 16 20 2 0
BITMAP
0007
0007
0007
0007
0007
0007
0007
0007
0007
0007
0007
0007
E007
E00F
E01F
F03F
787F
7FF7
3FC7
1F87
ENDCHAR
STARTCHAR 027A
ENCODING 634
SWIDTH 550 0
DWIDTH 22 0
BBX 16 28 2 0
BITMAP
0007
0007
0007
0007
0007
0007
0007
0007
0007
0007
0007
0007
0007
0007
0007
0007
0007
0007
0007
0007
E007
E00F
E01F
F03F
787F
7FF7
3FC7
1F87
ENDCHAR
STARTCHAR 027B
ENCODING 635
SWIDTH 550 0
DWIDTH 22 0
BBX 21 28 2 -8
BITMAP
000700
000700
000700
000700
000700
000700
000700
000700
000700
000700
000700
000700
E00700
E00F00
E01F00
F03F00
787F00
7FF700
3FE700
1F8700
000700
000700
000700
000700
000780
0003F8
0003F8
0000F8
ENDCHAR
STARTCHAR 027C
ENCODING 636
SWIDTH 550 0
DWIDTH 22 0
BBX 16 28 4 -8
BITMAP
E1F8
E3FC
EFFE
FF1E
FC0F
F807
F007
E007
E000
E000
E000
E000
E000
E000
E000
E000
E000
E000
E000
E000
E000
E000
E000
E000
E000
E000
E000
E000
ENDCHAR
STARTCHAR 027D
ENCODING 637
SWIDTH 550 0
DWIDTH 22 0
BBX 16 28 4 -8
BITMAP
E1F8
E3FC
EFFE
FE1E
FC0F
F807
F007
E007
E000
E000
E000
E000
E000
E000
E000
E000
E000
E000
E000
E000
E000
E000
E000
E000
F000
7F00
7F00
1F00
ENDCHAR
STARTCHAR 027E
ENCODING 638
SWIDTH 550 0
DWIDTH 22 0
BBX 16 20 4 0
BITMAP
07E0
1FF8
3FFE
781E
F00F
E007
E007
E000
E000
E000
E000
E000
E000
E000
E000
E000
E000
E000
E000
E000
ENDCHAR
STARTCHAR 027F
ENCODING 639
SWIDTH 550 0
DWIDTH 22 0
BBX 16 20 2 0
BITMAP
07E0
3FF8
7FFC
781E
F00F
E007
E007
0007
0007
0007
0007
0007
0007
0007
0007
0007
0007
0007
0007
0007
ENDCHAR
STARTCHAR 0280
ENCODING 640
SWIDTH 550 0
DWIDTH 22 0
BBX 17 20 3 0
BITMAP
FFF000
FFFC00
FFFE00
E03F00
E00F00
E00F00
E00F00
E00F00
E01F00
E03E00
FFFC00
FFF000
FFF000
E0F800
E07C00
E03C00
E01E00
E01E00
E00F00
E00780
ENDCHAR
STARTCHAR 0281
ENCODING 641
SWIDTH 550 0
DWIDTH 22 0
BBX 17 20 3 0
BITMAP
E00780
E00F00
E00F00
E01E00
E03E00
E03C00
E07800
E0F800
FFF000
FFF000
FFFC00
E03E00
E00F00
E00F00
E00F00
E00F00
E01F00
FFFE00
FFFC00
FFF000
ENDCHAR
STARTCHAR 0282
ENCODING 642
SWIDTH 550 0
DWIDTH 22 0
BBX 15 28 4 -8
BITMAP
07F8
3FFC
7FFC
F804
E000
E000
E000
F800
7F00
3FE0
0FF8
01FC
003E
000E
000E
000E
C03E
FFFC
FFF8
FFC0
E000
E000
E000
E000
F000
7F00
3F00
1F00
ENDCHAR
STARTCHAR 0283
ENCODING 643
SWIDTH 550 0
DWIDTH 22 0
BBX 17 36 2 -8
BITMAP
001F80
007F80
00FF80
00F000
01E000
01C000
01C000
01C000
01C000
01C000
01C000
01C000
01C000
01C000
01C000
01C000
01C000
01C000
01C000
01C000
01C000
01C000
01C000
01C000
01C000
01C000
01C000
01C000
01C000
01C000
01C000
03C000
078000
FF8000
FF0000
FC0000
ENDCHAR
STARTCHAR 0284
ENCODING 644
SWIDTH 550 0
DWIDTH 22 0
BBX 17 36 2 -8
BITMAP
001F80
007F80
00FF80
00F000
01E000
01C000
01C000
01C000
01C000
01C000
01C000
01C000
01C000
01C000
01C000
01C000
01C000
01C000
01C000
01C000
01C000
01C000
01C000
01C000
01C000
3FFE00
3FFE00
3FFE00
01C000
01C000
01C000
03C000
078000
FF8000
FF0000
FC0000
ENDCHAR
STARTCHAR 0285
ENCODING 645
SWIDTH 550 0
DWIDTH 22 0
BBX 17 36 2 -8
BITMAP
FC0000
FF0000
FF8000
078000
03C000
01C000
01C000
01C000
01C000
01C000
01C000
01C000
01C000
01C000
01C000
01C000
01C000
01C000
01C000
01C000
01C000
01C000
01C000
01C000
01C000
01C000
01C000
01C000
01C000
01C000
01C000
01E000
00F000
00FF80
007F80
001F80
ENDCHAR
STARTCHAR 0286
ENCODING 646
SWIDTH 550 0
DWIDTH 22 0
BBX 18 36 1 -8
BITMAP
000FC0
003FC0
007FC0
007800
00F000
00E000
00E000
00E000
00E000
00E000
00E000
00E000
00E000
00E000
00E000
00E000
00E000
00E000
00E000
00E000
00E000
00E000
00E000
00E000
00E000
00E000
00E000
00E000
3CE000
7FE000
E3E000
E1C000
E1C000
E3E000
7FF000
3E7000
ENDCHAR
STARTCHAR 0287
ENCODING 647
SWIDTH 550 0
DWIDTH 22 0
BBX 18 26 3 0
BITMAP
FF0000
FFC000
FFE000
81E000
00F000
007000
007000
007000
007000
007000
007000
007000
007000
007000
007000
007000
007000
FFFFC0
FFFFC0
FFFFC0
007000
007000
007000
007000
007000
007000
ENDCHAR
STARTCHAR 0288
ENCODING 648
SWIDTH 550 0
DWIDTH 22 0
BBX 17 34 2 -8
BITMAP
030000
070000
070000
070000
070000
070000
FFFF80
FFFF80
FFFF80
070000
070000
070000
070000
070000
070000
070000
070000
070000
070000
070000
070000
070000
070000
070000
070000
070000
070000
070000
070000
078000
03C080
03FF80
01FF80
007F80
ENDCHAR
STARTCHAR 0289
ENCODING 649
SWIDTH 550 0
DWIDTH 22 0
BBX 21 20 0 0
BITMAP
1C01C0
1C01C0
1C01C0
1C01C0
1C01C0
1C01C0
1C01C0
FFFFF8
FFFFF8
FFFFF8
1C01C0
1C01C0
1C01C0
1C01C0
1C03C0
1E07C0
1E1FC0
0FFDC0
07F9C0
03E1C0
ENDCHAR
STARTCHAR 028A
ENCODING 650
SWIDTH 550 0
DWIDTH 22 0
BBX 19 20 2 0
BITMAP
FE0FE0
FE0FE0
FE0FE0
1C0700
380300
700380
700180
E001C0
E001C0
E001C0
E001C0
E001C0
E001C0
F003C0
700380
780780
3C1F00
3FFF00
0FFC00
03F000
ENDCHAR
STARTCHAR 028B
ENCODING 651
SWIDTH 550 0
DWIDTH 22 0
BBX 16 20 3 0
BITMAP
7078
707E
707E
700F
7007
7007
7007
7007
E007
E007
E007
E007
E007
E007
E00E
F00E
783E
3FFC
1FF8
07E0
ENDCHAR
STARTCHAR 028C
ENCODING 652
SWIDTH 550 0
DWIDTH 22 0
BBX 20 20 1 0
BITMAP
00F000
01F800
01F800
01F800
03BC00
039C00
079E00
071E00
070E00
0F0F00
0E0700
1E0780
1E0780
1C0380
3C03C0
3803C0
7801E0
7801E0
7000E0
F000F0
ENDCHAR
STARTCHAR 028D
ENCODING 653
SWIDTH 550 0
DWIDTH 22 0
BBX 20 20 1 0
BITMAP
1E0780
1F0780
1F0F80
3F0FC0
3B0DC0
3B9DC0
3B9DC0
3B99C0
39D9C0
39F9C0
71F8E0
70F0E0
70F0E0
70F0E0
7060E0
7000E0
7000E0
F000F0
F000F0
E00070
ENDCHAR
STARTCHAR 028E
ENCODING 654
SWIDTH 550 0
DWIDTH 22 0
BBX 19 28 2 0
BITMAP
0007E0
001FE0
003FE0
007C00
007800
00F000
01E000
01E000
03E000
03E000
03E000
07F000
077000
077800
0F7800
0E3800
0E3C00
1E1C00
1C1E00
3C1E00
3C0E00
3C0F00
780F00
780780
780780
F00380
F003C0
F003C0
ENDCHAR
STARTCHAR 028F
ENCODING 655
SWIDTH 550 0
DWIDTH 22 0
BBX 19 20 1 0
BITMAP
F001E0
7803C0
380380
3C0780
1E0700
1E0F00
0F1E00
071C00
07BC00
03B800
01F000
01F000
00E000
00E000
00E000
00E000
00E000
00E000
00E000
00E000
ENDCHAR
STARTCHAR 0290
ENCODING 656
SWIDTH 550 0
DWIDTH 22 0
BBX 19 28 3 -8
BITMAP
FFFE00
FFFE00
FFFE00
001C00
003C00
007800
00F000
00E000
01E000
03C000
078000
0F0000
0F0000
1E0000
3C0000
780000
700000
FFFE00
FFFE00
FFFE00
000E00
000E00
000E00
000E00
000F00
000FE0
0007E0
0003E0
ENDCHAR
STARTCHAR 0291
ENCODING 657
SWIDTH 550 0
DWIDTH 22 0
BBX 19 23 3 -3
BITMAP
FFFE00
FFFE00
FFFE00
001C00
003C00
007800
00F000
00E000
01E000
03C000
078000
0F0000
0F0F80
1E1FC0
3C38E0
7870E0
70E0E0
FFFFE0
FFFFC0
FFFF80
01C000
01C000
01C000
ENDCHAR
STARTCHAR 0292
ENCODING 658
SWIDTH 550 0
DWIDTH 22 0
BBX 15 26 4 -6
BITMAP
FFFC
FFFC
FFFC
0078
0070
00E0
01C0
0380
0700
0F00
1F80
1FF0
1FF8
00FC
003C
001E
000E
000E
000E
000E
001E
001C
007C
FFF8
FFE0
FF80
ENDCHAR
STARTCHAR 0293
ENCODING 659
SWIDTH 550 0
DWIDTH 22 0
BBX 17 28 2 -8
BITMAP
3FFF00
3FFF00
3FFF00
001E00
001C00
003800
007000
00E000
01C000
03C000
07E000
07FC00
07FE00
003F00
000F00
000780
000380
3F0380
7F8380
FFC380
E1E780
E0F700
F07F00
7FFE00
3FFC00
0FF800
003800
003800
ENDCHAR
STARTCHAR 0294
ENCODING 660
SWIDTH 550 0
DWIDTH 22 0
BBX 13 28 5 0
BITMAP
F800
FF00
FF80
0FC0
01E0
00F0
00F0
0078
0078
0078
0078
0078
0078
0078
00F0
01F0
03E0
3FC0
3F80
3E00
3800
3800
3800
3800
3800
3800
3800
3800
ENDCHAR
STARTCHAR 0295
ENCODING 661
SWIDTH 550 0
DWIDTH 22 0
BBX 12 28 6 0
BITMAP
01F0
07F0
1FF0
3F00
3C00
7800
7800
F000
F000
F000
F000
F000
F000
F000
7800
7800
3C00
3FC0
1FC0
07C0
01C0
01C0
01C0
01C0
01C0
01C0
01C0
01C0
ENDCHAR
STARTCHAR 0296
ENCODING 662
SWIDTH 550 0
DWIDTH 22 0
BBX 13 28 5 0
BITMAP
3800
3800
3800
3800
3800
3800
3800
3800
3E00
3F80
3FC0
03E0
01F0
00F0
0078
0078
0078
0078
0078
0078
0078
00F0
00F0
01E0
0FE0
FF80
FF00
F800
ENDCHAR
STARTCHAR 0297
ENCODING 663
SWIDTH 550 0
DWIDTH 22 0
BBX 15 28 3 -8
BITMAP
03FC
0FFE
1FFE
3E06
3C00
7800
7000
7000
F000
E000
E000
E000
E000
E000
E000
E000
E000
E000
E000
F000
7000
7000
7800
3C00
3E06
1FFE
0FFE
03FC
ENDCHAR
STARTCHAR 0298
ENCODING 664
SWIDTH 550 0
DWIDTH 22 0
BBX 20 26 1 0
BITMAP
01FC00
07FF00
1FFF80
3F07C0
3C03C0
7801E0
7801E0
7801E0
F000F0
F000F0
F0F0F0
F1F0F0
F1F8F0
F1F8F0
F1F8F0
F0F0F0
F000F0
F000F0
7801E0
7801E0
7801E0
3C03C0
3E0FC0
1FFF80
0FFE00
03F800
ENDCHAR
STARTCHAR 0299
ENCODING 665
SWIDTH 550 0
DWIDTH 22 0
BBX 16 20 3 0
BITMAP
FFF8
FFFE
FFFE
E01F
E00F
E00F
E00F
E01E
FFFC
FFF8
FFFE
E01E
E00F
E00F
E00F
E00F
E03E
FFFE
FFFC
FFF0
ENDCHAR
STARTCHAR 029A
ENCODING 666
SWIDTH 550 0
DWIDTH 22 0
BBX 18 20 2 0
BITMAP
07F000
1FFC00
3FFE00
781F00
700780
700380
700380
3801C0
1FC1C0
1FC1C0
7FC1C0
7801C0
E001C0
E003C0
E00380
F00780
781F00
7FFE00
3FFC00
07F000
ENDCHAR
STARTCHAR 029B
ENCODING 667
SWIDTH 550 0
DWIDTH 22 0
BBX 20 26 3 0
BITMAP
0001F0
0003F0
0007F0
000F00
000E00
000E00
01FE00
0FFE00
1FFE00
3E0600
780000
700000
700000
E00000
E00000
E0FE00
E0FE00
E0FE00
E00E00
F00E00
700E00
780E00
3E0E00
3FFE00
0FFE00
03F800
ENDCHAR
STARTCHAR 029C
ENCODING 668
SWIDTH 550 0
DWIDTH 22 0
BBX 15 20 3 0
BITMAP
E00E
E00E
E00E
E00E
E00E
E00E
E00E
E00E
FFFE
FFFE
FFFE
E00E
E00E
E00E
E00E
E00E
E00E
E00E
E00E
E00E
ENDCHAR
STARTCHAR 029D
ENCODING 669
SWIDTH 550 0
DWIDTH 22 0
BBX 16 35 1 -7
BITMAP
000E
001F
001F
001F
000E
0000
0000
0000
3FFE
3FFE
3FFE
000E
000E
000E
000E
000E
000E
000E
000E
000E
000E
000E
000E
000E
000E
3E0E
7F0E
FF8E
E3CE
E1DE
F0FC
7FF8
3FF0
1FF0
0070
ENDCHAR
STARTCHAR 029E
ENCODING 670
SWIDTH 550 0
DWIDTH 22 0
BBX 17 28 1 -8
BITMAP
F80380
7C0380
3E0380
1F0380
0F8380
07C380
03C380
01E380
00F380
007B80
003F80
007B80
00FB80
01F380
03E380
07C380
0F8380
1F0380
3E0380
7C0380
000380
000380
000380
000380
000380
000380
000380
000380
ENDCHAR
STARTCHAR 029F
ENCODING 671
SWIDTH 550 0
DWIDTH 22 0
BBX 13 20 3 0
BITMAP
E000
E000
E000
E000
E000
E000
E000
E000
E000
E000
E000
E000
E000
E000
E000
E000
E000
FFF8
FFF8
FFF8
ENDCHAR
STARTCHAR 02A0
ENCODING 672
SWIDTH 550 0
DWIDTH 22 0
BBX 21 36 2 -8
BITMAP
0000F8
0001F8
0003F8
000780
000700
000700
000700
000700
03FF00
0FFF00
1FFF00
3C0F00
780700
700700
700700
E00700
E00700
E00700
E00700
E00700
E00700
E00F00
F01F00
703F00
787F00
3FF700
1FE700
0F8700
000700
000700
000700
000700
000700
000700
000700
000700
ENDCHAR
STARTCHAR 02A1
ENCODING 673
SWIDTH 550 0
DWIDTH 22 0
BBX 15 28 3 0
BITMAP
3E00
3FC0
3FE0
03F0
0078
003C
003C
001E
001E
001E
001E
001E
001E
001E
003C
007C
00F8
0FF0
0FE0
0F80
0E00
0E00
FFF0
FFF0
FFF0
0E00
0E00
0E00
ENDCHAR
STARTCHAR 02A2
ENCODING 674
SWIDTH 550 0
DWIDTH 22 0
BBX 14 28 6 0
BITMAP
01F0
07F0
1FF0
3F00
3C00
7800
7800
F000
F000
F000
F000
F000
F000
F000
7800
7800
3C00
3FC0
1FC0
07C0
01C0
01C0
3FFC
3FFC
3FFC
01C0
01C0
01C0
ENDCHAR
STARTCHAR 02A3
ENCODING 675
SWIDTH 550 0
DWIDTH 22 0
BBX 20 28 1 0
BITMAP
00E000
00E000
00E000
00E000
00E000
00E000
00E000
00E000
0FFFF0
3FFFF0
7FFFF0
70E070
70E0E0
E0E0E0
E0E1C0
E0E1C0
E0E1C0
E0E380
E0E380
E0E700
E0E700
E0EF00
E0EE00
F0EE00
70FC00
7FFFF0
3FFFF0
1E7FF0
ENDCHAR
STARTCHAR 02A4
ENCODING 676
SWIDTH 550 0
DWIDTH 22 0
BBX 20 34 1 -6
BITMAP
00E000
00E000
00E000
00E000
00E000
00E000
00E000
00E000
0FFFF0
3FFFF0
7FFFF0
70E070
70E0E0
E0E0E0
E0E1C0
E0E1C0
E0E380
E0E380
E0E700
E0E780
E0E7C0
E0E1E0
E0E0E0
F0E070
70E070
7FE070
3FE070
1FE070
000070
0000F0
0000E0
003FE0
003FC0
003F00
ENDCHAR
STARTCHAR 02A5
ENCODING 677
SWIDTH 550 0
DWIDTH 22 0
BBX 22 31 1 -3
BITMAP
00E000
00E000
00E000
00E000
00E000
00E000
00E000
00E000
0FFFF8
3FFFF8
7FFFF8
70E038
70E070
E0E070
E0E0E0
E0E0E0
E0E1C0
E0E1C0
E0E380
E0E380
E0E780
E0E738
E0EF7C
F0EECC
70EF8C
7FFD8C
3FFFFC
1F7FF8
0001C0
0001C0
0001C0
ENDCHAR
STARTCHAR 02A6
ENCODING 678
SWIDTH 550 0
DWIDTH 22 0
BBX 19 26 1 0
BITMAP
0C0000
1C0000
1C0000
1C0000
1C0000
1C0000
FFFFE0
FFFFE0
FFFFE0
1C7820
1C7000
1C7000
1C7000
1C7800
1C3C00
1C1F00
1C0F80
1C03C0
1C01E0
1C00E0
1C00E0
1E00E0
0F01E0
0FFFC0
07FFC0
03FF00
ENDCHAR
STARTCHAR 02A7
ENCODING 679
SWIDTH 550 0
DWIDTH 22 0
BBX 22 36 1 -8
BITMAP
0000FC
0001FC
0C03FC
1C0780
1C0700
1C0700
1C0700
1C0700
FFFF00
FFFF00
FFFF00
1C0700
1C0700
1C0700
1C0700
1C0700
1C0700
1C0700
1C0700
1C0700
1C0700
1C0700
1C0700
1E0700
0F0700
0FFF00
07FF00
01FF00
000700
000700
000700
000700
000E00
03FE00
03FC00
03F800
ENDCHAR
STARTCHAR 02A8
ENCODING 680
SWIDTH 550 0
DWIDTH 22 0
BBX 21 29 1 -3
BITMAP
180000
380000
380000
380000
380000
380000
FFFFE0
FFFFE0
FFFFE0
383C20
383800
387800
387000
387000
387000
387000
387000
387000
387000
3871F0
3873F8
3C3738
3E3E38
1FFFF8
0FFFF0
07FFC0
000700
000700
000700
ENDCHAR
STARTCHAR 02A9
ENCODING 681
SWIDTH 550 0
DWIDTH 22 0
BBX 20 28 0 0
BITMAP
01F000
07F000
0FF000
0F0000
1E0000
1C0000
1C0000
1C0000
1C73C0
1C77E0
1C7FF0
FFF8F0
FFF870
FFF070
1C7070
1C7070
1C7070
1C7070
1C7070
1C7070
1C7070
1C7070
1C7070
1C7070
1C7070
1C7070
1C7070
1C7070
ENDCHAR
STARTCHAR 02AA
ENCODING 682
SWIDTH 550 0
DWIDTH 22 0
BBX 21 28 0 0
BITMAP
FE0000
FE0000
FE0000
0E0000
0E0000
0E0000
0E0000
0E0000
0E03F8
0E0FF8
0E0FF8
0E1E08
0E1C00
0E1C00
0E1C00
0E1E00
0E0F80
0E07C0
0E03E0
0E00F0
0E0078
0E0038
0E0038
0E0038
0F0078
07FFF0
03FFE0
01FFC0
ENDCHAR
STARTCHAR 02AB
ENCODING 683
SWIDTH 550 0
DWIDTH 22 0
BBX 18 28 1 0
BITMAP
FE0000
FE0000
FE0000
0E0000
0E0000
0E0000
0E0000
0E0000
0FFFC0
0FFFC0
0FFFC0
0E01C0
0E0380
0E0380
0E0700
0E0E00
0E0E00
0E1C00
0E1C00
0E3800
0E3800
0E7000
0EE000
0EE000
0FC000
0FFFC0
0FFFC0
0FFFC0
ENDCHAR
STARTCHAR 02AC
ENCODING 684
SWIDTH 550 0
DWIDTH 22 0
BBX 15 26 3 0
BITMAP
E00E
E00E
E38E
E38E
638C
66CC
76CC
76DC
7C7C
7C7C
7C7C
787C
0000
0000
E00E
E00E
E38E
E38E
638E
66CC
76CC
76DC
7C7C
7C7C
7C7C
787C
ENDCHAR
STARTCHAR 02AD
ENCODING 685
SWIDTH 550 0
DWIDTH 22 0
BBX 16 25 3 0
BITMAP
FFFF
FFFF
FFFF
E007
E007
E007
E007
E007
E007
E007
0000
0000
0000
0000
0000
FFFF
FFFF
FFFF
E007
E007
E007
E007
E007
E007
E007
ENDCHAR
STARTCHAR 02AE
ENCODING 686
SWIDTH 550 0
DWIDTH 22 0
BBX 20 36 -2 -8
BITMAP
FC0000
FE0000
FE0000
0F0000
070000
070000
070000
070000
070070
070070
070070
070070
070070
070070
070070
070070
070070
070070
070070
070070
070070
070070
0700F0
0781F0
0387F0
03FF70
01FE70
00FC70
000070
000070
000070
000070
000070
000070
000070
000070
ENDCHAR
STARTCHAR 02AF
ENCODING 687
SWIDTH 550 0
DWIDTH 22 0
BBX 25 36 -2 -8
BITMAP
FC000000
FE000000
FE000000
0F000000
07000000
07000000
07000000
07000000
07007000
07007000
07007000
07007000
07007000
07007000
07007000
07007000
07007000
07007000
07007000
07007000
07007000
07007000
0700F000
0781F000
0387F000
03FF7000
01FE7000
00F87000
00007000
00007000
00007000
00007000
00007800
00003F80
00001F80
00000F80
ENDCHAR
STARTCHAR 02B0
ENCODING 688
SWIDTH 550 0
DWIDTH 22 0
BBX 12 16 5 14
BITMAP
E000
E000
E000
E000
E7C0
EFE0
F8F0
F070
E070
E070
E070
E070
E070
E070
E070
E070
ENDCHAR
STARTCHAR 02B1
ENCODING 689
SWIDTH 550 0
DWIDTH 22 0
BBX 12 16 5 14
BITMAP
3F00
7F00
F000
E000
E7C0
FFE0
F8F0
F070
E070
E070
E070
E070
E070
E070
E070
E070
ENDCHAR
STARTCHAR 02B2
ENCODING 690
SWIDTH 550 0
DWIDTH 22 0
BBX 10 22 6 9
BITMAP
0380
03C0
0180
0000
0000
7FC0
7FC0
01C0
01C0
01C0
01C0
01C0
01C0
01C0
01C0
01C0
01C0
01C0
01C0
8380
FF80
FE00
ENDCHAR
STARTCHAR 02B3
ENCODING 691
SWIDTH 550 0
DWIDTH 22 0
BBX 11 12 5 14
BITMAP
E780
EFC0
F9E0
F0E0
E0E0
E000
E000
E000
E000
E000
E000
E000
ENDCHAR
STARTCHAR 02B4
ENCODING 692
SWIDTH 550 0
DWIDTH 22 0
BBX 12 12 5 14
BITMAP
0070
0070
0070
0070
0070
0070
0070
E070
E0F0
F1F0
7F70
3E70
ENDCHAR
STARTCHAR 02B5
ENCODING 693
SWIDTH 550 0
DWIDTH 22 0
BBX 15 17 4 9
BITMAP
0070
0070
0070
0070
0070
0070
0070
E070
E0F0
F1F0
7F70
3E70
0070
0070
0070
003E
001E
ENDCHAR
STARTCHAR 02B6
ENCODING 694
SWIDTH 550 0
DWIDTH 22 0
BBX 11 12 5 14
BITMAP
E0E0
E1C0
E1C0
E380
FF00
FFC0
E1E0
E0E0
E0E0
E1E0
FFC0
FF80
ENDCHAR
STARTCHAR 02B7
ENCODING 695
SWIDTH 550 0
DWIDTH 22 0
BBX 15 12 3 14
BITMAP
C006
C006
C386
C386
E7C6
E6CE
E6EE
EC6E
6C6E
783C
783C
703C
ENDCHAR
STARTCHAR 02B8
ENCODING 696
SWIDTH 550 0
DWIDTH 22 0
BBX 14 17 4 9
BITMAP
E01C
7018
7038
3030
3870
1870
1C60
0CE0
0EC0
07C0
0780
0780
0300
0700
0E00
FC00
F000
ENDCHAR
STARTCHAR 02B9
ENCODING 697
SWIDTH 550 0
DWIDTH 22 0
BBX 8 13 7 15
BITMAP
08
1F
1F
1E
3E
3C
3C
78
78
70
F0
E0
60
ENDCHAR
STARTCHAR 02BA
ENCODING 698
SWIDTH 550 0
DWIDTH 22 0
BBX 19 13 2 15
BITMAP
0C0300
0F83E0
1F07C0
1F07C0
1E0780
3E0F80
3C0F00
3C0F00
781E00
781E00
701C00
E03C00
601800
ENDCHAR
STARTCHAR 02BB
ENCODING 699
SWIDTH 550 0
DWIDTH 22 0
BBX 9 13 8 15
BITMAP
0380
1F80
3F80
7C00
7800
F000
F000
F000
F800
FC00
FC00
7C00
3800
ENDCHAR
STARTCHAR 02BC
ENCODING 700
SWIDTH 550 0
DWIDTH 22 0
BBX 9 13 5 15
BITMAP
0E00
1F00
1F80
1F80
0F80
0780
0780
0780
0F00
1F00
FE00
FC00
E000
ENDCHAR
STARTCHAR 02BD
ENCODING 701
SWIDTH 550 0
DWIDTH 22 0
BBX 9 13 7 15
BITMAP
3800
7C00
FC00
FC00
F800
F000
F000
F000
7800
7C00
3F80
1F80
0380
ENDCHAR
STARTCHAR 02BE
ENCODING 702
SWIDTH 550 0
DWIDTH 22 0
BBX 4 7 9 20
BITMAP
C0
E0
30
30
30
E0
C0
ENDCHAR
STARTCHAR 02BF
ENCODING 703
SWIDTH 550 0
DWIDTH 22 0
BBX 4 7 9 20
BITMAP
30
70
C0
C0
C0
70
30
ENDCHAR
STARTCHAR 02C0
ENCODING 704
SWIDTH 550 0
DWIDTH 22 0
BBX 9 15 6 13
BITMAP
F000
FC00
FE00
1F00
0780
0380
0380
0380
0380
0700
7F00
7C00
7000
7000
7000
ENDCHAR
STARTCHAR 02C1
ENCODING 705
SWIDTH 550 0
DWIDTH 22 0
BBX 9 15 7 13
BITMAP
0780
1F80
3F80
7C00
F000
E000
E000
E000
E000
7000
7F00
1F00
0700
0700
0700
ENDCHAR
STARTCHAR 02C2
ENCODING 706
SWIDTH 550 0
DWIDTH 22 0
BBX 14 22 4 0
BITMAP
0010
0038
007C
00F8
01E0
07C0
0F80
1F00
3E00
7C00
F800
F800
7C00
3E00
1F00
0F80
07C0
01E0
00F0
007C
0038
0010
ENDCHAR
STARTCHAR 02C3
ENCODING 707
SWIDTH 550 0
DWIDTH 22 0
BBX 14 22 4 0
BITMAP
2000
7000
F800
3C00
1E00
0F80
07C0
03E0
01F0
00F8
007C
007C
00F8
01F0
03E0
07C0
0F80
1E00
3C00
F800
7000
2000
ENDCHAR
STARTCHAR 02C4
ENCODING 708
SWIDTH 550 0
DWIDTH 22 0
BBX 21 14 1 16
BITMAP
002000
007000
00F800
01FC00
03FE00
03DE00
078F00
0F0780
1E03C0
3C01E0
7800F0
F00078
E00038
400010
ENDCHAR
STARTCHAR 02C5
ENCODING 709
SWIDTH 550 0
DWIDTH 22 0
BBX 21 14 0 16
BITMAP
400010
E00038
F00078
7800F0
3C01E0
1E03C0
0F0780
078F00
03DE00
01FE00
01FC00
00F800
007000
002000
ENDCHAR
STARTCHAR 02C6
ENCODING 710
SWIDTH 550 0
DWIDTH 22 0
BBX 11 5 5 20
BITMAP
0E00
1F00
3B80
71C0
E0E0
ENDCHAR
STARTCHAR 02C7
ENCODING 711
SWIDTH 550 0
DWIDTH 22 0
BBX 11 5 6 20
BITMAP
E0E0
71C0
3F80
1F00
0E00
ENDCHAR
STARTCHAR 02C8
ENCODING 712
SWIDTH 550 0
DWIDTH 22 0
BBX 3 9 10 22
BITMAP
E0
E0
E0
E0
E0
E0
E0
E0
E0
ENDCHAR
STARTCHAR 02C9
ENCODING 713
SWIDTH 550 0
DWIDTH 22 0
BBX 10 3 6 20
BITMAP
FFC0
FFC0
FFC0
ENDCHAR
STARTCHAR 02CA
ENCODING 714
SWIDTH 550 0
DWIDTH 22 0
BBX 9 5 9 20
BITMAP
0F80
1F00
3E00
7800
F000
ENDCHAR
STARTCHAR 02CB
ENCODING 715
SWIDTH 550 0
DWIDTH 22 0
BBX 8 5 4 20
BITMAP
F0
78
3C
1E
0F
ENDCHAR
STARTCHAR 02CC
ENCODING 716
SWIDTH 550 0
DWIDTH 22 0
BBX 3 9 10 -10
BITMAP
E0
E0
E0
E0
E0
E0
E0
E0
E0
ENDCHAR
STARTCHAR 02CD
ENCODING 717
SWIDTH 550 0
DWIDTH 22 0
BBX 10 3 6 -9
BITMAP
FFC0
FFC0
FFC0
ENDCHAR
STARTCHAR 02CE
ENCODING 718
SWIDTH 550 0
DWIDTH 22 0
BBX 8 5 4 -10
BITMAP
F0
78
3C
1E
0F
ENDCHAR
STARTCHAR 02CF
ENCODING 719
SWIDTH 550 0
DWIDTH 22 0
BBX 9 5 9 -10
BITMAP
0F80
1F00
3E00
7800
F000
ENDCHAR
STARTCHAR 02D0
ENCODING 720
SWIDTH 550 0
DWIDTH 22 0
BBX 5 19 8 0
BITMAP
F8
70
70
20
00
00
00
00
00
00
00
00
00
00
00
20
70
70
F8
ENDCHAR
STARTCHAR 02D1
ENCODING 721
SWIDTH 550 0
DWIDTH 22 0
BBX 6 4 8 7
BITMAP
FC
78
30
30
ENDCHAR
STARTCHAR 02D2
ENCODING 722
SWIDTH 550 0
DWIDTH 22 0
BBX 4 7 9 5
BITMAP
C0
E0
30
30
30
E0
C0
ENDCHAR
STARTCHAR 02D3
ENCODING 723
SWIDTH 550 0
DWIDTH 22 0
BBX 4 7 9 5
BITMAP
30
70
C0
C0
C0
70
30
ENDCHAR
STARTCHAR 02D4
ENCODING 724
SWIDTH 550 0
DWIDTH 22 0
BBX 8 7 7 6
BITMAP
18
18
18
18
18
FF
FF
ENDCHAR
STARTCHAR 02D5
ENCODING 725
SWIDTH 550 0
DWIDTH 22 0
BBX 8 7 7 6
BITMAP
FF
FF
18
18
18
18
18
ENDCHAR
STARTCHAR 02D6
ENCODING 726
SWIDTH 550 0
DWIDTH 22 0
BBX 8 8 7 5
BITMAP
18
18
18
FF
FF
18
18
18
ENDCHAR
STARTCHAR 02D7
ENCODING 727
SWIDTH 550 0
DWIDTH 22 0
BBX 8 2 7 8
BITMAP
FF
FF
ENDCHAR
STARTCHAR 02D8
ENCODING 728
SWIDTH 550 0
DWIDTH 22 0
BBX 10 5 6 20
BITMAP
E1C0
F3C0
7F80
7F80
1E00
ENDCHAR
STARTCHAR 02D9
ENCODING 729
SWIDTH 550 0
DWIDTH 22 0
BBX 5 5 8 20
BITMAP
70
F8
F8
F8
70
ENDCHAR
STARTCHAR 02DA
ENCODING 730
SWIDTH 550 0
DWIDTH 22 0
BBX 8 8 7 20
BITMAP
3C
7E
E7
C3
C3
E7
7E
3C
ENDCHAR
STARTCHAR 02DB
ENCODING 731
SWIDTH 550 0
DWIDTH 22 0
BBX 6 8 14 -8
BITMAP
38
70
E0
E0
E0
E0
7C
3C
ENDCHAR
STARTCHAR 02DC
ENCODING 732
SWIDTH 550 0
DWIDTH 22 0
BBX 14 5 4 20
BITMAP
3E08
7F1C
FFFC
E3F8
41F0
ENDCHAR
STARTCHAR 02DD
ENCODING 733
SWIDTH 550 0
DWIDTH 22 0
BBX 16 5 5 20
BITMAP
0F0F
1E1E
3C3C
7878
F0F0
ENDCHAR
STARTCHAR 02DE
ENCODING 734
SWIDTH 550 0
DWIDTH 22 0
BBX 9 5 7 9
BITMAP
3000
F800
F800
9F80
0780
ENDCHAR
STARTCHAR 02DF
ENCODING 735
SWIDTH 550 0
DWIDTH 22 0
BBX 8 8 7 21
BITMAP
42
E7
7E
3C
3C
7E
E7
42
ENDCHAR
STARTCHAR 02E0
ENCODING 736
SWIDTH 550 0
DWIDTH 22 0
BBX 14 17 4 9
BITMAP
E01C
7018
3038
3870
1C60
0EE0
0EC0
07C0
0380
07C0
06C0
0E60
0C60
0C60
0C60
07C0
0380
ENDCHAR
STARTCHAR 02E1
ENCODING 737
SWIDTH 550 0
DWIDTH 22 0
BBX 10 16 6 14
BITMAP
FE00
FE00
0E00
0E00
0E00
0E00
0E00
0E00
0E00
0E00
0E00
0E00
0E00
0E00
FFC0
FFC0
ENDCHAR
STARTCHAR 02E2
ENCODING 738
SWIDTH 550 0
DWIDTH 22 0
BBX 10 12 6 14
BITMAP
3F80
7F80
E000
E000
F000
7F00
1F80
03C0
01C0
03C0
FF80
FF00
ENDCHAR
STARTCHAR 02E3
ENCODING 739
SWIDTH 550 0
DWIDTH 22 0
BBX 12 12 5 14
BITMAP
6060
70E0
39C0
1980
1F80
0F00
0F00
1F80
1980
39C0
70E0
E070
ENDCHAR
STARTCHAR 02E4
ENCODING 740
SWIDTH 550 0
DWIDTH 22 0
BBX 9 12 7 14
BITMAP
0F80
3F80
7800
E000
E000
E000
F000
7F00
1F00
0300
0300
0300
ENDCHAR
STARTCHAR 02E5
ENCODING 741
SWIDTH 550 0
DWIDTH 22 0
BBX 9 27 7 0
BITMAP
FF80
FF80
FF80
0380
0380
0380
0380
0380
0380
0380
0380
0380
0380
0380
0380
0380
0380
0380
0380
0380
0380
0380
0380
0380
0380
0380
0380
ENDCHAR
STARTCHAR 02E6
ENCODING 742
SWIDTH 550 0
DWIDTH 22 0
BBX 9 27 7 0
BITMAP
0380
0380
0380
0380
0380
0380
FF80
FF80
FF80
0380
0380
0380
0380
0380
0380
0380
0380
0380
0380
0380
0380
0380
0380
0380
0380
0380
0380
ENDCHAR
STARTCHAR 02E7
ENCODING 743
SWIDTH 550 0
DWIDTH 22 0
BBX 9 27 7 0
BITMAP
0380
0380
0380
0380
0380
0380
0380
0380
0380
0380
0380
0380
FF80
FF80
FF80
0380
0380
0380
0380
0380
0380
0380
0380
0380
0380
0380
0380
ENDCHAR
STARTCHAR 02E8
ENCODING 744
SWIDTH 550 0
DWIDTH 22 0
BBX 9 27 7 0
BITMAP
0380
0380
0380
0380
0380
0380
0380
0380
0380
0380
0380
0380
0380
0380
0380
0380
0380
0380
FF80
FF80
FF80
0380
0380
0380
0380
0380
0380
ENDCHAR
STARTCHAR 02E9
ENCODING 745
SWIDTH 550 0
DWIDTH 22 0
BBX 9 27 7 0
BITMAP
0380
0380
0380
0380
0380
0380
0380
0380
0380
0380
0380
0380
0380
0380
0380
0380
0380
0380
0380
0380
0380
0380
0380
0380
FF80
FF80
FF80
ENDCHAR
STARTCHAR 02EA
ENCODING 746
SWIDTH 550 0
DWIDTH 22 0
BBX 10 17 6 0
BITMAP
C000
C000
C000
C000
C000
C000
C000
C000
C000
C000
C000
C000
C000
C000
C000
FFC0
FFC0
ENDCHAR
STARTCHAR 02EB
ENCODING 747
SWIDTH 550 0
DWIDTH 22 0
BBX 10 17 6 0
BITMAP
C000
C000
C000
C000
C000
C000
C000
C000
FFC0
FFC0
C000
C000
C000
C000
C000
C000
C000
ENDCHAR
STARTCHAR 02EC
ENCODING 748
SWIDTH 550 0
DWIDTH 22 0
BBX 11 5 6 -10
BITMAP
E0E0
71C0
3F80
1F00
0E00
ENDCHAR
STARTCHAR 02ED
ENCODING 749
SWIDTH 550 0
DWIDTH 22 0
BBX 22 8 0 23
BITMAP
FFFFFC
FFFFFC
FFFFFC
000000
000000
FFFFFC
FFFFFC
FFFFFC
ENDCHAR
STARTCHAR 02EE
ENCODING 750
SWIDTH 550 0
DWIDTH 22 0
BBX 20 12 1 16
BITMAP
0E01C0
1F03E0
1F83F0
1F83F0
0F81F0
0780F0
0780F0
0F01E0
1F03E0
FE1FC0
FC1F80
E01C00
ENDCHAR
STARTCHAR 02EF
ENCODING 751
SWIDTH 550 0
DWIDTH 22 0
BBX 8 5 7 -7
BITMAP
C3
66
3C
3C
18
ENDCHAR
STARTCHAR 02F0
ENCODING 752
SWIDTH 550 0
DWIDTH 22 0
BBX 8 5 7 -7
BITMAP
18
3C
3C
66
C3
ENDCHAR
STARTCHAR 02F1
ENCODING 753
SWIDTH 550 0
DWIDTH 22 0
BBX 5 8 8 -9
BITMAP
08
18
70
E0
E0
70
18
08
ENDCHAR
STARTCHAR 02F2
ENCODING 754
SWIDTH 550 0
DWIDTH 22 0
BBX 5 8 8 -9
BITMAP
80
C0
70
38
38
70
C0
80
ENDCHAR
STARTCHAR 02F3
ENCODING 755
SWIDTH 550 0
DWIDTH 22 0
BBX 8 7 7 -9
BITMAP
3C
7E
C3
C3
C3
FE
3C
ENDCHAR
STARTCHAR 02F4
ENCODING 756
SWIDTH 550 0
DWIDTH 22 0
BBX 8 5 4 6
BITMAP
F0
78
3C
1E
0F
ENDCHAR
STARTCHAR 02F5
ENCODING 757
SWIDTH 550 0
DWIDTH 22 0
BBX 16 5 1 8
BITMAP
F0F0
7878
3C3C
1E1E
0F0F
ENDCHAR
STARTCHAR 02F6
ENCODING 758
SWIDTH 550 0
DWIDTH 22 0
BBX 16 5 5 6
BITMAP
0F0F
1E1E
3C3C
7878
F0F0
ENDCHAR
STARTCHAR 02F7
ENCODING 759
SWIDTH 550 0
DWIDTH 22 0
BBX 14 5 4 -10
BITMAP
3E08
7F1C
FFFC
E3F8
41F0
ENDCHAR
STARTCHAR 02F8
ENCODING 760
SWIDTH 550 0
DWIDTH 22 0
BBX 6 20 8 6
BITMAP
78
FC
FC
FC
FC
78
00
00
00
00
00
00
00
00
78
FC
FC
FC
FC
78
ENDCHAR
STARTCHAR 02F9
ENCODING 761
SWIDTH 550 0
DWIDTH 22 0
BBX 7 7 7 20
BITMAP
FE
FE
C0
C0
C0
C0
C0
ENDCHAR
STARTCHAR 02FA
ENCODING 762
SWIDTH 550 0
DWIDTH 22 0
BBX 7 7 8 20
BITMAP
FE
FE
06
06
06
06
06
ENDCHAR
STARTCHAR 02FB
ENCODING 763
SWIDTH 550 0
DWIDTH 22 0
BBX 7 7 7 0
BITMAP
C0
C0
C0
C0
C0
FE
FE
ENDCHAR
STARTCHAR 02FC
ENCODING 764
SWIDTH 550 0
DWIDTH 22 0
BBX 7 7 8 0
BITMAP
06
06
06
06
06
FE
FE
ENDCHAR
STARTCHAR 02FD
ENCODING 765
SWIDTH 550 0
DWIDTH 22 0
BBX 21 7 1 -8
BITMAP
E00038
E00038
E00038
E00038
FFFFF8
FFFFF8
FFFFF8
ENDCHAR
STARTCHAR 02FE
ENCODING 766
SWIDTH 550 0
DWIDTH 22 0
BBX 20 7 1 -8
BITMAP
E00000
E00000
E00000
E00000
FFFFF0
FFFFF0
FFFFF0
ENDCHAR
STARTCHAR 02FF
ENCODING 767
SWIDTH 550 0
DWIDTH 22 0
BBX 9 8 6 -9
BITMAP
1000
3000
6000
FF80
FF80
6000
3000
1000
ENDCHAR
STARTCHAR 0300
ENCODING 768
SWIDTH 550 0
DWIDTH 22 0
BBX 8 5 7 20
BITMAP
F0
78
3C
1E
0F
ENDCHAR
STARTCHAR 0301
ENCODING 769
SWIDTH 550 0
DWIDTH 22 0
BBX 9 5 6 20
BITMAP
0F80
1F00
3E00
7800
F000
ENDCHAR
STARTCHAR 0302
ENCODING 770
SWIDTH 550 0
DWIDTH 22 0
BBX 11 5 5 20
BITMAP
0E00
1F00
3B80
71C0
E0E0
ENDCHAR
STARTCHAR 0303
ENCODING 771
SWIDTH 550 0
DWIDTH 22 0
BBX 14 5 4 20
BITMAP
3E08
7F1C
FFFC
E3F8
41F0
ENDCHAR
STARTCHAR 0304
ENCODING 772
SWIDTH 550 0
DWIDTH 22 0
BBX 10 3 6 20
BITMAP
FFC0
FFC0
FFC0
ENDCHAR
STARTCHAR 0305
ENCODING 773
SWIDTH 550 0
DWIDTH 22 0
BBX 22 3 0 30
BITMAP
FFFFFC
FFFFFC
FFFFFC
ENDCHAR
STARTCHAR 0306
ENCODING 774
SWIDTH 550 0
DWIDTH 22 0
BBX 10 5 6 20
BITMAP
E1C0
F3C0
7F80
7F80
1E00
ENDCHAR
STARTCHAR 0307
ENCODING 775
SWIDTH 550 0
DWIDTH 22 0
BBX 5 5 8 20
BITMAP
70
F8
F8
F8
70
ENDCHAR
STARTCHAR 0308
ENCODING 776
SWIDTH 550 0
DWIDTH 22 0
BBX 13 4 5 20
BITMAP
7070
F8F8
F8F8
7070
ENDCHAR
STARTCHAR 0309
ENCODING 777
SWIDTH 550 0
DWIDTH 22 0
BBX 6 9 8 22
BITMAP
E0
F8
3C
1C
1C
7C
78
60
60
ENDCHAR
STARTCHAR 030A
ENCODING 778
SWIDTH 550 0
DWIDTH 22 0
BBX 8 8 7 20
BITMAP
3C
7E
E7
C3
C3
E7
7E
3C
ENDCHAR
STARTCHAR 030B
ENCODING 779
SWIDTH 550 0
DWIDTH 22 0
BBX 16 5 3 20
BITMAP
0F0F
1E1E
3C3C
7878
F0F0
ENDCHAR
STARTCHAR 030C
ENCODING 780
SWIDTH 550 0
DWIDTH 22 0
BBX 11 5 6 20
BITMAP
E0E0
71C0
3F80
1F00
0E00
ENDCHAR
STARTCHAR 030D
ENCODING 781
SWIDTH 550 0
DWIDTH 22 0
BBX 3 10 10 20
BITMAP
E0
E0
E0
E0
E0
E0
E0
E0
E0
E0
ENDCHAR
STARTCHAR 030E
ENCODING 782
SWIDTH 550 0
DWIDTH 22 0
BBX 9 10 7 20
BITMAP
E380
E380
E380
E380
E380
E380
E380
E380
E380
E380
ENDCHAR
STARTCHAR 030F
ENCODING 783
SWIDTH 550 0
DWIDTH 22 0
BBX 16 5 1 20
BITMAP
F0F0
7878
3C3C
1E1E
0F0F
ENDCHAR
STARTCHAR 0310
ENCODING 784
SWIDTH 550 0
DWIDTH 22 0
BBX 14 9 4 23
BITMAP
0300
0780
0780
E31C
F03C
7878
7FF8
3FF0
0FC0
ENDCHAR
STARTCHAR 0311
ENCODING 785
SWIDTH 550 0
DWIDTH 22 0
BBX 10 5 6 20
BITMAP
1E00
7F80
7F80
F3C0
E1C0
ENDCHAR
STARTCHAR 0312
ENCODING 786
SWIDTH 550 0
DWIDTH 22 0
BBX 5 6 9 20
BITMAP
38
78
70
70
F0
E0
ENDCHAR
STARTCHAR 0313
ENCODING 787
SWIDTH 550 0
DWIDTH 22 0
BBX 5 7 9 21
BITMAP
70
F8
F8
78
38
30
E0
ENDCHAR
STARTCHAR 0314
ENCODING 788
SWIDTH 550 0
DWIDTH 22 0
BBX 5 7 9 21
BITMAP
70
F8
F8
F0
E0
60
38
ENDCHAR
STARTCHAR 0315
ENCODING 789
SWIDTH 550 0
DWIDTH 22 0
BBX 5 6 19 20
BITMAP
38
78
70
70
F0
E0
ENDCHAR
STARTCHAR 0316
ENCODING 790
SWIDTH 550 0
DWIDTH 22 0
BBX 8 5 7 -9
BITMAP
F0
78
3C
1E
0F
ENDCHAR
STARTCHAR 0317
ENCODING 791
SWIDTH 550 0
DWIDTH 22 0
BBX 9 5 6 -9
BITMAP
0F80
1F00
3E00
7800
F000
ENDCHAR
STARTCHAR 0318
ENCODING 792
SWIDTH 550 0
DWIDTH 22 0
BBX 8 8 7 -10
BITMAP
03
03
03
FF
FF
03
03
03
ENDCHAR
STARTCHAR 0319
ENCODING 793
SWIDTH 550 0
DWIDTH 22 0
BBX 8 8 7 -10
BITMAP
C0
C0
C0
FF
FF
C0
C0
C0
ENDCHAR
STARTCHAR 031A
ENCODING 794
SWIDTH 550 0
DWIDTH 22 0
BBX 7 7 8 22
BITMAP
FE
FE
06
06
06
06
06
ENDCHAR
STARTCHAR 031B
ENCODING 795
SWIDTH 550 0
DWIDTH 22 0
BBX 6 9 8 12
BITMAP
1C
1C
1C
1C
1C
18
38
F0
C0
ENDCHAR
STARTCHAR 031C
ENCODING 796
SWIDTH 550 0
DWIDTH 22 0
BBX 4 7 9 -9
BITMAP
30
70
C0
C0
C0
70
30
ENDCHAR
STARTCHAR 031D
ENCODING 797
SWIDTH 550 0
DWIDTH 22 0
BBX 8 7 7 -9
BITMAP
18
18
18
18
18
FF
FF
ENDCHAR
STARTCHAR 031E
ENCODING 798
SWIDTH 550 0
DWIDTH 22 0
BBX 8 7 7 -9
BITMAP
FF
FF
18
18
18
18
18
ENDCHAR
STARTCHAR 031F
ENCODING 799
SWIDTH 550 0
DWIDTH 22 0
BBX 8 8 7 -9
BITMAP
18
18
18
FF
FF
18
18
18
ENDCHAR
STARTCHAR 0320
ENCODING 800
SWIDTH 550 0
DWIDTH 22 0
BBX 8 2 7 -6
BITMAP
FF
FF
ENDCHAR
STARTCHAR 0321
ENCODING 801
SWIDTH 550 0
DWIDTH 22 0
BBX 8 8 7 -8
BITMAP
07
07
07
07
67
FF
7E
3C
ENDCHAR
STARTCHAR 0322
ENCODING 802
SWIDTH 550 0
DWIDTH 22 0
BBX 8 8 7 -8
BITMAP
E0
E0
E0
E0
E6
FF
7E
3C
ENDCHAR
STARTCHAR 0323
ENCODING 803
SWIDTH 550 0
DWIDTH 22 0
BBX 5 5 8 -8
BITMAP
70
F8
F8
F8
70
ENDCHAR
STARTCHAR 0324
ENCODING 804
SWIDTH 550 0
DWIDTH 22 0
BBX 14 4 5 -6
BITMAP
7038
F87C
F87C
7038
ENDCHAR
STARTCHAR 0325
ENCODING 805
SWIDTH 550 0
DWIDTH 22 0
BBX 8 7 7 -9
BITMAP
3C
7E
C3
C3
C3
FE
3C
ENDCHAR
STARTCHAR 0326
ENCODING 806
SWIDTH 550 0
DWIDTH 22 0
BBX 5 6 8 -8
BITMAP
38
78
70
70
F0
E0
ENDCHAR
STARTCHAR 0327
ENCODING 807
SWIDTH 550 0
DWIDTH 22 0
BBX 5 6 8 -6
BITMAP
38
78
70
70
F0
E0
ENDCHAR
STARTCHAR 0328
ENCODING 808
SWIDTH 550 0
DWIDTH 22 0
BBX 6 8 8 -8
BITMAP
38
70
E0
E0
E0
E0
7C
3C
ENDCHAR
STARTCHAR 0329
ENCODING 809
SWIDTH 550 0
DWIDTH 22 0
BBX 3 8 10 -10
BITMAP
E0
E0
E0
E0
E0
E0
E0
E0
ENDCHAR
STARTCHAR 032A
ENCODING 810
SWIDTH 550 0
DWIDTH 22 0
BBX 12 5 5 -7
BITMAP
FFF0
FFF0
C030
C030
C030
ENDCHAR
STARTCHAR 032B
ENCODING 811
SWIDTH 550 0
DWIDTH 22 0
BBX 12 4 5 -6
BITMAP
C630
C630
FFF0
79E0
ENDCHAR
STARTCHAR 032C
ENCODING 812
SWIDTH 550 0
DWIDTH 22 0
BBX 11 5 6 -9
BITMAP
E0E0
71C0
3F80
1F00
0E00
ENDCHAR
STARTCHAR 032D
ENCODING 813
SWIDTH 550 0
DWIDTH 22 0
BBX 11 5 5 -9
BITMAP
0E00
1F00
3B80
71C0
E0E0
ENDCHAR
STARTCHAR 032E
ENCODING 814
SWIDTH 550 0
DWIDTH 22 0
BBX 10 5 6 -9
BITMAP
E1C0
F3C0
7F80
7F80
1E00
ENDCHAR
STARTCHAR 032F
ENCODING 815
SWIDTH 550 0
DWIDTH 22 0
BBX 10 5 6 -9
BITMAP
1E00
7F80
7F80
F3C0
E1C0
ENDCHAR
STARTCHAR 0330
ENCODING 816
SWIDTH 550 0
DWIDTH 22 0
BBX 14 5 4 -9
BITMAP
3E08
7F1C
FFFC
E3F8
41F0
ENDCHAR
STARTCHAR 0331
ENCODING 817
SWIDTH 550 0
DWIDTH 22 0
BBX 10 3 6 -4
BITMAP
FFC0
FFC0
FFC0
ENDCHAR
STARTCHAR 0332
ENCODING 818
SWIDTH 550 0
DWIDTH 22 0
BBX 22 3 0 -8
BITMAP
FFFFFC
FFFFFC
FFFFFC
ENDCHAR
STARTCHAR 0333
ENCODING 819
SWIDTH 550 0
DWIDTH 22 0
BBX 22 8 0 -10
BITMAP
FFFFFC
FFFFFC
FFFFFC
000000
000000
FFFFFC
FFFFFC
FFFFFC
ENDCHAR
STARTCHAR 0334
ENCODING 820
SWIDTH 550 0
DWIDTH 22 0
BBX 14 5 4 5
BITMAP
3E08
7F1C
FFFC
E3F8
41F0
ENDCHAR
STARTCHAR 0335
ENCODING 821
SWIDTH 550 0
DWIDTH 22 0
BBX 12 3 5 8
BITMAP
FFF0
FFF0
FFF0
ENDCHAR
STARTCHAR 0336
ENCODING 822
SWIDTH 550 0
DWIDTH 22 0
BBX 17 3 3 8
BITMAP
FFFF80
FFFF80
FFFF80
ENDCHAR
STARTCHAR 0337
ENCODING 823
SWIDTH 550 0
DWIDTH 22 0
BBX 20 24 1 -3
BITMAP
0000F0
0001E0
0001C0
0003C0
000780
000700
000F00
001E00
001C00
003C00
007800
007000
00E000
01E000
03C000
038000
078000
0F0000
0E0000
1E0000
3C0000
380000
780000
F00000
ENDCHAR
STARTCHAR 0338
ENCODING 824
SWIDTH 550 0
DWIDTH 22 0
BBX 26 31 -2 -3
BITMAP
000003C0
00000780
00000F00
00000F00
00001E00
00003C00
00003800
00007800
0000F000
0001E000
0001C000
0003C000
00078000
00070000
000F0000
001E0000
003C0000
00380000
00780000
00F00000
00E00000
01E00000
03C00000
07800000
07000000
0F000000
1E000000
1C000000
3C000000
78000000
F0000000
ENDCHAR
STARTCHAR 0339
ENCODING 825
SWIDTH 550 0
DWIDTH 22 0
BBX 4 7 9 -9
BITMAP
C0
E0
30
30
30
E0
C0
ENDCHAR
STARTCHAR 033A
ENCODING 826
SWIDTH 550 0
DWIDTH 22 0
BBX 13 5 5 -7
BITMAP
C018
C018
C018
FFF8
FFF8
ENDCHAR
STARTCHAR 033B
ENCODING 827
SWIDTH 550 0
DWIDTH 22 0
BBX 8 8 7 -10
BITMAP
FF
FF
C3
C3
C3
C3
FF
FF
ENDCHAR
STARTCHAR 033C
ENCODING 828
SWIDTH 550 0
DWIDTH 22 0
BBX 12 4 5 -6
BITMAP
79E0
FFF0
C630
0600
ENDCHAR
STARTCHAR 033D
ENCODING 829
SWIDTH 550 0
DWIDTH 22 0
BBX 8 8 7 21
BITMAP
42
E7
7E
3C
3C
7E
E7
42
ENDCHAR
STARTCHAR 033E
ENCODING 830
SWIDTH 550 0
DWIDTH 22 0
BBX 6 13 8 21
BITMAP
3C
7C
E0
E0
E0
F0
78
3C
1C
1C
1C
F8
F0
ENDCHAR
STARTCHAR 033F
ENCODING 831
SWIDTH 550 0
DWIDTH 22 0
BBX 22 7 0 27
BITMAP
FFFFFC
FFFFFC
FFFFFC
000000
FFFFFC
FFFFFC
FFFFFC
ENDCHAR
STARTCHAR 0340
ENCODING 832
SWIDTH 550 0
DWIDTH 22 0
BBX 8 5 7 20
BITMAP
F0
78
3C
1E
0F
ENDCHAR
STARTCHAR 0341
ENCODING 833
SWIDTH 550 0
DWIDTH 22 0
BBX 9 5 6 20
BITMAP
0F80
1F00
3E00
7800
F000
ENDCHAR
STARTCHAR 0342
ENCODING 834
SWIDTH 550 0
DWIDTH 22 0
BBX 14 5 4 20
BITMAP
3E08
7F1C
FFFC
E3F8
41F0
ENDCHAR
STARTCHAR 0343
ENCODING 835
SWIDTH 550 0
DWIDTH 22 0
BBX 5 7 9 21
BITMAP
70
F8
F8
78
38
30
E0
ENDCHAR
STARTCHAR 0344
ENCODING 836
SWIDTH 550 0
DWIDTH 22 0
BBX 16 5 4 20
BITMAP
01E0
63C6
F3CF
F38F
6706
ENDCHAR
STARTCHAR 0345
ENCODING 837
SWIDTH 550 0
DWIDTH 22 0
BBX 8 8 7 -8
BITMAP
E0
E0
E0
E0
E6
FF
7E
3C
ENDCHAR
STARTCHAR 0346
ENCODING 838
SWIDTH 550 0
DWIDTH 22 0
BBX 12 5 5 21
BITMAP
FFF0
FFF0
C030
C030
C030
ENDCHAR
STARTCHAR 0347
ENCODING 839
SWIDTH 550 0
DWIDTH 22 0
BBX 22 8 0 -10
BITMAP
FFFFFC
FFFFFC
FFFFFC
000000
000000
FFFFFC
FFFFFC
FFFFFC
ENDCHAR
STARTCHAR 0348
ENCODING 840
SWIDTH 550 0
DWIDTH 22 0
BBX 9 10 7 -11
BITMAP
E380
E380
E380
E380
E380
E380
E380
E380
E380
E380
ENDCHAR
STARTCHAR 0349
ENCODING 841
SWIDTH 550 0
DWIDTH 22 0
BBX 7 7 8 -7
BITMAP
FE
FE
06
06
06
06
06
ENDCHAR
STARTCHAR 034A
ENCODING 842
SWIDTH 550 0
DWIDTH 22 0
BBX 14 8 4 23
BITMAP
0180
3DC8
7F9C
FFFC
E7F8
47F0
0E00
0600
ENDCHAR
STARTCHAR 034B
ENCODING 843
SWIDTH 550 0
DWIDTH 22 0
BBX 14 13 4 23
BITMAP
0300
0780
0780
0300
3E08
7F1C
FFFC
E3F8
41F0
0300
0780
0780
0300
ENDCHAR
STARTCHAR 034C
ENCODING 844
SWIDTH 550 0
DWIDTH 22 0
BBX 14 11 4 20
BITMAP
3E08
7F1C
FFFC
E3F8
41F0
0000
3E08
7F1C
FFFC
E3F8
41F0
ENDCHAR
STARTCHAR 034D
ENCODING 845
SWIDTH 550 0
DWIDTH 22 0
BBX 19 8 1 -9
BITMAP
100100
300180
7001C0
FFFFE0
FFFFE0
7001C0
300180
100100
ENDCHAR
STARTCHAR 034E
ENCODING 846
SWIDTH 550 0
DWIDTH 22 0
BBX 8 8 7 -10
BITMAP
18
3C
7E
FF
18
18
18
18
ENDCHAR
STARTCHAR 034F
ENCODING 847
SWIDTH 550 0
DWIDTH 22 0
BBX 0 0 0 0
BITMAP
ENDCHAR
STARTCHAR 0350
ENCODING 848
SWIDTH 550 0
DWIDTH 22 0
BBX 5 8 9 21
BITMAP
80
C0
70
38
38
70
C0
80
ENDCHAR
STARTCHAR 0351
ENCODING 849
SWIDTH 550 0
DWIDTH 22 0
BBX 4 7 9 20
BITMAP
30
70
C0
C0
C0
70
30
ENDCHAR
STARTCHAR 0352
ENCODING 850
SWIDTH 550 0
DWIDTH 22 0
BBX 14 9 4 21
BITMAP
0FC0
3FF0
7FF8
7878
F03C
E31C
0780
0780
0300
ENDCHAR
STARTCHAR 0353
ENCODING 851
SWIDTH 550 0
DWIDTH 22 0
BBX 8 8 7 -9
BITMAP
42
E7
7E
3C
3C
7E
E7
42
ENDCHAR
STARTCHAR 0354
ENCODING 852
SWIDTH 550 0
DWIDTH 22 0
BBX 5 8 8 -9
BITMAP
08
18
70
E0
E0
70
18
08
ENDCHAR
STARTCHAR 0355
ENCODING 853
SWIDTH 550 0
DWIDTH 22 0
BBX 5 8 9 -9
BITMAP
80
C0
70
38
38
70
C0
80
ENDCHAR
STARTCHAR 0356
ENCODING 854
SWIDTH 550 0
DWIDTH 22 0
BBX 13 8 4 -9
BITMAP
8000
C0C0
71E0
39E0
3B30
7618
C000
8000
ENDCHAR
STARTCHAR 0357
ENCODING 855
SWIDTH 550 0
DWIDTH 22 0
BBX 4 8 9 20
BITMAP
C0
E0
70
30
30
70
E0
C0
ENDCHAR
STARTCHAR 0358
ENCODING 856
SWIDTH 550 0
DWIDTH 22 0
BBX 5 5 8 20
BITMAP
70
F8
F8
F8
70
ENDCHAR
STARTCHAR 0359
ENCODING 857
SWIDTH 550 0
DWIDTH 22 0
BBX 7 8 8 -9
BITMAP
10
10
D6
38
38
D6
10
10
ENDCHAR
STARTCHAR 035A
ENCODING 858
SWIDTH 550 0
DWIDTH 22 0
BBX 14 7 4 -9
BITMAP
3CF0
7FF8
C30C
C30C
C30C
FFF8
3CF0
ENDCHAR
STARTCHAR 035B
ENCODING 859
SWIDTH 550 0
DWIDTH 22 0
BBX 7 10 7 21
BITMAP
30
70
60
60
FE
FE
0C
0C
1C
18
ENDCHAR
STARTCHAR 035C
ENCODING 860
SWIDTH 550 0
DWIDTH 22 0
BBX 22 7 0 -9
BITMAP
400008
E0001C
780078
3E01F0
1FFFE0
07FF80
01FE00
ENDCHAR
STARTCHAR 035D
ENCODING 861
SWIDTH 550 0
DWIDTH 22 0
BBX 22 7 0 20
BITMAP
400008
E0001C
780078
3E01F0
1FFFE0
07FF80
01FE00
ENDCHAR
STARTCHAR 035E
ENCODING 862
SWIDTH 550 0
DWIDTH 22 0
BBX 20 3 1 20
BITMAP
FFFFF0
FFFFF0
FFFFF0
ENDCHAR
STARTCHAR 035F
ENCODING 863
SWIDTH 550 0
DWIDTH 22 0
BBX 20 3 1 -12
BITMAP
FFFFF0
FFFFF0
FFFFF0
ENDCHAR
STARTCHAR 0360
ENCODING 864
SWIDTH 550 0
DWIDTH 22 0
BBX 19 6 1 20
BITMAP
1F00E0
3FC0E0
7FF1E0
F1FFC0
E07F80
E01F00
ENDCHAR
STARTCHAR 0361
ENCODING 865
SWIDTH 550 0
DWIDTH 22 0
BBX 22 7 0 20
BITMAP
01FE00
07FF80
1FFFE0
3E01F0
780078
E0001C
400008
ENDCHAR
STARTCHAR 0362
ENCODING 866
SWIDTH 550 0
DWIDTH 22 0
BBX 22 8 0 -9
BITMAP
000020
000030
000038
FFFFFC
FFFFFC
000038
000030
000020
ENDCHAR
STARTCHAR 0363
ENCODING 867
SWIDTH 550 0
DWIDTH 22 0
BBX 9 10 6 20
BITMAP
3E00
7F00
4380
0180
3F80
7F80
C180
C380
FF80
7D80
ENDCHAR
STARTCHAR 0364
ENCODING 868
SWIDTH 550 0
DWIDTH 22 0
BBX 10 10 6 20
BITMAP
1E00
7F80
6180
C0C0
FFC0
FFC0
C000
E000
7F80
1F00
ENDCHAR
STARTCHAR 0365
ENCODING 869
SWIDTH 550 0
DWIDTH 22 0
BBX 8 15 7 20
BITMAP
38
38
38
00
00
F8
F8
18
18
18
18
18
18
FF
FF
ENDCHAR
STARTCHAR 0366
ENCODING 870
SWIDTH 550 0
DWIDTH 22 0
BBX 10 10 6 20
BITMAP
1E00
7F80
61C0
C0C0
C0C0
C0C0
C0C0
E180
7F80
1E00
ENDCHAR
STARTCHAR 0367
ENCODING 871
SWIDTH 550 0
DWIDTH 22 0
BBX 9 10 7 20
BITMAP
C180
C180
C180
C180
C180
C180
C180
E380
FF80
7980
ENDCHAR
STARTCHAR 0368
ENCODING 872
SWIDTH 550 0
DWIDTH 22 0
BBX 8 10 7 20
BITMAP
1F
7F
60
C0
C0
C0
C0
E0
7F
3F
ENDCHAR
STARTCHAR 0369
ENCODING 873
SWIDTH 550 0
DWIDTH 22 0
BBX 9 14 6 20
BITMAP
0180
0180
0180
0180
1F80
7F80
6180
C180
C180
C180
C180
E380
7F80
3D80
ENDCHAR
STARTCHAR 036A
ENCODING 874
SWIDTH 550 0
DWIDTH 22 0
BBX 9 14 7 20
BITMAP
C000
C000
C000
C000
DE00
FF00
F380
C180
C180
C180
C180
C180
C180
C180
ENDCHAR
STARTCHAR 036B
ENCODING 875
SWIDTH 550 0
DWIDTH 22 0
BBX 11 10 5 20
BITMAP
DCC0
FFE0
E760
C660
C660
C660
C660
C660
C660
C660
ENDCHAR
STARTCHAR 036C
ENCODING 876
SWIDTH 550 0
DWIDTH 22 0
BBX 9 10 6 20
BITMAP
CE00
FF00
F180
C180
C000
C000
C000
C000
C000
C000
ENDCHAR
STARTCHAR 036D
ENCODING 877
SWIDTH 550 0
DWIDTH 22 0
BBX 10 13 6 20
BITMAP
1800
1800
1800
FFC0
FFC0
1800
1800
1800
1800
1800
1C00
1FC0
07C0
ENDCHAR
STARTCHAR 036E
ENCODING 878
SWIDTH 550 0
DWIDTH 22 0
BBX 11 10 6 20
BITMAP
C060
60C0
60C0
3180
3180
3180
1B00
1B00
0E00
0E00
ENDCHAR
STARTCHAR 036F
ENCODING 879
SWIDTH 550 0
DWIDTH 22 0
BBX 11 10 6 20
BITMAP
E0E0
71C0
3980
1B00
0E00
0E00
1B00
3380
71C0
E0E0
ENDCHAR
STARTCHAR 0374
ENCODING 884
SWIDTH 550 0
DWIDTH 22 0
BBX 10 14 5 14
BITMAP
0380
07C0
07C0
07C0
07C0
07C0
0780
0780
0F00
1F00
3E00
FC00
7000
4000
ENDCHAR
STARTCHAR 0375
ENCODING 885
SWIDTH 550 0
DWIDTH 22 0
BBX 10 13 4 -7
BITMAP
01C0
01C0
01C0
01C0
01C0
03C0
0380
0780
1F00
7F00
FE00
FC00
7800
ENDCHAR
STARTCHAR 037A
ENCODING 890
SWIDTH 550 0
DWIDTH 22 0
BBX 5 6 9 -8
BITMAP
E0
E0
E0
E0
F8
78
ENDCHAR
STARTCHAR 037B
ENCODING 891
SWIDTH 550 0
DWIDTH 22 0
BBX 15 20 4 0
BITMAP
3F80
FFE0
FFF0
C0F8
003C
001C
001E
000E
000E
000E
000E
000E
000E
001C
001C
003C
C0F8
FFF0
FFE0
7F80
ENDCHAR
STARTCHAR 037C
ENCODING 892
SWIDTH 550 0
DWIDTH 22 0
BBX 15 20 3 0
BITMAP
03FC
0FFE
1FFE
3E06
7800
7000
7000
E0E0
E1F0
E1F0
E1F0
E0E0
E000
F000
7000
7800
3E06
3FFE
0FFE
03F8
ENDCHAR
STARTCHAR 037D
ENCODING 893
SWIDTH 550 0
DWIDTH 22 0
BBX 15 20 4 0
BITMAP
3F80
FFE0
FFF0
C0F8
003C
001C
001E
1C0E
3E0E
3E0E
3E0E
1C0E
000E
001C
001C
003C
C0F8
FFF0
FFE0
7F80
ENDCHAR
STARTCHAR 037E
ENCODING 894
SWIDTH 550 0
DWIDTH 22 0
BBX 9 27 5 -7
BITMAP
0F00
1F80
1F80
1F80
1F80
0F00
0000
0000
0000
0000
0000
0000
0000
0000
0E00
1F00
1F80
1F80
0F80
0780
0780
0780
0F00
1F00
FE00
FC00
E000
ENDCHAR
STARTCHAR 0384
ENCODING 900
SWIDTH 550 0
DWIDTH 22 0
BBX 7 5 9 20
BITMAP
1E
3C
78
70
E0
ENDCHAR
STARTCHAR 0385
ENCODING 901
SWIDTH 550 0
DWIDTH 22 0
BBX 16 5 4 20
BITMAP
01E0
63C6
F3CF
F38F
6706
ENDCHAR
STARTCHAR 0386
ENCODING 902
SWIDTH 550 0
DWIDTH 22 0
BBX 21 28 0 0
BITMAP
3C0000
380000
78F800
78F800
71FC00
01DC00
01DC00
03DE00
038E00
038E00
078F00
070700
070700
0F0780
0E0380
0E0380
1E03C0
1C03C0
1C01C0
3FFFE0
3FFFE0
3FFFE0
7800F0
7800F0
700070
F00078
F00078
E00038
ENDCHAR
STARTCHAR 0387
ENCODING 903
SWIDTH 550 0
DWIDTH 22 0
BBX 6 7 8 17
BITMAP
78
78
FC
FC
FC
78
38
ENDCHAR
STARTCHAR 0388
ENCODING 904
SWIDTH 550 0
DWIDTH 22 0
BBX 21 28 -2 0
BITMAP
780000
700000
F3FFF8
F3FFF8
E3FFF8
038000
038000
038000
038000
038000
038000
038000
038000
03FFF8
03FFF8
03FFF8
038000
038000
038000
038000
038000
038000
038000
038000
038000
03FFF8
03FFF8
03FFF8
ENDCHAR
STARTCHAR 0389
ENCODING 905
SWIDTH 550 0
DWIDTH 22 0
BBX 23 28 -3 0
BITMAP
780000
700000
F7000E
F7000E
E7000E
07000E
07000E
07000E
07000E
07000E
07000E
07000E
07000E
07FFFE
07FFFE
07FFFE
07000E
07000E
07000E
07000E
07000E
07000E
07000E
07000E
07000E
07000E
07000E
07000E
ENDCHAR
STARTCHAR 038A
ENCODING 906
SWIDTH 550 0
DWIDTH 22 0
BBX 21 28 -3 0
BITMAP
780000
700000
F3FFF8
F3FFF8
E3FFF8
000E00
000E00
000E00
000E00
000E00
000E00
000E00
000E00
000E00
000E00
000E00
000E00
000E00
000E00
000E00
000E00
000E00
000E00
000E00
000E00
03FFF8
03FFF8
03FFF8
ENDCHAR
STARTCHAR 038C
ENCODING 908
SWIDTH 550 0
DWIDTH 22 0
BBX 23 28 -2 0
BITMAP
780000
700000
F03F00
F0FFE0
E1FFF0
03C0F8
078078
07003C
0E001C
0E001C
1E001E
1C000E
1C000E
1C000E
1C000E
1C000E
1C000E
1C000E
1C000E
1C001E
0E001C
0E001C
0F0038
078078
07C0F0
03FFE0
01FFC0
007F00
ENDCHAR
STARTCHAR 038E
ENCODING 910
SWIDTH 550 0
DWIDTH 22 0
BBX 25 28 -4 0
BITMAP
78000000
70000000
FF000780
F7800F00
E7800F00
03C01E00
03C01E00
01E03C00
01E03C00
00F07800
00707800
0078F000
0038E000
003CE000
001DC000
001FC000
000F8000
000F8000
00070000
00070000
00070000
00070000
00070000
00070000
00070000
00070000
00070000
00070000
ENDCHAR
STARTCHAR 038F
ENCODING 911
SWIDTH 550 0
DWIDTH 22 0
BBX 22 28 -1 0
BITMAP
780000
700000
F07F00
F1FFC0
E3FFE0
07C3F0
0F00F0
1F0078
1E0078
1E0078
3C003C
3C003C
3C003C
3C003C
3C003C
3C003C
3C003C
3C003C
3C003C
1E0078
1E0078
0E0070
0F00F0
0700E0
0381C0
3FC3FC
3FC3FC
3FC3FC
ENDCHAR
STARTCHAR 0390
ENCODING 912
SWIDTH 550 0
DWIDTH 22 0
BBX 18 28 2 0
BITMAP
007800
18F180
3CF3C0
3CE3C0
19C180
000000
000000
000000
FFC000
FFC000
FFC000
01C000
01C000
01C000
01C000
01C000
01C000
01C000
01C000
01C000
01C000
01C000
01C000
01C000
01E000
00FF80
007F80
003F80
ENDCHAR
STARTCHAR 0391
ENCODING 913
SWIDTH 550 0
DWIDTH 22 0
BBX 21 26 0 0
BITMAP
00F800
00F800
01FC00
01DC00
01DC00
03DE00
038E00
038E00
078F00
070700
070700
0F0780
0E0380
0E0380
1E03C0
1C03C0
1C01C0
3FFFE0
3FFFE0
3FFFE0
7800F0
7800F0
700070
F00078
F00078
E00038
ENDCHAR
STARTCHAR 0392
ENCODING 914
SWIDTH 550 0
DWIDTH 22 0
BBX 16 26 3 0
BITMAP
FFE0
FFF8
FFFC
E03C
E01E
E00E
E00E
E00E
E00E
E01C
E03C
FFF0
FFF0
FFFC
E03E
E00E
E007
E007
E007
E007
E007
E00E
E03E
FFFC
FFF8
FFC0
ENDCHAR
STARTCHAR 0393
ENCODING 915
SWIDTH 550 0
DWIDTH 22 0
BBX 15 26 5 0
BITMAP
FFFE
FFFE
FFFE
E000
E000
E000
E000
E000
E000
E000
E000
E000
E000
E000
E000
E000
E000
E000
E000
E000
E000
E000
E000
E000
E000
E000
ENDCHAR
STARTCHAR 0394
ENCODING 916
SWIDTH 550 0
DWIDTH 22 0
BBX 21 26 0 0
BITMAP
00F800
00F800
01FC00
01DC00
01DC00
03DE00
03CE00
038E00
078F00
078F00
070700
0F0780
0F0780
0E0380
1E03C0
1E03C0
1C01C0
3C01E0
3C01E0
3801E0
7800F0
7800F0
7000F0
FFFFF8
FFFFF8
FFFFF8
ENDCHAR
STARTCHAR 0395
ENCODING 917
SWIDTH 550 0
DWIDTH 22 0
BBX 15 26 4 0
BITMAP
FFFE
FFFE
FFFE
E000
E000
E000
E000
E000
E000
E000
E000
FFFE
FFFE
FFFE
E000
E000
E000
E000
E000
E000
E000
E000
E000
FFFE
FFFE
FFFE
ENDCHAR
STARTCHAR 0396
ENCODING 918
SWIDTH 550 0
DWIDTH 22 0
BBX 18 26 2 0
BITMAP
FFFF80
FFFF80
FFFF80
000F00
000F00
001E00
001C00
003C00
007800
007800
00F000
00E000
01E000
03C000
03C000
078000
070000
0F0000
1E0000
1E0000
3C0000
380000
780000
FFFFC0
FFFFC0
FFFFC0
ENDCHAR
STARTCHAR 0397
ENCODING 919
SWIDTH 550 0
DWIDTH 22 0
BBX 18 26 2 0
BITMAP
E001C0
E001C0
E001C0
E001C0
E001C0
E001C0
E001C0
E001C0
E001C0
E001C0
E001C0
FFFFC0
FFFFC0
FFFFC0
E001C0
E001C0
E001C0
E001C0
E001C0
E001C0
E001C0
E001C0
E001C0
E001C0
E001C0
E001C0
ENDCHAR
STARTCHAR 0398
ENCODING 920
SWIDTH 550 0
DWIDTH 22 0
BBX 20 26 1 0
BITMAP
01F800
07FE00
0FFF80
1F0FC0
3E03C0
3C03E0
7801E0
7801E0
F800F0
F000F0
F000F0
F1F8F0
F1F8F0
F1F8F0
F000F0
F000F0
F000F0
F001F0
7801E0
7801E0
7C03C0
3C07C0
3F0F80
1FFF00
0FFE00
03F800
ENDCHAR
STARTCHAR 0399
ENCODING 921
SWIDTH 550 0
DWIDTH 22 0
BBX 15 26 3 0
BITMAP
FFFE
FFFE
FFFE
0380
0380
0380
0380
0380
0380
0380
0380
0380
0380
0380
0380
0380
0380
0380
0380
0380
0380
0380
0380
FFFE
FFFE
FFFE
ENDCHAR
STARTCHAR 039A
ENCODING 922
SWIDTH 550 0
DWIDTH 22 0
BBX 17 26 3 0
BITMAP
E00780
E00F00
E01E00
E03C00
E07800
E07000
E0F000
E1E000
E3C000
E78000
E70000
EE0000
FC0000
FE0000
EF0000
E78000
E3C000
E3C000
E1E000
E0F000
E07800
E07C00
E03C00
E01E00
E00F00
E00780
ENDCHAR
STARTCHAR 039B
ENCODING 923
SWIDTH 550 0
DWIDTH 22 0
BBX 21 26 0 0
BITMAP
00F800
00F800
01FC00
01DC00
01DC00
03DE00
03DE00
038E00
078F00
078F00
070700
0F0780
0F0780
0E0380
1E03C0
1E03C0
1C01C0
3C01E0
3C01E0
3800E0
7800F0
7800F0
7000F0
F00078
F00078
E00078
ENDCHAR
STARTCHAR 039C
ENCODING 924
SWIDTH 550 0
DWIDTH 22 0
BBX 20 26 1 0
BITMAP
7801E0
7C01E0
7C03E0
7C03F0
7E0770
7E0770
6E0670
670E70
670E70
E30C70
E39C70
E39C70
E19870
E1F870
E1F070
E0F070
E0F070
E0E070
E00070
E00070
E00070
E00070
E00070
E00070
E00070
E00070
ENDCHAR
STARTCHAR 039D
ENCODING 925
SWIDTH 550 0
DWIDTH 22 0
BBX 18 26 2 0
BITMAP
F801C0
F801C0
FC01C0
FC01C0
FE01C0
EE01C0
EF01C0
E701C0
E781C0
E781C0
E3C1C0
E3C1C0
E1E1C0
E1E1C0
E0F1C0
E0F1C0
E071C0
E079C0
E039C0
E03DC0
E01DC0
E01FC0
E00FC0
E00FC0
E007C0
E007C0
ENDCHAR
STARTCHAR 039E
ENCODING 926
SWIDTH 550 0
DWIDTH 22 0
BBX 16 26 3 0
BITMAP
FFFF
FFFF
FFFF
0000
0000
0000
0000
0000
0000
0000
0000
7FFE
7FFE
7FFE
0000
0000
0000
0000
0000
0000
0000
0000
0000
FFFF
FFFF
FFFF
ENDCHAR
STARTCHAR 039F
ENCODING 927
SWIDTH 550 0
DWIDTH 22 0
BBX 20 26 1 0
BITMAP
01F800
07FF00
0FFF80
1E07C0
3C03C0
3801E0
7000E0
7000E0
F000F0
E00070
E00070
E00070
E00070
E00070
E00070
E00070
E00070
E000F0
7000E0
7000E0
7801C0
3C03C0
3E0780
1FFF00
0FFE00
03F800
ENDCHAR
STARTCHAR 03A0
ENCODING 928
SWIDTH 550 0
DWIDTH 22 0
BBX 17 26 2 0
BITMAP
FFFF80
FFFF80
FFFF80
E00380
E00380
E00380
E00380
E00380
E00380
E00380
E00380
E00380
E00380
E00380
E00380
E00380
E00380
E00380
E00380
E00380
E00380
E00380
E00380
E00380
E00380
E00380
ENDCHAR
STARTCHAR 03A1
ENCODING 929
SWIDTH 550 0
DWIDTH 22 0
BBX 17 26 3 0
BITMAP
FFE000
FFFC00
FFFE00
E03F00
E01F00
E00F80
E00780
E00780
E00780
E00780
E00780
E00F00
E01F00
E03E00
FFFC00
FFF800
FFC000
E00000
E00000
E00000
E00000
E00000
E00000
E00000
E00000
E00000
ENDCHAR
STARTCHAR 03A3
ENCODING 931
SWIDTH 550 0
DWIDTH 22 0
BBX 18 26 2 0
BITMAP
FFFFC0
FFFFC0
FFFFC0
780000
3C0000
1E0000
0F0000
0F8000
07C000
03E000
01F000
00F800
007800
00F800
01F000
01E000
03C000
078000
0F0000
1F0000
3E0000
3C0000
780000
FFFFC0
FFFFC0
FFFFC0
ENDCHAR
STARTCHAR 03A4
ENCODING 932
SWIDTH 550 0
DWIDTH 22 0
BBX 19 26 1 0
BITMAP
FFFFE0
FFFFE0
FFFFE0
00E000
00E000
00E000
00E000
00E000
00E000
00E000
00E000
00E000
00E000
00E000
00E000
00E000
00E000
00E000
00E000
00E000
00E000
00E000
00E000
00E000
00E000
00E000
ENDCHAR
STARTCHAR 03A5
ENCODING 933
SWIDTH 550 0
DWIDTH 22 0
BBX 21 26 0 0
BITMAP
F00078
7800F0
7800F0
3C01E0
3C01E0
1E03C0
1E03C0
0F0780
070780
078F00
038E00
03CE00
01DC00
01FC00
00F800
00F800
007000
007000
007000
007000
007000
007000
007000
007000
007000
007000
ENDCHAR
STARTCHAR 03A6
ENCODING 934
SWIDTH 550 0
DWIDTH 22 0
BBX 21 30 0 -2
BITMAP
007000
007000
01FE00
07FF80
0FFFC0
1E73E0
3C71E0
7870F0
707070
707070
F07078
E07038
E07038
E07038
E07038
E07038
E07038
E07038
E07038
E07078
707070
707070
7870E0
3C71E0
3E73C0
1FFF80
0FFF00
03FC00
007000
007000
ENDCHAR
STARTCHAR 03A7
ENCODING 935
SWIDTH 550 0
DWIDTH 22 0
BBX 22 26 0 0
BITMAP
780078
3C00F0
1E01E0
1E01E0
0F03C0
078780
078780
03CF00
03DF00
01FE00
00FC00
00FC00
007800
00FC00
00FC00
01FE00
03CF00
03CF00
078780
0F87C0
0F03C0
1E01E0
3E01F0
3C00F0
780078
F8007C
ENDCHAR
STARTCHAR 03A8
ENCODING 936
SWIDTH 550 0
DWIDTH 22 0
BBX 19 26 1 0
BITMAP
E0E0E0
E0E0E0
E0E0E0
E0E0E0
E0E0E0
E0E0E0
E0E0E0
E0E0E0
E0E0E0
E0E0E0
E0E0E0
E0E0E0
F0E1C0
70E3C0
7CE780
3FFF80
1FFE00
07F800
00E000
00E000
00E000
00E000
00E000
00E000
00E000
00E000
ENDCHAR
STARTCHAR 03A9
ENCODING 937
SWIDTH 550 0
DWIDTH 22 0
BBX 20 26 1 0
BITMAP
01FC00
07FF00
0FFF80
1F0FC0
3C03C0
7C01E0
7801E0
7801E0
F000F0
F000F0
F000F0
F000F0
F000F0
F000F0
F000F0
F000F0
F000F0
7801E0
7801E0
3801C0
3C03C0
1C0380
0E0700
FF0FF0
FF0FF0
FF0FF0
ENDCHAR
STARTCHAR 03AA
ENCODING 938
SWIDTH 550 0
DWIDTH 22 0
BBX 15 33 3 0
BITMAP
180C
3C1E
3C1E
180C
0000
0000
0000
FFFE
FFFE
FFFE
0380
0380
0380
0380
0380
0380
0380
0380
0380
0380
0380
0380
0380
0380
0380
0380
0380
0380
0380
0380
FFFE
FFFE
FFFE
ENDCHAR
STARTCHAR 03AB
ENCODING 939
SWIDTH 550 0
DWIDTH 22 0
BBX 21 33 0 0
BITMAP
030180
0783C0
0783C0
030180
000000
000000
000000
F00078
7800F0
7800F0
3C01E0
3C01E0
1E03C0
1E03C0
0F0780
070780
078F00
038E00
03CE00
01DC00
01FC00
00F800
00F800
007000
007000
007000
007000
007000
007000
007000
007000
007000
007000
ENDCHAR
STARTCHAR 03AC
ENCODING 940
SWIDTH 550 0
DWIDTH 22 0
BBX 20 28 2 -1
BITMAP
003C00
007800
00F000
00E000
01C000
000000
000000
000000
03E0E0
0FF8E0
1FFDC0
3C3FC0
781FC0
700F80
F00F80
E00780
E00780
E00700
E00700
E00700
E00700
E00F00
700F00
701F80
7C3DC0
3FF9F0
1FF1F0
07E0F0
ENDCHAR
STARTCHAR 03AD
ENCODING 941
SWIDTH 550 0
DWIDTH 22 0
BBX 17 28 3 0
BITMAP
003C00
007800
00F000
00E000
01C000
000000
000000
000000
03FE00
1FFF80
3FFF80
7E0180
780000
780000
780000
3E0000
1FFC00
07FC00
3FFC00
7C0000
F80000
F00000
F00000
F80000
FC0180
7FFF80
3FFF80
07FE00
ENDCHAR
STARTCHAR 03AE
ENCODING 942
SWIDTH 550 0
DWIDTH 22 0
BBX 16 36 2 -8
BITMAP
001E
003C
0078
0070
00E0
0000
0000
0000
E1F8
E3FC
E7FE
EF1E
7C0F
7807
7007
7007
7007
7007
7007
7007
7007
7007
7007
7007
7007
7007
7007
7007
0007
0007
0007
0007
0007
0007
0007
0007
ENDCHAR
STARTCHAR 03AF
ENCODING 943
SWIDTH 550 0
DWIDTH 22 0
BBX 17 28 2 0
BITMAP
003C00
007800
00F000
00E000
01C000
000000
000000
000000
FFC000
FFC000
FFC000
01C000
01C000
01C000
01C000
01C000
01C000
01C000
01C000
01C000
01C000
01C000
01C000
01C000
01E000
00FF80
007F80
003F80
ENDCHAR
STARTCHAR 03B0
ENCODING 944
SWIDTH 550 0
DWIDTH 22 0
BBX 17 28 3 0
BITMAP
00F000
31E300
79E780
79C780
338300
000000
000000
000000
E00700
E00700
E00700
E00700
E00700
E00700
E00700
E00700
E00700
E00700
E00700
E00700
E00F00
E00E00
E00E00
F01E00
783C00
7FF800
3FF000
0FC000
ENDCHAR
STARTCHAR 03B1
ENCODING 945
SWIDTH 550 0
DWIDTH 22 0
BBX 20 20 2 -1
BITMAP
03E0E0
0FF8E0
1FFDC0
3C3FC0
781FC0
700F80
F00F80
E00780
E00780
E00700
E00700
E00700
E00700
E00F00
700F00
701F80
7C3DC0
3FF9F0
1FF1F0
07E0F0
ENDCHAR
STARTCHAR 03B2
ENCODING 946
SWIDTH 550 0
DWIDTH 22 0
BBX 17 36 3 -8
BITMAP
07E000
1FF800
3FFC00
783C00
701E00
F00E00
E00E00
E00E00
E00E00
E01C00
E03C00
E3F800
E3F800
E3FE00
E01F00
E00F00
E00780
E00380
E00380
E00380
E00380
E00380
E00700
E00700
F81E00
FFFC00
FFF800
E7E000
E00000
E00000
E00000
E00000
E00000
E00000
E00000
E00000
ENDCHAR
STARTCHAR 03B3
ENCODING 947
SWIDTH 550 0
DWIDTH 22 0
BBX 18 28 1 -7
BITMAP
F001C0
F801C0
F801C0
3C01C0
1C01C0
1E0180
0E0380
0E0380
0F0380
070300
070700
038700
038E00
038E00
03DE00
01DC00
01F800
01F800
01F000
01F000
00E000
00E000
00E000
00E000
00E000
00E000
00E000
00E000
ENDCHAR
STARTCHAR 03B4
ENCODING 948
SWIDTH 550 0
DWIDTH 22 0
BBX 17 28 2 0
BITMAP
01F800
07FE00
0FFE00
0E0600
0E0000
0F0000
0F8000
07C000
03E000
07F800
1FFC00
1E3E00
381E00
700F00
700700
E00780
E00380
E00380
E00380
E00380
E00380
F00380
700700
780F00
3C1E00
3FFE00
1FFC00
07F000
ENDCHAR
STARTCHAR 03B5
ENCODING 949
SWIDTH 550 0
DWIDTH 22 0
BBX 17 20 3 0
BITMAP
03FE00
1FFF80
3FFF80
7E0180
780000
780000
780000
3E0000
1FFC00
07FC00
3FFC00
7C0000
F80000
F00000
F00000
F80000
7C0180
7FFF80
3FFF80
07FE00
ENDCHAR
STARTCHAR 03B6
ENCODING 950
SWIDTH 550 0
DWIDTH 22 0
BBX 15 36 3 -8
BITMAP
7FFE
7FFE
7FFE
007C
00F8
01F0
03E0
07C0
0F00
0F00
1E00
3C00
3800
7800
7000
F000
E000
E000
E000
E000
E000
F000
7000
7800
3F00
1FE0
0FF8
01FC
003E
000E
000E
000E
000E
001C
001C
0038
ENDCHAR
STARTCHAR 03B7
ENCODING 951
SWIDTH 550 0
DWIDTH 22 0
BBX 16 28 2 -8
BITMAP
E1F8
E3FC
E7FE
6F1E
7C0F
7807
7007
7007
7007
7007
7007
7007
7007
7007
7007
7007
7007
7007
7007
7007
0007
0007
0007
0007
0007
0007
0007
0007
ENDCHAR
STARTCHAR 03B8
ENCODING 952
SWIDTH 550 0
DWIDTH 22 0
BBX 18 28 2 0
BITMAP
03F000
07FC00
0FFE00
1E1F00
3C0700
380780
700380
700380
7001C0
E001C0
E001C0
E001C0
FFFFC0
FFFFC0
FFFFC0
E001C0
E001C0
E001C0
E001C0
E00380
700380
700380
780700
380F00
3E1E00
1FFC00
0FF800
03F000
ENDCHAR
STARTCHAR 03B9
ENCODING 953
SWIDTH 550 0
DWIDTH 22 0
BBX 17 20 2 0
BITMAP
FFC000
FFC000
FFC000
01C000
01C000
01C000
01C000
01C000
01C000
01C000
01C000
01C000
01C000
01C000
01C000
01C000
01E000
00FF80
007F80
003F80
ENDCHAR
STARTCHAR 03BA
ENCODING 954
SWIDTH 550 0
DWIDTH 22 0
BBX 17 20 4 0
BITMAP
E00F00
E01E00
E03C00
E07800
E0F000
E1E000
E3C000
E78000
EF0000
FE0000
EF0000
E78000
E3C000
E1E000
E0F000
E07800
E03C00
E01E00
E00F00
E00780
ENDCHAR
ENDFONT
